<svg width="161" height="142" viewBox="0 0 161 142" fill="none" xmlns="http://www.w3.org/2000/svg">
<path d="M10.6846 142C8.0985 142 5.50752 141.056 3.48043 139.149C-0.704998 135.21 -0.870277 128.651 3.10613 124.504C28.1652 98.3881 28.1652 57.4775 3.10613 31.3612C-0.870277 27.2147 -0.704998 20.6604 3.48043 16.7162C7.66586 12.772 14.2819 12.9406 18.2631 17.087C51.0077 51.2073 51.0077 104.658 18.2631 138.774C16.2069 140.917 13.4506 141.996 10.6846 141.996V142Z" fill="#25569D"/>
<path d="M149.708 142C146.942 142 144.186 140.921 142.129 138.778C109.385 104.657 109.385 51.2064 142.129 17.0861C146.106 12.9397 152.727 12.776 156.912 16.7153C161.098 20.6547 161.263 27.2139 157.286 31.3603C132.222 57.4766 132.222 98.3872 157.286 124.504C161.263 128.65 161.098 135.204 156.912 139.149C154.89 141.056 152.299 142 149.708 142Z" fill="#25569D"/>
<path d="M80.6023 78.4834C56.7973 78.4834 37.9216 71.1585 26.1771 64.9316C20.7618 62.0613 18.7201 55.3817 21.6222 50.0169C24.5194 44.652 31.2618 42.6294 36.6771 45.5044C46.3799 50.6526 62.1057 56.7206 81.9585 56.4412C100.266 56.1764 114.82 50.5563 123.813 45.8849C129.252 43.058 135.975 45.1384 138.829 50.5274C141.682 55.9163 139.582 62.5766 134.143 65.4035C118.179 73.6964 100.241 78.2185 82.2842 78.4785C81.7252 78.4882 81.1662 78.493 80.612 78.493L80.6023 78.4834Z" fill="#25569D"/>
<path d="M57.0111 24.609C62.0745 24.609 66.1792 19.1001 66.1792 12.3045C66.1792 5.5089 62.0745 0 57.0111 0C51.9477 0 47.843 5.5089 47.843 12.3045C47.843 19.1001 51.9477 24.609 57.0111 24.609Z" fill="#25569D"/>
<path d="M103.381 24.609C108.445 24.609 112.55 19.1001 112.55 12.3045C112.55 5.5089 108.445 0 103.381 0C98.3181 0 94.2134 5.5089 94.2134 12.3045C94.2134 19.1001 98.3181 24.609 103.381 24.609Z" fill="#25569D"/>
</svg>
