<svg width="50" height="50" viewBox="0 0 50 50" fill="none" xmlns="http://www.w3.org/2000/svg">
<g id="&#236;&#151;&#133; &#235;&#178;&#132;&#237;&#138;&#188;">
<path id="Rectangle 226" d="M0 25C0 11.1929 11.1929 0 25 0C38.8071 0 50 11.1929 50 25V50H25C11.1929 50 0 38.8071 0 25Z" fill="#6C3F2E"/>
<path id="Vector" d="M16.7651 29.4897C16.4699 29.2003 16.3223 28.8321 16.3223 28.3849C16.3223 27.9378 16.4699 27.5695 16.7651 27.2802L24.1722 20.0204C24.3332 19.8626 24.5076 19.7506 24.6955 19.6843C24.8834 19.619 25.0847 19.5864 25.2993 19.5864C25.514 19.5864 25.7223 19.6259 25.9241 19.7048C26.1249 19.7837 26.2923 19.8889 26.4265 20.0204L33.8336 27.2802C34.1288 27.5695 34.2764 27.9378 34.2764 28.3849C34.2764 28.8321 34.1288 29.2003 33.8336 29.4897C33.5384 29.779 33.1627 29.9237 32.7065 29.9237C32.2502 29.9237 31.8745 29.779 31.5793 29.4897L25.2993 23.3347L19.0194 29.4897C18.7242 29.779 18.3485 29.9237 17.8922 29.9237C17.436 29.9237 17.0603 29.779 16.7651 29.4897Z" fill="white"/>
</g>
</svg>
