<svg width="51" height="22" viewBox="0 0 51 22" fill="none" xmlns="http://www.w3.org/2000/svg">
<rect width="51" height="22" rx="11" fill="white"/>
<path d="M16.272 5.796V9.396H9.168V5.796H16.272ZM10.188 6.624V8.556H15.252V6.624H10.188ZM17.496 10.68V11.52H7.956V10.68H17.496ZM13.236 9.18V10.98H12.204V9.18H13.236ZM16.32 12.564V15.912H15.288V13.404H9.012V12.564H16.32ZM22.0923 11.064V14.064H21.0603V11.064H22.0923ZM25.3443 11.076V14.064H24.3243V11.076H25.3443ZM28.0083 13.776V14.628H18.4443V13.776H28.0083ZM27.1323 6.3V7.14H19.2723V6.3H27.1323ZM27.1203 10.512V11.352H19.3083V10.512H27.1203ZM21.9243 6.984V10.668H20.8803V6.984H21.9243ZM25.5243 6.984V10.668H24.4923V6.984H25.5243ZM35.0102 14.208C35.4342 14.208 35.8062 14.06 36.1262 13.764C36.4542 13.46 36.7062 13.04 36.8822 12.504C37.0662 11.968 37.1582 11.356 37.1582 10.668C37.1582 9.98 37.0662 9.368 36.8822 8.832C36.7062 8.296 36.4542 7.88 36.1262 7.584C35.7982 7.28 35.4262 7.128 35.0102 7.128C34.5942 7.128 34.2222 7.28 33.8942 7.584C33.5742 7.88 33.3222 8.296 33.1382 8.832C32.9542 9.368 32.8622 9.98 32.8622 10.668C32.8622 11.356 32.9542 11.968 33.1382 12.504C33.3222 13.04 33.5742 13.46 33.8942 13.764C34.2222 14.06 34.5942 14.208 35.0102 14.208ZM35.0102 15.096C34.4022 15.096 33.8582 14.908 33.3782 14.532C32.9062 14.156 32.5342 13.632 32.2622 12.96C31.9982 12.288 31.8662 11.524 31.8662 10.668C31.8662 9.812 31.9982 9.052 32.2622 8.388C32.5342 7.716 32.9062 7.192 33.3782 6.816C33.8582 6.44 34.4022 6.252 35.0102 6.252C35.6182 6.252 36.1622 6.44 36.6422 6.816C37.1222 7.192 37.4942 7.716 37.7582 8.388C38.0222 9.052 38.1542 9.812 38.1542 10.668C38.1542 11.524 38.0222 12.288 37.7582 12.96C37.4942 13.632 37.1222 14.156 36.6422 14.532C36.1702 14.908 35.6262 15.096 35.0102 15.096ZM42.2451 15.012H41.2491V7.44L39.8331 8.352L39.3411 7.56L41.2491 6.336H42.2451V15.012Z" fill="#6C3F2E"/>
</svg>
