<svg width="51" height="22" viewBox="0 0 51 22" fill="none" xmlns="http://www.w3.org/2000/svg">
<rect width="51" height="22" rx="11" fill="white"/>
<path d="M14.772 5.796V9.396H7.668V5.796H14.772ZM8.688 6.624V8.556H13.752V6.624H8.688ZM15.996 10.68V11.52H6.456V10.68H15.996ZM11.736 9.18V10.98H10.704V9.18H11.736ZM14.82 12.564V15.912H13.788V13.404H7.512V12.564H14.82ZM20.5923 11.064V14.064H19.5603V11.064H20.5923ZM23.8443 11.076V14.064H22.8243V11.076H23.8443ZM26.5083 13.776V14.628H16.9443V13.776H26.5083ZM25.6323 6.3V7.14H17.7723V6.3H25.6323ZM25.6203 10.512V11.352H17.8083V10.512H25.6203ZM20.4243 6.984V10.668H19.3803V6.984H20.4243ZM24.0243 6.984V10.668H22.9923V6.984H24.0243ZM33.5102 14.208C33.9342 14.208 34.3062 14.06 34.6262 13.764C34.9542 13.46 35.2062 13.04 35.3822 12.504C35.5662 11.968 35.6582 11.356 35.6582 10.668C35.6582 9.98 35.5662 9.368 35.3822 8.832C35.2062 8.296 34.9542 7.88 34.6262 7.584C34.2982 7.28 33.9262 7.128 33.5102 7.128C33.0942 7.128 32.7222 7.28 32.3942 7.584C32.0742 7.88 31.8222 8.296 31.6382 8.832C31.4542 9.368 31.3622 9.98 31.3622 10.668C31.3622 11.356 31.4542 11.968 31.6382 12.504C31.8222 13.04 32.0742 13.46 32.3942 13.764C32.7222 14.06 33.0942 14.208 33.5102 14.208ZM33.5102 15.096C32.9022 15.096 32.3582 14.908 31.8782 14.532C31.4062 14.156 31.0342 13.632 30.7622 12.96C30.4982 12.288 30.3662 11.524 30.3662 10.668C30.3662 9.812 30.4982 9.052 30.7622 8.388C31.0342 7.716 31.4062 7.192 31.8782 6.816C32.3582 6.44 32.9022 6.252 33.5102 6.252C34.1182 6.252 34.6622 6.44 35.1422 6.816C35.6222 7.192 35.9942 7.716 36.2582 8.388C36.5222 9.052 36.6542 9.812 36.6542 10.668C36.6542 11.524 36.5222 12.288 36.2582 12.96C35.9942 13.632 35.6222 14.156 35.1422 14.532C34.6702 14.908 34.1262 15.096 33.5102 15.096ZM42.4011 10.524C42.7771 10.748 43.0731 11.048 43.2891 11.424C43.5051 11.8 43.6131 12.176 43.6131 12.552C43.6131 13.04 43.4931 13.476 43.2531 13.86C43.0131 14.244 42.6771 14.544 42.2451 14.76C41.8131 14.976 41.3211 15.084 40.7691 15.084C40.2171 15.084 39.7251 14.976 39.2931 14.76C38.8611 14.536 38.5251 14.232 38.2851 13.848C38.0451 13.464 37.9251 13.024 37.9251 12.528H38.9211C38.9211 12.848 39.0011 13.136 39.1611 13.392C39.3211 13.64 39.5371 13.836 39.8091 13.98C40.0891 14.124 40.4091 14.196 40.7691 14.196C41.1291 14.196 41.4491 14.128 41.7291 13.992C42.0171 13.848 42.2371 13.652 42.3891 13.404C42.5491 13.148 42.6291 12.86 42.6291 12.54C42.6291 12.236 42.5491 11.964 42.3891 11.724C42.2371 11.484 42.0211 11.296 41.7411 11.16C41.4611 11.024 41.1451 10.956 40.7931 10.956H40.1571V10.068H40.7931C41.1211 10.068 41.4131 10.008 41.6691 9.888C41.9331 9.768 42.1371 9.6 42.2811 9.384C42.4331 9.16 42.5091 8.908 42.5091 8.628C42.5091 8.188 42.3531 7.832 42.0411 7.56C41.7291 7.28 41.3291 7.14 40.8411 7.14C40.5211 7.14 40.2331 7.204 39.9771 7.332C39.7211 7.46 39.5211 7.64 39.3771 7.872C39.2411 8.096 39.1731 8.356 39.1731 8.652H38.1771C38.1771 8.188 38.2891 7.776 38.5131 7.416C38.7451 7.048 39.0611 6.764 39.4611 6.564C39.8611 6.356 40.3211 6.252 40.8411 6.252C41.3531 6.252 41.8091 6.352 42.2091 6.552C42.6171 6.752 42.9331 7.032 43.1571 7.392C43.3811 7.752 43.4931 8.16 43.4931 8.616C43.4931 8.96 43.3931 9.308 43.1931 9.66C43.0011 10.012 42.7371 10.3 42.4011 10.524Z" fill="#6C3F2E"/>
</svg>
