<svg width="51" height="22" viewBox="0 0 51 22" fill="none" xmlns="http://www.w3.org/2000/svg">
<rect width="51" height="22" rx="11" fill="white"/>
<path d="M14.772 5.796V9.396H7.668V5.796H14.772ZM8.688 6.624V8.556H13.752V6.624H8.688ZM15.996 10.68V11.52H6.456V10.68H15.996ZM11.736 9.18V10.98H10.704V9.18H11.736ZM14.82 12.564V15.912H13.788V13.404H7.512V12.564H14.82ZM20.5923 11.064V14.064H19.5603V11.064H20.5923ZM23.8443 11.076V14.064H22.8243V11.076H23.8443ZM26.5083 13.776V14.628H16.9443V13.776H26.5083ZM25.6323 6.3V7.14H17.7723V6.3H25.6323ZM25.6203 10.512V11.352H17.8083V10.512H25.6203ZM20.4243 6.984V10.668H19.3803V6.984H20.4243ZM24.0243 6.984V10.668H22.9923V6.984H24.0243ZM33.5102 14.208C33.9342 14.208 34.3062 14.06 34.6262 13.764C34.9542 13.46 35.2062 13.04 35.3822 12.504C35.5662 11.968 35.6582 11.356 35.6582 10.668C35.6582 9.98 35.5662 9.368 35.3822 8.832C35.2062 8.296 34.9542 7.88 34.6262 7.584C34.2982 7.28 33.9262 7.128 33.5102 7.128C33.0942 7.128 32.7222 7.28 32.3942 7.584C32.0742 7.88 31.8222 8.296 31.6382 8.832C31.4542 9.368 31.3622 9.98 31.3622 10.668C31.3622 11.356 31.4542 11.968 31.6382 12.504C31.8222 13.04 32.0742 13.46 32.3942 13.764C32.7222 14.06 33.0942 14.208 33.5102 14.208ZM33.5102 15.096C32.9022 15.096 32.3582 14.908 31.8782 14.532C31.4062 14.156 31.0342 13.632 30.7622 12.96C30.4982 12.288 30.3662 11.524 30.3662 10.668C30.3662 9.812 30.4982 9.052 30.7622 8.388C31.0342 7.716 31.4062 7.192 31.8782 6.816C32.3582 6.44 32.9022 6.252 33.5102 6.252C34.1182 6.252 34.6622 6.44 35.1422 6.816C35.6222 7.192 35.9942 7.716 36.2582 8.388C36.5222 9.052 36.6542 9.812 36.6542 10.668C36.6542 11.524 36.5222 12.288 36.2582 12.96C35.9942 13.632 35.6222 14.156 35.1422 14.532C34.6702 14.908 34.1262 15.096 33.5102 15.096ZM38.0211 14.136C38.2291 13.936 38.4011 13.772 38.5371 13.644C38.6731 13.516 38.8451 13.356 39.0531 13.164C39.7491 12.524 40.3091 11.988 40.7331 11.556C41.1651 11.124 41.5291 10.68 41.8251 10.224C42.1291 9.768 42.2811 9.344 42.2811 8.952C42.2811 8.6 42.2091 8.288 42.0651 8.016C41.9211 7.736 41.7251 7.52 41.4771 7.368C41.2291 7.208 40.9451 7.128 40.6251 7.128C40.2651 7.128 39.9171 7.248 39.5811 7.488C39.2531 7.728 39.0051 8.04 38.8371 8.424L37.9371 8.028C38.1691 7.5 38.5331 7.068 39.0291 6.732C39.5331 6.396 40.0651 6.228 40.6251 6.228C41.1371 6.228 41.5931 6.344 41.9931 6.576C42.4011 6.808 42.7171 7.132 42.9411 7.548C43.1651 7.956 43.2771 8.424 43.2771 8.952C43.2771 9.48 43.1091 10.016 42.7731 10.56C42.4371 11.104 42.0331 11.616 41.5611 12.096C41.0971 12.576 40.4971 13.144 39.7611 13.8C39.3931 14.128 39.0451 14.452 38.7171 14.772L38.0211 14.136ZM38.0211 14.136H43.4211V15.024H38.1411L38.0211 14.136Z" fill="#6C3F2E"/>
</svg>
