<svg width="269" height="46" viewBox="0 0 269 46" fill="none" xmlns="http://www.w3.org/2000/svg">
<g filter="url(#filter0_d_2515_35319)">
<rect x="2" y="2" width="261" height="38" rx="19" fill="#6C3F2E" shape-rendering="crispEdges"/>
<path d="M90.108 15.244V24.484H88.89V15.244H90.108ZM91.914 19.248V20.256H89.744V19.248H91.914ZM87.84 16.7V17.68H80.56V16.7H87.84ZM84.2 18.324C84.7787 18.324 85.292 18.422 85.74 18.618C86.188 18.8047 86.5333 19.0753 86.776 19.43C87.028 19.7753 87.154 20.1767 87.154 20.634C87.154 21.0913 87.028 21.4973 86.776 21.852C86.5333 22.1973 86.188 22.468 85.74 22.664C85.292 22.8507 84.7787 22.944 84.2 22.944C83.612 22.944 83.094 22.8507 82.646 22.664C82.2073 22.468 81.862 22.1973 81.61 21.852C81.3673 21.4973 81.246 21.0913 81.246 20.634C81.246 20.1767 81.3673 19.7753 81.61 19.43C81.862 19.0753 82.2073 18.8047 82.646 18.618C83.094 18.422 83.612 18.324 84.2 18.324ZM84.2 19.276C83.6587 19.276 83.22 19.402 82.884 19.654C82.5573 19.8967 82.394 20.228 82.394 20.648C82.394 21.0493 82.5573 21.376 82.884 21.628C83.22 21.8707 83.6587 21.992 84.2 21.992C84.7413 21.992 85.1753 21.8707 85.502 21.628C85.8287 21.376 85.992 21.0493 85.992 20.648C85.992 20.228 85.8287 19.8967 85.502 19.654C85.1753 19.402 84.7413 19.276 84.2 19.276ZM84.802 15.244V17.204H83.598V15.244H84.802ZM90.654 26.304V27.284H82.408V26.304H90.654ZM83.612 23.742V26.724H82.408V23.742H83.612ZM102.904 15.244V22.328H101.686V15.244H102.904ZM102.904 22.944V27.396H94.8823V22.944H102.904ZM96.0723 23.91V26.416H101.728V23.91H96.0723ZM101.938 17.624V18.618H99.0683V17.624H101.938ZM96.7863 15.762V17.05C96.7863 17.806 96.6463 18.52 96.3663 19.192C96.0957 19.8547 95.7037 20.4287 95.1903 20.914C94.677 21.3993 94.0703 21.7727 93.3703 22.034L92.7403 21.068C93.3657 20.8533 93.907 20.5453 94.3643 20.144C94.831 19.7333 95.1857 19.262 95.4283 18.73C95.6803 18.198 95.8063 17.638 95.8063 17.05V15.762H96.7863ZM96.9963 15.762V17.106C96.9963 17.638 97.1177 18.1513 97.3603 18.646C97.6123 19.1407 97.9623 19.5747 98.4103 19.948C98.8583 20.3213 99.381 20.606 99.9783 20.802L99.3343 21.754C98.6623 21.5113 98.0743 21.1613 97.5703 20.704C97.0757 20.2467 96.693 19.71 96.4223 19.094C96.1517 18.4687 96.0163 17.806 96.0163 17.106V15.762H96.9963ZM118.325 15.216V27.578H117.107V15.216H118.325ZM111.801 16.168C112.408 16.168 112.949 16.3453 113.425 16.7C113.911 17.0547 114.284 17.5587 114.545 18.212C114.816 18.856 114.951 19.612 114.951 20.48C114.951 21.3387 114.816 22.0947 114.545 22.748C114.284 23.4013 113.911 23.9053 113.425 24.26C112.949 24.6147 112.408 24.792 111.801 24.792C111.195 24.792 110.649 24.6193 110.163 24.274C109.687 23.9193 109.314 23.4153 109.043 22.762C108.782 22.1087 108.651 21.348 108.651 20.48C108.651 19.612 108.782 18.856 109.043 18.212C109.314 17.5587 109.687 17.0547 110.163 16.7C110.649 16.3453 111.195 16.168 111.801 16.168ZM111.801 17.26C111.419 17.26 111.078 17.3907 110.779 17.652C110.481 17.9133 110.247 18.2867 110.079 18.772C109.911 19.2573 109.827 19.8267 109.827 20.48C109.827 21.124 109.911 21.6933 110.079 22.188C110.247 22.6733 110.481 23.0513 110.779 23.322C111.078 23.5833 111.419 23.714 111.801 23.714C112.184 23.714 112.525 23.5833 112.823 23.322C113.131 23.0513 113.365 22.6733 113.523 22.188C113.691 21.6933 113.775 21.124 113.775 20.48C113.775 19.836 113.691 19.2713 113.523 18.786C113.365 18.2913 113.131 17.9133 112.823 17.652C112.525 17.3907 112.184 17.26 111.801 17.26ZM124.374 19.402V21.712H123.184V19.402H124.374ZM128.882 19.402V21.712H127.678V19.402H128.882ZM131.598 21.306V22.258H120.468V21.306H131.598ZM126.026 23.154C127.351 23.154 128.387 23.3453 129.134 23.728C129.88 24.1107 130.254 24.652 130.254 25.352C130.254 26.052 129.88 26.5933 129.134 26.976C128.387 27.3587 127.351 27.55 126.026 27.55C124.7 27.55 123.664 27.3587 122.918 26.976C122.171 26.5933 121.798 26.0473 121.798 25.338C121.798 24.6473 122.171 24.1107 122.918 23.728C123.664 23.3453 124.7 23.154 126.026 23.154ZM126.026 24.092C125.391 24.092 124.85 24.1433 124.402 24.246C123.954 24.3393 123.608 24.4793 123.366 24.666C123.132 24.8527 123.016 25.0767 123.016 25.338C123.016 25.7487 123.277 26.066 123.8 26.29C124.322 26.5047 125.064 26.612 126.026 26.612C126.978 26.612 127.715 26.5047 128.238 26.29C128.76 26.066 129.022 25.7487 129.022 25.338C129.022 25.0767 128.905 24.8527 128.672 24.666C128.438 24.4793 128.093 24.3393 127.636 24.246C127.188 24.1433 126.651 24.092 126.026 24.092ZM126.026 15.468C126.912 15.468 127.682 15.5613 128.336 15.748C128.998 15.9253 129.502 16.1867 129.848 16.532C130.202 16.8773 130.38 17.288 130.38 17.764C130.38 18.24 130.202 18.6507 129.848 18.996C129.502 19.332 128.998 19.5933 128.336 19.78C127.682 19.9573 126.912 20.046 126.026 20.046C125.139 20.046 124.369 19.9573 123.716 19.78C123.062 19.5933 122.558 19.332 122.204 18.996C121.849 18.6507 121.672 18.24 121.672 17.764C121.672 17.288 121.849 16.8773 122.204 16.532C122.558 16.1867 123.062 15.9253 123.716 15.748C124.369 15.5613 125.139 15.468 126.026 15.468ZM126.026 16.392C125.391 16.392 124.84 16.448 124.374 16.56C123.907 16.672 123.548 16.8307 123.296 17.036C123.044 17.2413 122.918 17.484 122.918 17.764C122.918 18.1933 123.193 18.5293 123.744 18.772C124.304 19.0053 125.064 19.122 126.026 19.122C126.987 19.122 127.743 19.0053 128.294 18.772C128.854 18.5293 129.134 18.1933 129.134 17.764C129.134 17.484 129.008 17.2413 128.756 17.036C128.504 16.8307 128.144 16.672 127.678 16.56C127.211 16.448 126.66 16.392 126.026 16.392ZM142.21 15.244V27.564H140.992V15.244H142.21ZM144.198 20.27V21.278H141.93V20.27H144.198ZM139.9 17.19V18.17H132.634V17.19H139.9ZM136.316 19.15C136.895 19.15 137.413 19.2713 137.87 19.514C138.327 19.7567 138.687 20.0927 138.948 20.522C139.209 20.9513 139.34 21.4413 139.34 21.992C139.34 22.5427 139.209 23.0373 138.948 23.476C138.687 23.9053 138.327 24.2413 137.87 24.484C137.413 24.7173 136.899 24.834 136.33 24.834C135.751 24.834 135.233 24.7173 134.776 24.484C134.319 24.2413 133.959 23.9053 133.698 23.476C133.437 23.0373 133.306 22.5427 133.306 21.992C133.306 21.4507 133.432 20.9653 133.684 20.536C133.945 20.0973 134.305 19.7567 134.762 19.514C135.229 19.2713 135.747 19.15 136.316 19.15ZM136.316 20.144C135.961 20.144 135.644 20.228 135.364 20.396C135.084 20.5547 134.865 20.774 134.706 21.054C134.547 21.3247 134.468 21.6373 134.468 21.992C134.468 22.356 134.547 22.678 134.706 22.958C134.865 23.2287 135.084 23.4433 135.364 23.602C135.644 23.7513 135.961 23.826 136.316 23.826C136.671 23.826 136.988 23.7513 137.268 23.602C137.548 23.4433 137.767 23.224 137.926 22.944C138.085 22.664 138.164 22.3467 138.164 21.992C138.164 21.6373 138.085 21.32 137.926 21.04C137.767 20.76 137.548 20.5407 137.268 20.382C136.988 20.2233 136.671 20.144 136.316 20.144ZM136.918 15.398V17.624H135.686V15.398H136.918ZM155.076 15.216V27.578H153.872V15.216H155.076ZM154.152 19.92V20.914H151.59V19.92H154.152ZM146.34 23.616C147.507 23.616 148.501 23.5927 149.322 23.546C150.144 23.49 150.984 23.3873 151.842 23.238L151.954 24.232C151.086 24.3907 150.228 24.498 149.378 24.554C148.529 24.6007 147.516 24.624 146.34 24.624H145.374V23.616H146.34ZM150.862 16.378V20.718H146.578V23.938H145.374V19.752H149.672V17.358H145.36V16.378H150.862ZM169.909 15.216V27.55H168.677V15.216H169.909ZM171.827 20.186V21.208H169.587V20.186H171.827ZM166.717 16.546C166.717 18.4033 166.264 20.0787 165.359 21.572C164.463 23.056 163.054 24.2787 161.131 25.24L160.445 24.316C161.574 23.7467 162.512 23.084 163.259 22.328C164.015 21.5627 164.58 20.718 164.953 19.794C165.326 18.8607 165.513 17.8433 165.513 16.742V16.546H166.717ZM166.143 16.546V17.54H161.047V16.546H166.143ZM182.761 15.23V27.55H181.543V15.23H182.761ZM179.121 16.546C179.121 17.7873 178.93 18.9447 178.547 20.018C178.165 21.082 177.549 22.062 176.699 22.958C175.85 23.854 174.753 24.6287 173.409 25.282L172.765 24.316C173.941 23.756 174.912 23.098 175.677 22.342C176.443 21.586 177.007 20.746 177.371 19.822C177.735 18.8887 177.917 17.8667 177.917 16.756V16.546H179.121ZM178.449 16.546V17.54H173.339V16.546H178.449Z" fill="white"/>
</g>
<defs>
<filter id="filter0_d_2515_35319" x="0" y="0" width="269" height="46" filterUnits="userSpaceOnUse" color-interpolation-filters="sRGB">
<feFlood flood-opacity="0" result="BackgroundImageFix"/>
<feColorMatrix in="SourceAlpha" type="matrix" values="0 0 0 0 0 0 0 0 0 0 0 0 0 0 0 0 0 0 127 0" result="hardAlpha"/>
<feOffset dx="2" dy="2"/>
<feGaussianBlur stdDeviation="2"/>
<feComposite in2="hardAlpha" operator="out"/>
<feColorMatrix type="matrix" values="0 0 0 0 0 0 0 0 0 0 0 0 0 0 0 0 0 0 0.1 0"/>
<feBlend mode="normal" in2="BackgroundImageFix" result="effect1_dropShadow_2515_35319"/>
<feBlend mode="normal" in="SourceGraphic" in2="effect1_dropShadow_2515_35319" result="shape"/>
</filter>
</defs>
</svg>
