<svg width="211" height="46" viewBox="0 0 211 46" fill="none" xmlns="http://www.w3.org/2000/svg">
<g filter="url(#filter0_d_2452_42430)">
<rect x="2" y="2" width="203" height="38" rx="19" fill="#25569D" shape-rendering="crispEdges"/>
<path d="M40.206 19.5677H49.8405C49.9468 20.1493 50 20.7049 50 21.2344C50 23.1181 49.5969 24.7999 48.7907 26.2799C47.9845 27.76 46.835 28.9167 45.3422 29.75C43.8494 30.5833 42.1373 31 40.206 31C38.8151 31 37.4906 30.7374 36.2326 30.2122C34.9745 29.6871 33.8893 28.9774 32.9767 28.0833C32.0642 27.1892 31.34 26.1259 30.804 24.8932C30.268 23.6606 30 22.3628 30 21C30 19.6372 30.268 18.3394 30.804 17.1068C31.34 15.8741 32.0642 14.8108 32.9767 13.9167C33.8893 13.0226 34.9745 12.3129 36.2326 11.7878C37.4906 11.2626 38.8151 11 40.206 11C42.8638 11 45.1451 11.8724 47.0498 13.6172L44.2724 16.2344C43.1827 15.2014 41.8272 14.6849 40.206 14.6849C39.0631 14.6849 38.0066 14.967 37.0365 15.5312C36.0664 16.0955 35.2979 16.8615 34.7309 17.8294C34.1639 18.7973 33.8804 19.8542 33.8804 21C33.8804 22.1458 34.1639 23.2027 34.7309 24.1706C35.2979 25.1385 36.0664 25.9045 37.0365 26.4688C38.0066 27.033 39.0631 27.3151 40.206 27.3151C40.9767 27.3151 41.6855 27.2109 42.3322 27.0026C42.979 26.7943 43.5105 26.5339 43.9269 26.2214C44.3433 25.9089 44.7065 25.553 45.0166 25.1536C45.3267 24.7543 45.5548 24.3767 45.701 24.0208C45.8472 23.6649 45.9468 23.3264 46 23.0052H40.206V19.5677Z" fill="white"/>
<path d="M70.108 15.244V24.484H68.89V15.244H70.108ZM71.914 19.248V20.256H69.744V19.248H71.914ZM67.84 16.7V17.68H60.56V16.7H67.84ZM64.2 18.324C64.7787 18.324 65.292 18.422 65.74 18.618C66.188 18.8047 66.5333 19.0753 66.776 19.43C67.028 19.7753 67.154 20.1767 67.154 20.634C67.154 21.0913 67.028 21.4973 66.776 21.852C66.5333 22.1973 66.188 22.468 65.74 22.664C65.292 22.8507 64.7787 22.944 64.2 22.944C63.612 22.944 63.094 22.8507 62.646 22.664C62.2073 22.468 61.862 22.1973 61.61 21.852C61.3673 21.4973 61.246 21.0913 61.246 20.634C61.246 20.1767 61.3673 19.7753 61.61 19.43C61.862 19.0753 62.2073 18.8047 62.646 18.618C63.094 18.422 63.612 18.324 64.2 18.324ZM64.2 19.276C63.6587 19.276 63.22 19.402 62.884 19.654C62.5573 19.8967 62.394 20.228 62.394 20.648C62.394 21.0493 62.5573 21.376 62.884 21.628C63.22 21.8707 63.6587 21.992 64.2 21.992C64.7413 21.992 65.1753 21.8707 65.502 21.628C65.8287 21.376 65.992 21.0493 65.992 20.648C65.992 20.228 65.8287 19.8967 65.502 19.654C65.1753 19.402 64.7413 19.276 64.2 19.276ZM64.802 15.244V17.204H63.598V15.244H64.802ZM70.654 26.304V27.284H62.408V26.304H70.654ZM63.612 23.742V26.724H62.408V23.742H63.612ZM83.9123 21.278V22.258H72.7823V21.278H83.9123ZM78.9283 19.318V21.684H77.7383V19.318H78.9283ZM82.6103 18.94V19.92H74.1823V18.94H82.6103ZM82.5263 15.804V16.784H75.3723V19.528H74.1823V15.804H82.5263ZM78.3263 23.112C79.6423 23.112 80.6737 23.308 81.4203 23.7C82.1763 24.0827 82.5543 24.624 82.5543 25.324C82.5543 26.0333 82.181 26.5793 81.4343 26.962C80.6877 27.354 79.6517 27.55 78.3263 27.55C77.001 27.55 75.965 27.354 75.2183 26.962C74.4717 26.5793 74.0983 26.0333 74.0983 25.324C74.0983 24.624 74.4717 24.0827 75.2183 23.7C75.965 23.308 77.001 23.112 78.3263 23.112ZM78.3263 24.05C77.3743 24.05 76.6323 24.162 76.1003 24.386C75.5777 24.61 75.3163 24.9227 75.3163 25.324C75.3163 25.744 75.5777 26.066 76.1003 26.29C76.6323 26.5047 77.3743 26.612 78.3263 26.612C79.2783 26.612 80.0157 26.5047 80.5383 26.29C81.061 26.066 81.3223 25.744 81.3223 25.324C81.3223 24.9227 81.061 24.61 80.5383 24.386C80.0157 24.162 79.2783 24.05 78.3263 24.05ZM95.4627 15.23V27.55H94.3007V15.23H95.4627ZM94.6227 20.144V21.152H92.2847V20.144H94.6227ZM92.6627 15.51V26.92H91.5287V15.51H92.6627ZM86.2507 23.546C87.2027 23.546 88.0053 23.5227 88.6587 23.476C89.3213 23.4293 89.9887 23.336 90.6607 23.196L90.7867 24.19C90.096 24.3393 89.41 24.4373 88.7287 24.484C88.0567 24.5307 87.2307 24.554 86.2507 24.554H85.4387V23.546H86.2507ZM90.0027 16.728V17.722H86.6427V23.994H85.4387V16.728H90.0027ZM105.606 16.63V24.274H100.902V16.63H105.606ZM102.036 17.596V23.322H104.486V17.596H102.036ZM110.94 15.23V27.55H109.778V15.23H110.94ZM107.832 19.85V20.844H105.004V19.85H107.832ZM108.49 15.496V26.934H107.342V15.496H108.49ZM116.148 15.678C116.755 15.678 117.301 15.7947 117.786 16.028C118.281 16.2613 118.668 16.588 118.948 17.008C119.228 17.4187 119.368 17.89 119.368 18.422C119.368 18.9447 119.228 19.416 118.948 19.836C118.677 20.2467 118.295 20.5687 117.8 20.802C117.305 21.026 116.759 21.138 116.162 21.138C115.555 21.138 115.005 21.026 114.51 20.802C114.025 20.5687 113.642 20.2467 113.362 19.836C113.091 19.4253 112.956 18.954 112.956 18.422C112.956 17.89 113.091 17.4187 113.362 17.008C113.642 16.588 114.025 16.2613 114.51 16.028C114.995 15.7947 115.541 15.678 116.148 15.678ZM116.148 16.658C115.775 16.658 115.434 16.7327 115.126 16.882C114.818 17.0313 114.575 17.2413 114.398 17.512C114.221 17.7733 114.132 18.0767 114.132 18.422C114.132 18.758 114.221 19.0613 114.398 19.332C114.575 19.5933 114.818 19.7987 115.126 19.948C115.434 20.088 115.775 20.158 116.148 20.158C116.54 20.158 116.89 20.088 117.198 19.948C117.506 19.7987 117.744 19.5933 117.912 19.332C118.089 19.0613 118.178 18.758 118.178 18.422C118.178 18.0767 118.089 17.7733 117.912 17.512C117.744 17.2413 117.506 17.0313 117.198 16.882C116.89 16.7327 116.54 16.658 116.148 16.658ZM122.812 15.244V21.53H121.594V15.244H122.812ZM122.812 22.118V25.156H116.022V26.962H114.86V24.26H121.608V23.07H114.818V22.118H122.812ZM123.218 26.43V27.396H114.86V26.43H123.218ZM136.098 25.058V26.052H124.94V25.058H136.098ZM131.1 22.454V25.464H129.896V22.454H131.1ZM134.74 16.126V19.906H127.516V22.314H126.326V18.94H133.536V17.106H126.298V16.126H134.74ZM135.02 21.824V22.804H126.326V21.824H135.02ZM151.561 25.058V26.052H140.403V25.058H151.561ZM146.563 22.454V25.464H145.359V22.454H146.563ZM150.203 16.126V19.906H142.979V22.314H141.789V18.94H148.999V17.106H141.761V16.126H150.203ZM150.483 21.824V22.804H141.789V21.824H150.483ZM161.753 16.504V17.498H153.843V16.504H161.753ZM163.783 24.778V25.786H152.639V24.778H163.783ZM162.299 16.504V17.778C162.299 18.8607 162.271 19.836 162.215 20.704C162.169 21.572 162.043 22.5893 161.837 23.756L160.619 23.644C160.834 22.5427 160.965 21.5627 161.011 20.704C161.067 19.836 161.095 18.8607 161.095 17.778V16.504H162.299ZM174.984 15.244V24.218H173.766V15.244H174.984ZM175.348 26.304V27.284H167.046V26.304H175.348ZM168.25 23.308V26.64H167.046V23.308H168.25ZM168.362 16.084C168.968 16.084 169.519 16.2147 170.014 16.476C170.508 16.7373 170.896 17.1013 171.176 17.568C171.456 18.0347 171.596 18.5573 171.596 19.136C171.596 19.724 171.456 20.2467 171.176 20.704C170.896 21.1613 170.508 21.5207 170.014 21.782C169.519 22.0433 168.968 22.174 168.362 22.174C167.755 22.174 167.204 22.0433 166.71 21.782C166.224 21.5207 165.837 21.1613 165.548 20.704C165.268 20.2373 165.128 19.7147 165.128 19.136C165.128 18.5573 165.268 18.0347 165.548 17.568C165.837 17.1013 166.224 16.7373 166.71 16.476C167.204 16.2147 167.755 16.084 168.362 16.084ZM168.362 17.134C167.979 17.134 167.629 17.218 167.312 17.386C167.004 17.554 166.761 17.792 166.584 18.1C166.406 18.408 166.318 18.7533 166.318 19.136C166.318 19.5187 166.406 19.8593 166.584 20.158C166.761 20.4567 167.004 20.69 167.312 20.858C167.629 21.026 167.979 21.11 168.362 21.11C168.754 21.11 169.104 21.026 169.412 20.858C169.72 20.69 169.962 20.4567 170.14 20.158C170.326 19.8593 170.42 19.5187 170.42 19.136C170.42 18.7533 170.326 18.408 170.14 18.1C169.962 17.792 169.715 17.554 169.398 17.386C169.09 17.218 168.744 17.134 168.362 17.134Z" fill="white"/>
</g>
<defs>
<filter id="filter0_d_2452_42430" x="0" y="0" width="211" height="46" filterUnits="userSpaceOnUse" color-interpolation-filters="sRGB">
<feFlood flood-opacity="0" result="BackgroundImageFix"/>
<feColorMatrix in="SourceAlpha" type="matrix" values="0 0 0 0 0 0 0 0 0 0 0 0 0 0 0 0 0 0 127 0" result="hardAlpha"/>
<feOffset dx="2" dy="2"/>
<feGaussianBlur stdDeviation="2"/>
<feComposite in2="hardAlpha" operator="out"/>
<feColorMatrix type="matrix" values="0 0 0 0 0 0 0 0 0 0 0 0 0 0 0 0 0 0 0.1 0"/>
<feBlend mode="normal" in2="BackgroundImageFix" result="effect1_dropShadow_2452_42430"/>
<feBlend mode="normal" in="SourceGraphic" in2="effect1_dropShadow_2452_42430" result="shape"/>
</filter>
</defs>
</svg>
