<svg width="51" height="22" viewBox="0 0 51 22" fill="none" xmlns="http://www.w3.org/2000/svg">
<rect width="51" height="22" rx="11" fill="white"/>
<path d="M22.768 14.208C23.192 14.208 23.564 14.06 23.884 13.764C24.212 13.46 24.464 13.04 24.64 12.504C24.824 11.968 24.916 11.356 24.916 10.668C24.916 9.98 24.824 9.368 24.64 8.832C24.464 8.296 24.212 7.88 23.884 7.584C23.556 7.28 23.184 7.128 22.768 7.128C22.352 7.128 21.98 7.28 21.652 7.584C21.332 7.88 21.08 8.296 20.896 8.832C20.712 9.368 20.62 9.98 20.62 10.668C20.62 11.356 20.712 11.968 20.896 12.504C21.08 13.04 21.332 13.46 21.652 13.764C21.98 14.06 22.352 14.208 22.768 14.208ZM22.768 15.096C22.16 15.096 21.616 14.908 21.136 14.532C20.664 14.156 20.292 13.632 20.02 12.96C19.756 12.288 19.624 11.524 19.624 10.668C19.624 9.812 19.756 9.052 20.02 8.388C20.292 7.716 20.664 7.192 21.136 6.816C21.616 6.44 22.16 6.252 22.768 6.252C23.376 6.252 23.92 6.44 24.4 6.816C24.88 7.192 25.252 7.716 25.516 8.388C25.78 9.052 25.912 9.812 25.912 10.668C25.912 11.524 25.78 12.288 25.516 12.96C25.252 13.632 24.88 14.156 24.4 14.532C23.928 14.908 23.384 15.096 22.768 15.096ZM30.0029 15.012H29.0069V7.44L27.5909 8.352L27.0989 7.56L29.0069 6.336H30.0029V15.012Z" fill="#6C3F2E"/>
</svg>
