<svg width="51" height="22" viewBox="0 0 51 22" fill="none" xmlns="http://www.w3.org/2000/svg">
<rect width="51" height="22" rx="11" fill="white"/>
<path d="M21.768 14.208C22.192 14.208 22.564 14.06 22.884 13.764C23.212 13.46 23.464 13.04 23.64 12.504C23.824 11.968 23.916 11.356 23.916 10.668C23.916 9.98 23.824 9.368 23.64 8.832C23.464 8.296 23.212 7.88 22.884 7.584C22.556 7.28 22.184 7.128 21.768 7.128C21.352 7.128 20.98 7.28 20.652 7.584C20.332 7.88 20.08 8.296 19.896 8.832C19.712 9.368 19.62 9.98 19.62 10.668C19.62 11.356 19.712 11.968 19.896 12.504C20.08 13.04 20.332 13.46 20.652 13.764C20.98 14.06 21.352 14.208 21.768 14.208ZM21.768 15.096C21.16 15.096 20.616 14.908 20.136 14.532C19.664 14.156 19.292 13.632 19.02 12.96C18.756 12.288 18.624 11.524 18.624 10.668C18.624 9.812 18.756 9.052 19.02 8.388C19.292 7.716 19.664 7.192 20.136 6.816C20.616 6.44 21.16 6.252 21.768 6.252C22.376 6.252 22.92 6.44 23.4 6.816C23.88 7.192 24.252 7.716 24.516 8.388C24.78 9.052 24.912 9.812 24.912 10.668C24.912 11.524 24.78 12.288 24.516 12.96C24.252 13.632 23.88 14.156 23.4 14.532C22.928 14.908 22.384 15.096 21.768 15.096ZM26.2789 14.136C26.4869 13.936 26.6589 13.772 26.7949 13.644C26.9309 13.516 27.1029 13.356 27.3109 13.164C28.0069 12.524 28.5669 11.988 28.9909 11.556C29.4229 11.124 29.7869 10.68 30.0829 10.224C30.3869 9.768 30.5389 9.344 30.5389 8.952C30.5389 8.6 30.4669 8.288 30.3229 8.016C30.1789 7.736 29.9829 7.52 29.7349 7.368C29.4869 7.208 29.2029 7.128 28.8829 7.128C28.5229 7.128 28.1749 7.248 27.8389 7.488C27.5109 7.728 27.2629 8.04 27.0949 8.424L26.1949 8.028C26.4269 7.5 26.7909 7.068 27.2869 6.732C27.7909 6.396 28.3229 6.228 28.8829 6.228C29.3949 6.228 29.8509 6.344 30.2509 6.576C30.6589 6.808 30.9749 7.132 31.1989 7.548C31.4229 7.956 31.5349 8.424 31.5349 8.952C31.5349 9.48 31.3669 10.016 31.0309 10.56C30.6949 11.104 30.2909 11.616 29.8189 12.096C29.3549 12.576 28.7549 13.144 28.0189 13.8C27.6509 14.128 27.3029 14.452 26.9749 14.772L26.2789 14.136ZM26.2789 14.136H31.6789V15.024H26.3989L26.2789 14.136Z" fill="#6C3F2E"/>
</svg>
