<svg width="51" height="22" viewBox="0 0 51 22" fill="none" xmlns="http://www.w3.org/2000/svg">
<rect width="51" height="22" rx="11" fill="white"/>
<path d="M21.768 14.208C22.192 14.208 22.564 14.06 22.884 13.764C23.212 13.46 23.464 13.04 23.64 12.504C23.824 11.968 23.916 11.356 23.916 10.668C23.916 9.98 23.824 9.368 23.64 8.832C23.464 8.296 23.212 7.88 22.884 7.584C22.556 7.28 22.184 7.128 21.768 7.128C21.352 7.128 20.98 7.28 20.652 7.584C20.332 7.88 20.08 8.296 19.896 8.832C19.712 9.368 19.62 9.98 19.62 10.668C19.62 11.356 19.712 11.968 19.896 12.504C20.08 13.04 20.332 13.46 20.652 13.764C20.98 14.06 21.352 14.208 21.768 14.208ZM21.768 15.096C21.16 15.096 20.616 14.908 20.136 14.532C19.664 14.156 19.292 13.632 19.02 12.96C18.756 12.288 18.624 11.524 18.624 10.668C18.624 9.812 18.756 9.052 19.02 8.388C19.292 7.716 19.664 7.192 20.136 6.816C20.616 6.44 21.16 6.252 21.768 6.252C22.376 6.252 22.92 6.44 23.4 6.816C23.88 7.192 24.252 7.716 24.516 8.388C24.78 9.052 24.912 9.812 24.912 10.668C24.912 11.524 24.78 12.288 24.516 12.96C24.252 13.632 23.88 14.156 23.4 14.532C22.928 14.908 22.384 15.096 21.768 15.096ZM30.6589 10.524C31.0349 10.748 31.3309 11.048 31.5469 11.424C31.7629 11.8 31.8709 12.176 31.8709 12.552C31.8709 13.04 31.7509 13.476 31.5109 13.86C31.2709 14.244 30.9349 14.544 30.5029 14.76C30.0709 14.976 29.5789 15.084 29.0269 15.084C28.4749 15.084 27.9829 14.976 27.5509 14.76C27.1189 14.536 26.7829 14.232 26.5429 13.848C26.3029 13.464 26.1829 13.024 26.1829 12.528H27.1789C27.1789 12.848 27.2589 13.136 27.4189 13.392C27.5789 13.64 27.7949 13.836 28.0669 13.98C28.3469 14.124 28.6669 14.196 29.0269 14.196C29.3869 14.196 29.7069 14.128 29.9869 13.992C30.2749 13.848 30.4949 13.652 30.6469 13.404C30.8069 13.148 30.8869 12.86 30.8869 12.54C30.8869 12.236 30.8069 11.964 30.6469 11.724C30.4949 11.484 30.2789 11.296 29.9989 11.16C29.7189 11.024 29.4029 10.956 29.0509 10.956H28.4149V10.068H29.0509C29.3789 10.068 29.6709 10.008 29.9269 9.888C30.1909 9.768 30.3949 9.6 30.5389 9.384C30.6909 9.16 30.7669 8.908 30.7669 8.628C30.7669 8.188 30.6109 7.832 30.2989 7.56C29.9869 7.28 29.5869 7.14 29.0989 7.14C28.7789 7.14 28.4909 7.204 28.2349 7.332C27.9789 7.46 27.7789 7.64 27.6349 7.872C27.4989 8.096 27.4309 8.356 27.4309 8.652H26.4349C26.4349 8.188 26.5469 7.776 26.7709 7.416C27.0029 7.048 27.3189 6.764 27.7189 6.564C28.1189 6.356 28.5789 6.252 29.0989 6.252C29.6109 6.252 30.0669 6.352 30.4669 6.552C30.8749 6.752 31.1909 7.032 31.4149 7.392C31.6389 7.752 31.7509 8.16 31.7509 8.616C31.7509 8.96 31.6509 9.308 31.4509 9.66C31.2589 10.012 30.9949 10.3 30.6589 10.524Z" fill="#6C3F2E"/>
</svg>
