<svg width="1340" height="188" viewBox="0 0 1340 188" fill="none" xmlns="http://www.w3.org/2000/svg">
<g clip-path="url(#clip0_1966_77043)">
<path d="M1340 0H0V188H1340V0Z" fill="url(#paint0_linear_1966_77043)"/>
<path d="M146.89 148.57C138.65 134 150.2 122.19 164.46 130.61C178.72 122.19 190.28 134 182.03 148.57C190.27 163.14 178.72 174.95 164.46 166.53C150.2 174.95 138.64 163.14 146.89 148.57Z" fill="#25569D"/>
<path d="M164.46 154.92C167.89 154.92 170.67 152.077 170.67 148.57C170.67 145.063 167.89 142.22 164.46 142.22C161.03 142.22 158.25 145.063 158.25 148.57C158.25 152.077 161.03 154.92 164.46 154.92Z" fill="#F8ECE8"/>
<path d="M199.36 4.38L188.07 52.57C180.29 85.77 151.89 109.49 118.76 110.91C117.71 110.96 116.66 110.98 115.6 110.98C114.71 110.98 113.83 110.96 112.95 110.93C96.71 110.35 81.59 104.41 69.44 94.62C56.64 84.3 47.14 69.7 43.12 52.57L31.83 4.38C31.48 2.89 31.44 1.41 31.68 0H199.51C199.75 1.41 199.71 2.89 199.36 4.38Z" fill="#A9C5E8"/>
<path d="M133.32 73.37C135.822 73.37 137.85 70.5359 137.85 67.04C137.85 63.544 135.822 60.71 133.32 60.71C130.818 60.71 128.79 63.544 128.79 67.04C128.79 70.5359 130.818 73.37 133.32 73.37Z" fill="#25569D"/>
<path d="M97.87 73.3104C100.372 73.3104 102.4 70.4764 102.4 66.9804C102.4 63.4844 100.372 60.6504 97.87 60.6504C95.3681 60.6504 93.34 63.4844 93.34 66.9804C93.34 70.4764 95.3681 73.3104 97.87 73.3104Z" fill="#25569D"/>
<path d="M115.6 57.4799C117.671 57.4799 119.35 56.2263 119.35 54.6799C119.35 53.1335 117.671 51.8799 115.6 51.8799C113.529 51.8799 111.85 53.1335 111.85 54.6799C111.85 56.2263 113.529 57.4799 115.6 57.4799Z" fill="#F8ECE8"/>
<path d="M143.27 25.5195C144.15 25.5195 145.01 25.9295 145.58 26.6995C146.54 27.9995 146.28 29.8495 145.01 30.8295C144.78 30.9995 139.45 35.1695 139.94 41.5995C140.31 46.4995 143.78 49.5795 144.83 50.4095C146.1 51.3995 146.33 53.2495 145.36 54.5395C144.39 55.8295 142.58 56.0795 141.31 55.0795C139.78 53.8795 134.74 49.3795 134.18 42.0495C133.46 32.5995 140.71 26.7495 141.54 26.1095C142.06 25.7095 142.67 25.5195 143.27 25.5195Z" fill="#25569D"/>
<path d="M87.93 25.5195C88.53 25.5195 89.14 25.7095 89.66 26.1095C90.49 26.7495 97.74 32.5995 97.02 42.0495C96.46 49.3795 91.42 53.8795 89.89 55.0795C88.63 56.0695 86.82 55.8295 85.84 54.5395C84.87 53.2495 85.1 51.3995 86.37 50.4095C87.42 49.5795 90.89 46.4995 91.26 41.5995C91.75 35.1795 86.42 31.0095 86.19 30.8295C84.92 29.8495 84.66 27.9995 85.62 26.6995C86.19 25.9295 87.05 25.5195 87.93 25.5195Z" fill="#25569D"/>
<path d="M115.84 34.4602C116.48 34.4602 117.13 34.4702 117.8 34.5002C128.75 35.0002 135.59 39.3702 138.02 41.2202C139.3 42.2002 139.56 44.0402 138.61 45.3502C137.65 46.6602 135.84 46.9202 134.57 45.9502C133 44.7602 127.15 40.8302 117.54 40.3902C104.95 39.8202 96.97 45.8802 96.64 46.1402C95.37 47.1402 93.57 46.8802 92.6 45.5802C91.63 44.2902 91.88 42.4402 93.14 41.4502C94.09 40.7002 102.51 34.4502 115.84 34.4502V34.4602Z" fill="#25569D"/>
<path d="M116.2 105.7C116.38 105.7 116.56 105.72 116.75 105.75C118.32 106.06 119.34 107.6 119.04 109.2C118.25 113.42 117.61 121.7 122.25 129.74C127.57 138.94 137.92 144.48 149.42 144.13C150.87 144.2 152.34 145.37 152.38 147C152.42 148.63 151.17 149.98 149.57 150.03C135.94 150.35 123.66 143.79 117.27 132.74C111.66 123.03 112.42 113.13 113.36 108.09C113.63 106.68 114.84 105.7 116.19 105.7H116.2Z" fill="#25569D"/>
<path d="M231.613 30.5916V38.6019H230.557V30.5916H231.613ZM233.178 34.0628V34.9366H231.297V34.0628H233.178ZM229.647 31.8539V32.7034H223.335V31.8539H229.647ZM226.491 33.2617C226.993 33.2617 227.438 33.3467 227.826 33.5166C228.214 33.6784 228.514 33.9131 228.724 34.2205C228.943 34.5199 229.052 34.8678 229.052 35.2643C229.052 35.6608 228.943 36.0127 228.724 36.3202C228.514 36.6196 228.214 36.8542 227.826 37.0241C227.438 37.186 226.993 37.2669 226.491 37.2669C225.981 37.2669 225.532 37.186 225.144 37.0241C224.764 36.8542 224.464 36.6196 224.246 36.3202C224.035 36.0127 223.93 35.6608 223.93 35.2643C223.93 34.8678 224.035 34.5199 224.246 34.2205C224.464 33.9131 224.764 33.6784 225.144 33.5166C225.532 33.3467 225.981 33.2617 226.491 33.2617ZM226.491 34.087C226.022 34.087 225.641 34.1963 225.35 34.4147C225.067 34.6251 224.925 34.9123 224.925 35.2764C224.925 35.6244 225.067 35.9075 225.35 36.126C225.641 36.3364 226.022 36.4416 226.491 36.4416C226.96 36.4416 227.337 36.3364 227.62 36.126C227.903 35.9075 228.045 35.6244 228.045 35.2764C228.045 34.9123 227.903 34.6251 227.62 34.4147C227.337 34.1963 226.96 34.087 226.491 34.087ZM227.013 30.5916V32.2908H225.969V30.5916H227.013ZM232.086 40.1797V41.0293H224.938V40.1797H232.086ZM225.981 37.9587V40.5438H224.938V37.9587H225.981ZM243.58 35.8226V36.6722H233.931V35.8226H243.58ZM239.259 34.1234V36.1746H238.228V34.1234H239.259ZM242.451 33.7957V34.6453H235.145V33.7957H242.451ZM242.378 31.0771V31.9267H236.176V34.3055H235.145V31.0771H242.378ZM238.737 37.4125C239.878 37.4125 240.772 37.5824 241.42 37.9223C242.075 38.254 242.403 38.7233 242.403 39.3301C242.403 39.945 242.079 40.4184 241.432 40.7501C240.784 41.09 239.886 41.2599 238.737 41.2599C237.588 41.2599 236.69 41.09 236.043 40.7501C235.396 40.4184 235.072 39.945 235.072 39.3301C235.072 38.7233 235.396 38.254 236.043 37.9223C236.69 37.5824 237.588 37.4125 238.737 37.4125ZM238.737 38.2257C237.912 38.2257 237.269 38.3228 236.808 38.517C236.354 38.7111 236.128 38.9822 236.128 39.3301C236.128 39.6942 236.354 39.9734 236.808 40.1676C237.269 40.3537 237.912 40.4467 238.737 40.4467C239.563 40.4467 240.202 40.3537 240.655 40.1676C241.108 39.9734 241.335 39.6942 241.335 39.3301C241.335 38.9822 241.108 38.7111 240.655 38.517C240.202 38.3228 239.563 38.2257 238.737 38.2257ZM249.891 31.5262V36.5144H244.964V31.5262H249.891ZM245.995 32.3757V35.6527H248.872V32.3757H245.995ZM252.841 30.5795V38.3956H251.785V30.5795H252.841ZM254.394 33.8079V34.6817H252.513V33.8079H254.394ZM253.302 40.1797V41.0293H246.165V40.1797H253.302ZM247.209 37.6552V40.5559H246.165V37.6552H247.209ZM258.582 31.3441C259.132 31.3441 259.621 31.4533 260.05 31.6718C260.487 31.8822 260.827 32.1816 261.07 32.5699C261.32 32.9502 261.446 33.3871 261.446 33.8807C261.446 34.3743 261.32 34.8152 261.07 35.2036C260.827 35.5839 260.487 35.8833 260.05 36.1017C259.621 36.3121 259.132 36.4173 258.582 36.4173C258.031 36.4173 257.538 36.3121 257.101 36.1017C256.664 35.8833 256.32 35.5839 256.069 35.2036C255.826 34.8152 255.705 34.3743 255.705 33.8807C255.705 33.3871 255.826 32.9502 256.069 32.5699C256.32 32.1816 256.664 31.8822 257.101 31.6718C257.538 31.4533 258.031 31.3441 258.582 31.3441ZM258.582 32.2544C258.226 32.2544 257.906 32.3232 257.623 32.4607C257.348 32.5902 257.129 32.7803 256.967 33.0311C256.805 33.2739 256.725 33.5571 256.725 33.8807C256.725 34.1963 256.805 34.4795 256.967 34.7303C257.129 34.973 257.348 35.1632 257.623 35.3007C257.906 35.4383 258.226 35.507 258.582 35.507C258.929 35.507 259.245 35.4383 259.528 35.3007C259.811 35.1632 260.03 34.973 260.184 34.7303C260.345 34.4795 260.426 34.1963 260.426 33.8807C260.426 33.5571 260.345 33.2739 260.184 33.0311C260.03 32.7803 259.811 32.5902 259.528 32.4607C259.253 32.3232 258.938 32.2544 258.582 32.2544ZM263.849 30.5674V41.2841H262.805V30.5674H263.849ZM255.183 38.08C256.583 38.08 257.833 38.0598 258.933 38.0193C260.042 37.9789 261.102 37.8778 262.113 37.7159L262.198 38.4927C261.146 38.695 260.07 38.8244 258.97 38.8811C257.869 38.9377 256.652 38.966 255.317 38.966L255.183 38.08ZM276.963 30.5674V41.2841H275.907V30.5674H276.963ZM278.455 34.7424V35.6284H276.501V34.7424H278.455ZM269.329 37.6188C269.733 37.6188 270.117 37.6067 270.482 37.5824C270.854 37.5501 271.242 37.4934 271.647 37.4125L271.756 38.2742C271.319 38.3632 270.914 38.4239 270.542 38.4563C270.17 38.4805 269.765 38.4927 269.329 38.4927H268.855V37.6188H269.329ZM271.55 31.6961V32.5457H269.887V38.0436H268.855V31.6961H271.55ZM272.666 37.6188C273.273 37.6188 273.763 37.6027 274.135 37.5703C274.515 37.5379 274.895 37.4772 275.276 37.3882L275.385 38.2499C274.972 38.347 274.572 38.4118 274.183 38.4441C273.803 38.4765 273.297 38.4927 272.666 38.4927H272.144V37.6188H272.666ZM274.984 31.6961V32.5457H273.176V38.0679H272.144V31.6961H274.984ZM288.796 35.6891V36.5508H279.147V35.6891H288.796ZM287.959 33.905V34.7546H284.281V33.905H287.959ZM287.874 31.1014V31.951H285.325V34.1963H284.281V31.1014H287.874ZM283.687 31.1014V31.951H281.126V34.1963H280.058V31.1014H283.687ZM280.665 33.905C281.263 33.905 281.809 33.8888 282.303 33.8564C282.797 33.816 283.302 33.7351 283.82 33.6137L283.929 34.4633C283.387 34.5765 282.865 34.6534 282.364 34.6939C281.862 34.7343 281.296 34.7546 280.665 34.7546H280.058V33.905H280.665ZM284.354 37.3761V37.6795C284.354 38.2944 284.172 38.8487 283.808 39.3423C283.452 39.8358 282.967 40.2404 282.352 40.5559C281.745 40.8796 281.053 41.1061 280.276 41.2356L279.888 40.3982C280.559 40.3092 281.162 40.1352 281.696 39.8763C282.238 39.6174 282.663 39.2978 282.971 38.9175C283.286 38.5372 283.444 38.1245 283.444 37.6795V37.3761H284.354ZM284.512 37.3761V37.6795C284.512 38.1245 284.666 38.5372 284.973 38.9175C285.289 39.2978 285.718 39.6174 286.26 39.8763C286.81 40.1352 287.417 40.3092 288.08 40.3982L287.68 41.2356C286.911 41.1061 286.219 40.8796 285.604 40.5559C284.989 40.2404 284.504 39.8358 284.148 39.3423C283.792 38.8487 283.614 38.2944 283.614 37.6795V37.3761H284.512ZM298.057 30.5916V37.012H297.001V30.5916H298.057ZM299.623 33.3952V34.2569H297.766V33.3952H299.623ZM298.057 37.5946V41.1264H291.321V37.5946H298.057ZM292.353 38.4441V40.2768H297.025V38.4441H292.353ZM296.091 31.6961V32.5335H289.78V31.6961H296.091ZM292.935 33.0311C293.437 33.0311 293.882 33.112 294.27 33.2739C294.659 33.4357 294.958 33.6622 295.168 33.9535C295.387 34.2367 295.496 34.5685 295.496 34.9487C295.496 35.329 295.387 35.6648 295.168 35.9561C294.958 36.2393 294.659 36.4618 294.27 36.6236C293.882 36.7773 293.437 36.8542 292.935 36.8542C292.425 36.8542 291.976 36.7773 291.588 36.6236C291.208 36.4618 290.908 36.2393 290.69 35.9561C290.479 35.6648 290.374 35.329 290.374 34.9487C290.374 34.5604 290.479 34.2246 290.69 33.9414C290.908 33.6582 291.208 33.4357 291.588 33.2739C291.976 33.112 292.425 33.0311 292.935 33.0311ZM292.935 33.8322C292.466 33.8322 292.086 33.9333 291.794 34.1356C291.511 34.3298 291.37 34.5968 291.37 34.9366C291.37 35.2845 291.511 35.5596 291.794 35.7619C292.086 35.9561 292.466 36.0532 292.935 36.0532C293.396 36.0532 293.769 35.9561 294.052 35.7619C294.343 35.5596 294.489 35.2845 294.489 34.9366C294.489 34.5968 294.347 34.3298 294.064 34.1356C293.781 33.9333 293.404 33.8322 292.935 33.8322ZM293.457 30.4945V32.1209H292.413V30.4945H293.457ZM305.181 30.7737C306.371 30.7737 307.297 30.9315 307.961 31.247C308.624 31.5626 308.956 32.0157 308.956 32.6063C308.956 33.2051 308.624 33.6663 307.961 33.9899C307.297 34.3055 306.371 34.4633 305.181 34.4633C303.992 34.4633 303.066 34.3055 302.402 33.9899C301.739 33.6663 301.407 33.2051 301.407 32.6063C301.407 32.0157 301.739 31.5626 302.402 31.247C303.066 30.9315 303.992 30.7737 305.181 30.7737ZM305.181 31.5504C304.332 31.5504 303.672 31.6435 303.203 31.8296C302.734 32.0157 302.499 32.2786 302.499 32.6185C302.499 32.9502 302.73 33.2091 303.191 33.3952C303.66 33.5813 304.324 33.6744 305.181 33.6744C306.047 33.6744 306.711 33.5813 307.172 33.3952C307.641 33.2091 307.876 32.9502 307.876 32.6185C307.876 32.2786 307.641 32.0157 307.172 31.8296C306.703 31.6435 306.039 31.5504 305.181 31.5504ZM310.012 35.1429V35.9925H300.363V35.1429H310.012ZM308.774 36.8542V39.3058H302.572V40.5559H301.553V38.5534H307.754V37.6674H301.516V36.8542H308.774ZM309.102 40.3375V41.1506H301.553V40.3375H309.102ZM321.681 32.5214V33.371H318.866V32.5214H321.681ZM321.621 34.7424V35.592H318.781V34.7424H321.621ZM322.567 30.5795V36.9513H321.511V30.5795H322.567ZM319.266 31.3684C319.266 32.2827 319.068 33.108 318.671 33.8443C318.283 34.5725 317.717 35.1996 316.972 35.7255C316.236 36.2514 315.35 36.6681 314.314 36.9756L313.889 36.1381C314.796 35.8792 315.564 35.5434 316.195 35.1308C316.835 34.7101 317.32 34.2246 317.652 33.6744C317.984 33.1161 318.15 32.5092 318.15 31.8539V31.3684H319.266ZM318.878 31.3684V32.2301H314.448V31.3684H318.878ZM319.084 37.0727C319.804 37.0727 320.427 37.1576 320.953 37.3276C321.487 37.4894 321.896 37.7281 322.179 38.0436C322.47 38.3511 322.616 38.7192 322.616 39.1481C322.616 39.5688 322.47 39.937 322.179 40.2525C321.896 40.56 321.487 40.7946 320.953 40.9564C320.419 41.1264 319.796 41.2113 319.084 41.2113C318.364 41.2113 317.737 41.1264 317.203 40.9564C316.669 40.7946 316.256 40.56 315.965 40.2525C315.682 39.945 315.54 39.5769 315.54 39.1481C315.54 38.7192 315.682 38.3511 315.965 38.0436C316.256 37.7281 316.669 37.4894 317.203 37.3276C317.737 37.1576 318.364 37.0727 319.084 37.0727ZM319.084 37.898C318.574 37.898 318.129 37.9506 317.749 38.0558C317.377 38.1529 317.09 38.2944 316.887 38.4805C316.685 38.6586 316.584 38.8811 316.584 39.1481C316.584 39.407 316.685 39.6295 316.887 39.8156C317.09 40.0017 317.377 40.1433 317.749 40.2404C318.129 40.3375 318.574 40.386 319.084 40.386C319.594 40.386 320.035 40.3375 320.407 40.2404C320.787 40.1433 321.079 40.0017 321.281 39.8156C321.483 39.6295 321.584 39.407 321.584 39.1481C321.584 38.7516 321.362 38.4441 320.917 38.2257C320.472 38.0072 319.861 37.898 319.084 37.898ZM333.163 30.5916V37.0484H332.107V30.5916H333.163ZM332.568 33.82V34.6817H330.396V33.82H332.568ZM333.163 37.5946V41.1264H326.209V37.5946H333.163ZM327.24 38.4441V40.2768H332.144V38.4441H327.24ZM330.566 31.6718V32.5214H324.376V31.6718H330.566ZM327.471 33.0311C327.948 33.0311 328.373 33.1161 328.745 33.286C329.125 33.4478 329.421 33.6744 329.631 33.9657C329.842 34.2489 329.947 34.5765 329.947 34.9487C329.947 35.3209 329.842 35.6527 329.631 35.944C329.421 36.2271 329.125 36.4497 328.745 36.6115C328.373 36.7733 327.948 36.8542 327.471 36.8542C327.002 36.8542 326.577 36.7733 326.196 36.6115C325.816 36.4497 325.517 36.2271 325.298 35.944C325.088 35.6527 324.983 35.3209 324.983 34.9487C324.983 34.5765 325.088 34.2489 325.298 33.9657C325.517 33.6744 325.816 33.4478 326.196 33.286C326.577 33.1161 327.002 33.0311 327.471 33.0311ZM327.471 33.8322C327.188 33.8322 326.933 33.8807 326.706 33.9778C326.48 34.0668 326.306 34.1963 326.184 34.3662C326.063 34.528 326.002 34.7181 326.002 34.9366C326.002 35.2683 326.14 35.5394 326.415 35.7498C326.69 35.952 327.042 36.0532 327.471 36.0532C327.908 36.0532 328.26 35.952 328.527 35.7498C328.802 35.5394 328.939 35.2724 328.939 34.9487C328.939 34.7222 328.879 34.528 328.757 34.3662C328.636 34.1963 328.462 34.0668 328.235 33.9778C328.009 33.8807 327.754 33.8322 327.471 33.8322ZM327.993 30.4824V32.2665H326.949V30.4824H327.993ZM343.285 30.5552V36.4294H342.229V30.5552H343.285ZM344.851 33.0797V33.9535H342.848V33.0797H344.851ZM343.285 36.9634V39.3908H337.533V40.6409H336.501V38.6383H342.254V37.7523H336.477V36.9634H343.285ZM343.662 40.3496V41.1506H336.501V40.3496H343.662ZM341.319 31.514V32.3393H335.008V31.514H341.319ZM338.164 32.7763C338.94 32.7763 339.559 32.934 340.021 33.2496C340.49 33.5651 340.724 33.994 340.724 34.5361C340.724 35.0701 340.49 35.4949 340.021 35.8105C339.559 36.126 338.936 36.2838 338.151 36.2838C337.375 36.2838 336.756 36.126 336.295 35.8105C335.833 35.4949 335.603 35.0701 335.603 34.5361C335.603 34.0021 335.833 33.5773 336.295 33.2617C336.756 32.9381 337.379 32.7763 338.164 32.7763ZM338.164 33.553C337.686 33.553 337.306 33.642 337.023 33.82C336.74 33.998 336.598 34.2367 336.598 34.5361C336.598 34.8355 336.74 35.0742 337.023 35.2522C337.306 35.4302 337.686 35.5192 338.164 35.5192C338.633 35.5192 339.009 35.4302 339.292 35.2522C339.576 35.0742 339.717 34.8355 339.717 34.5361C339.717 34.2367 339.576 33.998 339.292 33.82C339.009 33.642 338.633 33.553 338.164 33.553ZM338.686 30.4703V32.0845H337.642V30.4703H338.686ZM353.595 30.9557V31.5504C353.595 32.2058 353.397 32.8086 353.001 33.3588C352.612 33.909 352.09 34.3662 351.435 34.7303C350.78 35.0944 350.064 35.3371 349.287 35.4585L348.862 34.621C349.534 34.524 350.161 34.3257 350.743 34.0263C351.326 33.727 351.791 33.3588 352.139 32.9219C352.495 32.485 352.673 32.0278 352.673 31.5504V30.9557H353.595ZM353.778 30.9557V31.5504C353.778 32.0197 353.951 32.4728 354.299 32.9098C354.655 33.3467 355.125 33.7189 355.707 34.0263C356.298 34.3257 356.925 34.524 357.588 34.621L357.164 35.4585C356.395 35.3371 355.683 35.0944 355.028 34.7303C354.372 34.3581 353.846 33.8969 353.45 33.3467C353.053 32.7884 352.855 32.1896 352.855 31.5504V30.9557H353.778ZM353.717 37.2305V41.272H352.673V37.2305H353.717ZM358.05 36.5751V37.4368H348.389V36.5751H358.05ZM365.241 37.1576V37.6917C365.241 38.169 365.148 38.6343 364.961 39.0874C364.775 39.5405 364.5 39.945 364.136 40.3011C363.772 40.6571 363.335 40.9281 362.825 41.1142L362.303 40.3375C362.74 40.1837 363.121 39.9653 363.444 39.6821C363.768 39.3989 364.011 39.0833 364.173 38.7354C364.342 38.3794 364.427 38.0315 364.427 37.6917V37.1576H365.241ZM365.435 37.1576V37.6917C365.435 38.258 365.597 38.7921 365.92 39.2937C366.252 39.7954 366.725 40.1716 367.34 40.4224L366.915 41.2235C366.171 40.9322 365.609 40.4629 365.228 39.8156C364.848 39.1683 364.658 38.4603 364.658 37.6917V37.1576H365.435ZM369.137 37.1576V37.6917C369.137 38.1367 369.056 38.5938 368.894 39.0631C368.732 39.5243 368.481 39.9491 368.141 40.3375C367.81 40.7178 367.401 41.0131 366.915 41.2235L366.466 40.4224C366.871 40.2363 367.215 39.9896 367.498 39.6821C367.789 39.3746 368.008 39.0469 368.153 38.699C368.299 38.343 368.372 38.0072 368.372 37.6917V37.1576H369.137ZM369.391 37.1576V37.6917C369.391 38.0638 369.472 38.4239 369.634 38.7718C369.804 39.1197 370.047 39.4313 370.362 39.7064C370.686 39.9734 371.07 40.1837 371.515 40.3375L371.006 41.1142C370.237 40.8391 369.638 40.3941 369.209 39.7792C368.789 39.1562 368.578 38.4603 368.578 37.6917V37.1576H369.391ZM370.569 30.5916V36.6843H369.513V30.5916H370.569ZM364.828 31.1985C365.362 31.1985 365.839 31.3077 366.26 31.5262C366.689 31.7365 367.025 32.0319 367.267 32.4122C367.51 32.7843 367.632 33.2172 367.632 33.7108C367.632 34.1882 367.51 34.617 367.267 34.9973C367.025 35.3776 366.689 35.6729 366.26 35.8833C365.839 36.0856 365.362 36.1867 364.828 36.1867C364.294 36.1867 363.812 36.0856 363.384 35.8833C362.963 35.6729 362.631 35.3776 362.388 34.9973C362.146 34.617 362.024 34.1882 362.024 33.7108C362.024 33.2172 362.146 32.7843 362.388 32.4122C362.631 32.0319 362.963 31.7365 363.384 31.5262C363.812 31.3077 364.294 31.1985 364.828 31.1985ZM364.828 32.0845C364.488 32.0845 364.185 32.1532 363.918 32.2908C363.651 32.4283 363.44 32.6185 363.287 32.8612C363.133 33.104 363.056 33.3871 363.056 33.7108C363.056 34.0263 363.133 34.3095 363.287 34.5604C363.44 34.8031 363.651 34.9932 363.918 35.1308C364.185 35.2603 364.488 35.325 364.828 35.325C365.176 35.325 365.483 35.2603 365.75 35.1308C366.017 34.9932 366.224 34.8031 366.369 34.5604C366.523 34.3095 366.6 34.0263 366.6 33.7108C366.6 33.3871 366.523 33.104 366.369 32.8612C366.224 32.6185 366.017 32.4283 365.75 32.2908C365.483 32.1532 365.176 32.0845 364.828 32.0845ZM380.97 33.7472V34.5968H373.688V33.7472H380.97ZM382.075 35.9925V36.8421H372.402V35.9925H382.075ZM374.732 30.9679V34.1841H373.688V30.9679H374.732ZM381.031 40.1554V41.0171H373.627V40.1554H381.031ZM374.659 37.8737V40.386H373.627V37.8737H374.659ZM393.805 31.1014V31.951H386.947V31.1014H393.805ZM395.443 35.5799V36.4173H385.819V35.5799H395.443ZM390.771 33.4559V35.7012H389.727V33.4559H390.771ZM394.229 31.1014V31.866C394.229 32.4243 394.213 32.9259 394.181 33.371C394.157 33.816 394.084 34.3136 393.962 34.8638L392.931 34.7424C393.052 34.2084 393.125 33.731 393.149 33.3103C393.182 32.8895 393.198 32.4081 393.198 31.866V31.1014H394.229ZM390.965 37.2305V37.6917C390.965 38.3066 390.783 38.8608 390.419 39.3544C390.063 39.8399 389.573 40.2404 388.95 40.5559C388.335 40.8796 387.647 41.1061 386.887 41.2356L386.486 40.4103C387.158 40.3132 387.765 40.1352 388.307 39.8763C388.849 39.6174 389.278 39.3018 389.593 38.9296C389.909 38.5493 390.067 38.1367 390.067 37.6917V37.2305H390.965ZM391.122 37.2305V37.6917C391.122 38.1367 391.276 38.5493 391.584 38.9296C391.899 39.3018 392.328 39.6174 392.87 39.8763C393.42 40.1352 394.027 40.3132 394.691 40.4103L394.314 41.2356C393.538 41.1061 392.838 40.8796 392.215 40.5559C391.6 40.2404 391.11 39.8399 390.746 39.3544C390.39 38.8608 390.212 38.3066 390.212 37.6917V37.2305H391.122ZM402.465 30.75H403.225L402.821 33.2265H401.73L402.465 30.75ZM400.553 30.75H401.288L400.896 33.2265H399.792L400.553 30.75ZM412.882 30.4926V38.5842H411.815V30.4926H412.882ZM414.464 33.9989V34.8816H412.563V33.9989H414.464ZM410.896 31.7676V32.6258H404.521V31.7676H410.896ZM407.708 33.1898C408.215 33.1898 408.665 33.2756 409.057 33.4472C409.449 33.6107 409.752 33.8477 409.964 34.1583C410.185 34.4607 410.295 34.8122 410.295 35.2127C410.295 35.6132 410.185 35.9687 409.964 36.2793C409.752 36.5817 409.449 36.8187 409.057 36.9904C408.665 37.1538 408.215 37.2356 407.708 37.2356C407.193 37.2356 406.74 37.1538 406.347 36.9904C405.963 36.8187 405.661 36.5817 405.44 36.2793C405.228 35.9687 405.121 35.6132 405.121 35.2127C405.121 34.8122 405.228 34.4607 405.44 34.1583C405.661 33.8477 405.963 33.6107 406.347 33.4472C406.74 33.2756 407.193 33.1898 407.708 33.1898ZM407.708 34.0234C407.234 34.0234 406.85 34.1338 406.556 34.3545C406.27 34.567 406.127 34.8571 406.127 35.2249C406.127 35.5764 406.27 35.8624 406.556 36.0831C406.85 36.2956 407.234 36.4019 407.708 36.4019C408.182 36.4019 408.562 36.2956 408.848 36.0831C409.135 35.8624 409.278 35.5764 409.278 35.2249C409.278 34.8571 409.135 34.567 408.848 34.3545C408.562 34.1338 408.182 34.0234 407.708 34.0234ZM408.235 30.4926V32.209H407.181V30.4926H408.235ZM413.36 40.178V41.0362H406.139V40.178H413.36ZM407.193 37.9344V40.5458H406.139V37.9344H407.193ZM424.088 30.4926V36.6961H423.021V30.4926H424.088ZM424.088 37.2356V41.1342H417.063V37.2356H424.088ZM418.105 38.0815V40.276H423.058V38.0815H418.105ZM423.242 32.5768V33.4472H420.729V32.5768H423.242ZM418.73 30.9462V32.0741C418.73 32.7361 418.608 33.3614 418.363 33.9499C418.125 34.5302 417.782 35.0329 417.333 35.4579C416.883 35.8829 416.352 36.2098 415.739 36.4387L415.187 35.5927C415.735 35.4047 416.209 35.135 416.609 34.7836C417.018 34.4239 417.329 34.0112 417.541 33.5453C417.762 33.0794 417.872 32.589 417.872 32.0741V30.9462H418.73ZM418.914 30.9462V32.1231C418.914 32.589 419.02 33.0386 419.233 33.4717C419.454 33.9049 419.76 34.285 420.152 34.6119C420.545 34.9389 421.003 35.1881 421.526 35.3598L420.962 36.1935C420.373 35.981 419.858 35.6745 419.417 35.274C418.984 34.8735 418.649 34.4035 418.412 33.8641C418.175 33.3165 418.056 32.7361 418.056 32.1231V30.9462H418.914ZM427.018 33.2388H426.271L426.675 30.7623H427.766L427.018 33.2388ZM428.955 33.2388H428.208L428.6 30.7623H429.703L428.955 33.2388Z" fill="#25569D"/>
<path d="M576.857 76.2502V81.8014H573.09V76.2502H576.857ZM587.988 63.1369V82.4528H584.221V63.1369H587.988ZM588.583 85.2001V88.2023H569.55V85.2001H588.583ZM573.317 80.6119V85.9931H569.55V80.6119H573.317ZM566.406 74.3809C569.654 74.3621 572.571 74.3054 575.158 74.211C577.764 74.1166 580.247 73.9183 582.607 73.6162L582.833 76.2785C580.416 76.6939 577.905 76.9772 575.3 77.1282C572.713 77.2604 569.899 77.3359 566.859 77.3548L566.406 74.3809ZM585.071 77.9212V80.4703H579.463V77.9212H585.071ZM574.591 63.9866C575.819 63.9866 576.914 64.1849 577.877 64.5814C578.84 64.959 579.586 65.4971 580.114 66.1957C580.662 66.8755 580.936 67.6685 580.936 68.5748C580.936 69.4623 580.662 70.2553 580.114 70.9539C579.586 71.6337 578.84 72.1623 577.877 72.54C576.914 72.9176 575.819 73.1064 574.591 73.1064C573.345 73.1064 572.241 72.9176 571.278 72.54C570.315 72.1623 569.56 71.6337 569.012 70.9539C568.483 70.2553 568.219 69.4623 568.219 68.5748C568.219 67.6685 568.483 66.8755 569.012 66.1957C569.56 65.4971 570.315 64.959 571.278 64.5814C572.26 64.1849 573.364 63.9866 574.591 63.9866ZM574.591 66.7339C573.742 66.7339 573.062 66.8944 572.552 67.2154C572.061 67.5175 571.816 67.9612 571.816 68.5465C571.816 69.1318 572.061 69.585 572.552 69.906C573.062 70.2081 573.742 70.3592 574.591 70.3592C575.441 70.3592 576.111 70.2081 576.602 69.906C577.112 69.585 577.367 69.1318 577.367 68.5465C577.367 67.9612 577.112 67.5175 576.602 67.2154C576.111 66.8944 575.441 66.7339 574.591 66.7339ZM611.298 63.1652V88.6555H607.531V63.1652H611.298ZM614.923 73.0498V76.1653H610.448V73.0498H614.923ZM606.002 66.8755V69.8777H591.132V66.8755H606.002ZM598.581 71.2655C599.827 71.2655 600.941 71.5298 601.923 72.0585C602.924 72.5683 603.698 73.2858 604.246 74.211C604.812 75.1362 605.095 76.1841 605.095 77.3548C605.095 78.5443 604.812 79.6017 604.246 80.5269C603.698 81.4332 602.924 82.1507 601.923 82.6794C600.941 83.1892 599.837 83.4441 598.61 83.4441C597.382 83.4441 596.268 83.1892 595.268 82.6794C594.286 82.1507 593.512 81.4238 592.945 80.4986C592.398 79.5734 592.124 78.5255 592.124 77.3548C592.124 76.203 592.398 75.1645 592.945 74.2393C593.512 73.2952 594.286 72.5683 595.268 72.0585C596.249 71.5298 597.354 71.2655 598.581 71.2655ZM598.61 74.3243C598.043 74.3243 597.543 74.447 597.109 74.6925C596.674 74.9379 596.334 75.2873 596.089 75.7404C595.862 76.1936 595.749 76.7411 595.749 77.3831C595.749 78.0062 595.862 78.5443 596.089 78.9975C596.334 79.4507 596.674 79.8 597.109 80.0454C597.543 80.272 598.043 80.3853 598.61 80.3853C599.157 80.3853 599.648 80.272 600.082 80.0454C600.517 79.8 600.857 79.4507 601.102 78.9975C601.347 78.5443 601.47 78.0062 601.47 77.3831C601.47 76.7411 601.347 76.1936 601.102 75.7404C600.857 75.2873 600.517 74.9379 600.082 74.6925C599.648 74.447 599.157 74.3243 598.61 74.3243ZM600.507 63.5901V68.0367H596.684V63.5901H600.507ZM636.562 69.9626V72.9365H618.861V69.9626H636.562ZM639.111 75.5422V78.516H616.029V75.5422H639.111ZM622.599 64.0432V71.4354H618.861V64.0432H622.599ZM636.704 85.0868V88.1173H618.606V85.0868H636.704ZM622.373 80.4986V85.9082H618.606V80.4986H622.373ZM667.391 63.1652V82.1979H663.596V63.1652H667.391ZM670.733 70.869V73.9844H666.343V70.869H670.733ZM662.293 65.7709V68.7164H647.311V65.7709H662.293ZM654.816 69.5944C656.024 69.5944 657.101 69.8021 658.045 70.2175C659.008 70.6329 659.754 71.2183 660.282 71.9735C660.83 72.7099 661.104 73.5596 661.104 74.5226C661.104 75.4855 660.83 76.3446 660.282 77.0999C659.754 77.8552 659.008 78.4405 658.045 78.8559C657.101 79.2524 656.024 79.4507 654.816 79.4507C653.608 79.4507 652.522 79.2524 651.559 78.8559C650.615 78.4405 649.869 77.8552 649.321 77.0999C648.793 76.3446 648.528 75.4855 648.528 74.5226C648.528 73.5596 648.793 72.7099 649.321 71.9735C649.869 71.2183 650.615 70.6329 651.559 70.2175C652.522 69.8021 653.608 69.5944 654.816 69.5944ZM654.816 72.455C654.004 72.455 653.353 72.6344 652.862 72.9931C652.39 73.3519 652.154 73.8617 652.154 74.5226C652.154 75.1834 652.39 75.6932 652.862 76.052C653.353 76.4107 654.004 76.5901 654.816 76.5901C655.609 76.5901 656.242 76.4107 656.714 76.052C657.204 75.6932 657.45 75.1834 657.45 74.5226C657.45 73.8617 657.204 73.3519 656.714 72.9931C656.242 72.6344 655.609 72.455 654.816 72.455ZM656.685 63.1086V67.187H652.918V63.1086H656.685ZM668.297 85.2001V88.2023H650.907V85.2001H668.297ZM654.674 80.7535V86.503H650.907V80.7535H654.674ZM693.392 63.1652V77.6947H689.597V63.1652H693.392ZM693.392 78.7709V88.3722H676.342V78.7709H693.392ZM680.052 81.7165V85.3984H689.71V81.7165H680.052ZM690.163 67.5269V70.5574H685.037V67.5269H690.163ZM680.873 64.3265V66.7056C680.873 68.386 680.618 69.9438 680.109 71.3788C679.599 72.7949 678.815 74.0411 677.758 75.1173C676.7 76.1747 675.379 76.9583 673.793 77.4681L671.838 74.4942C673.198 74.06 674.321 73.4463 675.209 72.6533C676.115 71.8414 676.776 70.935 677.191 69.9343C677.607 68.9147 677.814 67.8385 677.814 66.7056V64.3265H680.873ZM681.638 64.3265V66.9321C681.638 67.9706 681.827 68.9619 682.204 69.906C682.601 70.8501 683.224 71.6903 684.074 72.4267C684.923 73.1442 686 73.7012 687.302 74.0977L685.348 77.0149C683.838 76.524 682.573 75.7876 681.553 74.8058C680.552 73.805 679.806 72.6344 679.316 71.2938C678.825 69.9532 678.579 68.4993 678.579 66.9321V64.3265H681.638ZM708.318 63.5051C711.245 63.5051 713.52 63.8827 715.144 64.638C716.787 65.3933 717.608 66.4695 717.608 67.8668C717.608 69.2451 716.787 70.3119 715.144 71.0672C713.52 71.8225 711.245 72.2001 708.318 72.2001C705.411 72.2001 703.145 71.8225 701.521 71.0672C699.897 70.3119 699.085 69.2451 699.085 67.8668C699.085 66.4695 699.897 65.3933 701.521 64.638C703.145 63.8827 705.411 63.5051 708.318 63.5051ZM708.318 66.2524C706.506 66.2524 705.165 66.3846 704.297 66.6489C703.428 66.9133 702.994 67.3192 702.994 67.8668C702.994 68.4143 703.419 68.8203 704.268 69.0846C705.137 69.3301 706.487 69.4528 708.318 69.4528C710.169 69.4528 711.519 69.3301 712.369 69.0846C713.237 68.8203 713.671 68.4143 713.671 67.8668C713.671 67.3192 713.237 66.9133 712.369 66.6489C711.5 66.3846 710.15 66.2524 708.318 66.2524ZM719.846 73.333V76.3069H696.819V73.333H719.846ZM717.07 77.6663V84.2938H703.164V86.4746H699.482V81.6881H713.36V80.4703H699.425V77.6663H717.07ZM717.75 85.6533V88.4855H699.482V85.6533H717.75ZM736.825 67.3853V68.2916C736.825 69.7644 736.56 71.1427 736.032 72.4267C735.503 73.6918 734.701 74.7869 733.624 75.7121C732.548 76.6373 731.207 77.317 729.603 77.7513L727.875 74.8058C729.215 74.4659 730.32 73.9655 731.189 73.3047C732.076 72.6249 732.727 71.8602 733.143 71.0106C733.558 70.142 733.766 69.2357 733.766 68.2916V67.3853H736.825ZM737.533 67.3853V68.2916C737.533 69.1602 737.731 70.0004 738.128 70.8123C738.543 71.6053 739.185 72.3228 740.053 72.9648C740.941 73.5879 742.046 74.0694 743.367 74.4093L741.696 77.2982C740.091 76.9016 738.751 76.2597 737.674 75.3722C736.598 74.4848 735.796 73.4369 735.267 72.2284C734.738 71.0011 734.474 69.6889 734.474 68.2916V67.3853H737.533ZM742.518 65.5443V68.4899H728.809V65.5443H742.518ZM737.533 63.052V66.9321H733.766V63.052H737.533ZM748.154 63.1652V77.638H744.387V63.1652H748.154ZM751.524 68.8014V71.8602H747.134V68.8014H751.524ZM741.13 79.9321V80.5836C741.13 81.9053 740.771 83.1231 740.053 84.2372C739.336 85.3512 738.26 86.2858 736.825 87.0411C735.409 87.7963 733.681 88.3061 731.642 88.5705L730.282 85.7099C732 85.5022 733.435 85.134 734.587 84.6053C735.739 84.0767 736.579 83.463 737.108 82.7644C737.656 82.0658 737.929 81.3388 737.929 80.5836V79.9321H741.13ZM741.951 79.9321V80.5836C741.951 81.3011 742.225 82.0186 742.772 82.7361C743.339 83.4347 744.198 84.0578 745.35 84.6053C746.502 85.1529 747.918 85.5305 749.598 85.7382L748.267 88.5988C746.228 88.3534 744.5 87.8435 743.084 87.0694C741.668 86.2953 740.592 85.3512 739.855 84.2372C739.138 83.1043 738.779 81.8864 738.779 80.5836V79.9321H741.951ZM748.494 78.686V81.6598H731.387V78.686H748.494ZM759.682 64.8646C760.966 64.8646 762.117 65.2422 763.137 65.9975C764.157 66.7339 764.95 67.8007 765.516 69.1979C766.101 70.5763 766.394 72.1718 766.394 73.9844C766.394 75.8348 766.101 77.4586 765.516 78.8559C764.95 80.2342 764.157 81.3011 763.137 82.0563C762.117 82.7927 760.966 83.1609 759.682 83.1609C758.398 83.1609 757.246 82.7927 756.226 82.0563C755.207 81.3011 754.404 80.2342 753.819 78.8559C753.252 77.4586 752.969 75.8348 752.969 73.9844C752.969 72.1529 753.252 70.548 753.819 69.1696C754.404 67.7912 755.207 66.7339 756.226 65.9975C757.246 65.2422 758.398 64.8646 759.682 64.8646ZM759.682 68.3199C759.059 68.3199 758.511 68.5371 758.039 68.9713C757.586 69.4056 757.227 70.0476 756.963 70.8973C756.717 71.747 756.594 72.776 756.594 73.9844C756.594 75.2117 756.717 76.2597 756.963 77.1282C757.227 77.9779 757.586 78.6293 758.039 79.0825C758.511 79.5167 759.059 79.7339 759.682 79.7339C760.305 79.7339 760.852 79.5167 761.324 79.0825C761.796 78.6293 762.155 77.9779 762.401 77.1282C762.665 76.2597 762.797 75.2117 762.797 73.9844C762.797 72.776 762.665 71.747 762.401 70.8973C762.155 70.0476 761.796 69.4056 761.324 68.9713C760.852 68.5371 760.305 68.3199 759.682 68.3199ZM772.88 63.1652V88.6555H769.085V63.1652H772.88ZM776.505 72.7099V75.8254H772.03V72.7099H776.505Z" fill="#25569D"/>
<path d="M568.285 114.754V131.351H558.202V114.754H568.285ZM561.686 117.7V128.406H564.773V117.7H561.686ZM579.387 112.177V137.667H575.819V112.177H579.387ZM572.108 121.41V124.441H566.387V121.41H572.108ZM574.119 112.573V136.534H570.607V112.573H574.119ZM591.453 114.131V117.756C591.453 120.041 591.189 122.165 590.66 124.129C590.15 126.093 589.348 127.82 588.253 129.312C587.158 130.804 585.779 131.927 584.118 132.682L581.88 129.567C583.315 128.944 584.514 128.028 585.477 126.82C586.459 125.611 587.186 124.233 587.658 122.685C588.13 121.117 588.366 119.475 588.366 117.756V114.131H591.453ZM592.19 114.131V117.756C592.19 119.399 592.416 120.966 592.869 122.458C593.323 123.931 594.021 125.243 594.965 126.395C595.909 127.547 597.08 128.425 598.477 129.029L596.296 132.088C594.691 131.351 593.351 130.275 592.275 128.859C591.198 127.424 590.405 125.762 589.896 123.874C589.386 121.986 589.131 119.947 589.131 117.756V114.131H592.19ZM603.377 112.149V137.724H599.61V112.149H603.377ZM616.038 116.227V119.003C616.038 121.023 615.773 122.958 615.245 124.809C614.716 126.659 613.914 128.292 612.837 129.709C611.761 131.125 610.439 132.191 608.872 132.909L606.748 129.935C608.126 129.312 609.288 128.425 610.232 127.273C611.176 126.102 611.874 124.809 612.328 123.393C612.8 121.958 613.036 120.494 613.036 119.003V116.227H616.038ZM616.859 116.227V119.003C616.859 120.419 617.086 121.807 617.539 123.166C618.011 124.507 618.719 125.725 619.663 126.82C620.607 127.896 621.768 128.717 623.147 129.284L621.079 132.258C619.493 131.578 618.162 130.568 617.086 129.227C616.009 127.886 615.207 126.338 614.678 124.582C614.15 122.826 613.885 120.966 613.885 119.003V116.227H616.859ZM622.099 114.613V117.728H607.768V114.613H622.099ZM628.131 112.205V137.695H624.365V112.205H628.131ZM654.84 123.591V126.31H631.757V123.591H654.84ZM652.093 127.528V133.617H638.102V135.741H634.363V131.266H648.383V130.077H634.335V127.528H652.093ZM652.801 134.948V137.497H634.363V134.948H652.801ZM652.036 112.602V118.691H638.328V120.702H634.618V116.312H648.326V115.151H634.59V112.602H652.036ZM652.518 119.909V122.486H634.618V119.909H652.518ZM686.122 131.663V134.722H663.039V131.663H686.122ZM676.436 126.282V132.399H672.669V126.282H676.436ZM669.185 113.763V117.643H679.891V113.763H683.63V127.046H665.447V113.763H669.185ZM669.185 124.072H679.891V120.589H669.185V124.072ZM709.602 112.177V137.667H706.034V112.177H709.602ZM706.968 121.977V124.979H702.776V121.977H706.968ZM703.853 112.63V136.449H700.341V112.63H703.853ZM692.524 114.981V129.709H688.757V114.981H692.524ZM690.541 128.292C693.619 128.292 696.432 128.047 698.981 127.556L699.321 130.785C697.811 131.049 696.338 131.238 694.903 131.351C693.468 131.465 692.014 131.521 690.541 131.521H688.757V128.292H690.541ZM735.631 131.663V134.722H712.548V131.663H735.631ZM725.945 126.282V132.399H722.178V126.282H725.945ZM718.694 113.763V117.643H729.4V113.763H733.139V127.046H714.956V113.763H718.694ZM718.694 124.072H729.4V120.589H718.694V124.072ZM751.464 120.702V123.761H747.329V120.702H751.464ZM744.695 114.386V118.606C744.695 120.645 744.497 122.571 744.1 124.384C743.723 126.197 743.109 127.82 742.259 129.255C741.428 130.69 740.362 131.814 739.059 132.626L736.765 129.794C737.973 129.057 738.946 128.104 739.682 126.933C740.437 125.743 740.975 124.45 741.296 123.053C741.636 121.637 741.806 120.154 741.806 118.606V114.386H744.695ZM745.46 114.386V118.436C745.46 119.947 745.601 121.363 745.885 122.685C746.168 124.006 746.64 125.234 747.301 126.367C747.962 127.481 748.849 128.406 749.963 129.142L747.895 132.059C746.611 131.266 745.573 130.171 744.78 128.774C744.006 127.358 743.449 125.781 743.109 124.044C742.788 122.307 742.627 120.438 742.627 118.436V114.386H745.46ZM759.196 112.177V137.667H755.599V112.177H759.196ZM753.928 112.573V136.534H750.416V112.573H753.928ZM770.866 125.092V132.201H767.07V125.092H770.866ZM780.099 125.092V132.201H776.304V125.092H780.099ZM785.14 131.663V134.722H762.057V131.663H785.14ZM773.585 113.367C775.416 113.367 777.049 113.65 778.484 114.216C779.938 114.783 781.071 115.585 781.883 116.624C782.714 117.662 783.129 118.871 783.129 120.249C783.129 121.608 782.714 122.807 781.883 123.846C781.071 124.884 779.938 125.687 778.484 126.253C777.049 126.82 775.416 127.103 773.585 127.103C771.753 127.103 770.11 126.82 768.656 126.253C767.221 125.687 766.089 124.884 765.258 123.846C764.446 122.807 764.04 121.608 764.04 120.249C764.04 118.871 764.446 117.662 765.258 116.624C766.089 115.585 767.221 114.783 768.656 114.216C770.11 113.65 771.753 113.367 773.585 113.367ZM773.585 116.312C772.414 116.312 771.385 116.473 770.497 116.794C769.629 117.096 768.949 117.549 768.458 118.153C767.986 118.738 767.75 119.437 767.75 120.249C767.75 121.061 767.986 121.769 768.458 122.373C768.949 122.958 769.629 123.412 770.497 123.733C771.385 124.035 772.414 124.186 773.585 124.186C774.736 124.186 775.756 124.035 776.643 123.733C777.531 123.412 778.211 122.958 778.683 122.373C779.155 121.769 779.391 121.061 779.391 120.249C779.391 119.437 779.145 118.738 778.654 118.153C778.182 117.549 777.502 117.096 776.615 116.794C775.747 116.473 774.736 116.312 773.585 116.312Z" fill="#25569D"/>
<path d="M1199.31 188H1035.37L1044.16 150.5C1052.01 116.97 1080.69 93.0295 1114.14 91.5895C1115.2 91.5395 1116.27 91.5195 1117.34 91.5195C1118.24 91.5195 1119.13 91.5395 1120.02 91.5695C1136.41 92.1595 1151.69 98.1595 1163.95 108.04C1176.88 118.46 1186.47 133.2 1190.52 150.5L1199.31 188Z" fill="#F8ECE8"/>
<path d="M1099.44 142.28C1101.96 142.28 1104.01 139.419 1104.01 135.89C1104.01 132.361 1101.96 129.5 1099.44 129.5C1096.92 129.5 1094.87 132.361 1094.87 135.89C1094.87 139.419 1096.92 142.28 1099.44 142.28Z" fill="#25569D"/>
<path d="M1135.24 142.34C1137.76 142.34 1139.81 139.479 1139.81 135.95C1139.81 132.42 1137.76 129.56 1135.24 129.56C1132.72 129.56 1130.67 132.42 1130.67 135.95C1130.67 139.479 1132.72 142.34 1135.24 142.34Z" fill="#25569D"/>
<path d="M1117.34 151.2C1119.43 151.2 1121.13 149.933 1121.13 148.37C1121.13 146.807 1119.43 145.54 1117.34 145.54C1115.25 145.54 1113.55 146.807 1113.55 148.37C1113.55 149.933 1115.25 151.2 1117.34 151.2Z" fill="#A3887E"/>
<path d="M1089.4 177.82C1088.52 177.82 1087.64 177.41 1087.07 176.63C1086.11 175.32 1086.36 173.45 1087.65 172.46C1087.88 172.29 1093.26 168.07 1092.77 161.59C1092.39 156.64 1088.89 153.53 1087.83 152.69C1086.55 151.69 1086.32 149.82 1087.3 148.52C1088.28 147.22 1090.11 146.97 1091.39 147.97C1092.94 149.19 1098.02 153.72 1098.59 161.13C1099.32 170.67 1091.99 176.58 1091.16 177.22C1090.64 177.62 1090.02 177.82 1089.41 177.82H1089.4Z" fill="#25569D"/>
<path d="M1145.28 177.82C1144.67 177.82 1144.06 177.63 1143.53 177.22C1142.69 176.58 1135.37 170.67 1136.1 161.13C1136.66 153.73 1141.75 149.19 1143.3 147.97C1144.57 146.97 1146.4 147.21 1147.39 148.52C1148.37 149.82 1148.13 151.69 1146.86 152.69C1145.8 153.52 1142.3 156.64 1141.92 161.59C1141.43 168.08 1146.81 172.29 1147.04 172.46C1148.33 173.45 1148.59 175.31 1147.62 176.63C1147.05 177.41 1146.17 177.82 1145.29 177.82H1145.28Z" fill="#25569D"/>
<path d="M1117.09 168.79C1116.44 168.79 1115.78 168.78 1115.11 168.75C1104.05 168.25 1097.14 163.84 1094.69 161.96C1093.4 160.97 1093.13 159.11 1094.1 157.79C1095.06 156.47 1096.9 156.2 1098.18 157.18C1099.76 158.39 1105.67 162.35 1115.38 162.79C1128.1 163.37 1136.15 157.25 1136.49 156.98C1137.77 155.97 1139.59 156.24 1140.57 157.54C1141.55 158.85 1141.3 160.71 1140.02 161.71C1139.06 162.46 1130.56 168.77 1117.1 168.77L1117.09 168.79Z" fill="#25569D"/>
<path d="M1116.74 96.8504C1116.56 96.8504 1116.37 96.8304 1116.19 96.8004C1114.61 96.4904 1113.58 94.9304 1113.88 93.3104C1114.68 89.0504 1115.33 80.6904 1110.64 72.5704C1105.27 63.2804 1094.82 57.6804 1083.21 58.0404C1081.74 57.9704 1080.27 56.7904 1080.22 55.1404C1080.18 53.5004 1081.44 52.1304 1083.05 52.0804C1096.81 51.7604 1109.22 58.3804 1115.66 69.5304C1121.32 79.3404 1120.56 89.3304 1119.61 94.4204C1119.34 95.8404 1118.12 96.8404 1116.75 96.8404L1116.74 96.8504Z" fill="#25569D"/>
<path d="M1078.17 65.9257C1083.3 59.7403 1085.16 52.8168 1082.32 50.4617C1079.48 48.1066 1073.02 51.2117 1067.89 57.3971C1062.76 63.5825 1060.9 70.5059 1063.74 72.861C1066.58 75.2161 1073.04 72.111 1078.17 65.9257Z" fill="#25569D"/>
<path d="M1081.75 57.2597C1084.99 55.5253 1084.53 48.3535 1080.72 41.241C1076.91 34.1285 1071.19 29.7688 1067.96 31.5032C1064.72 33.2376 1065.18 40.4093 1068.99 47.5218C1072.8 54.6343 1078.52 58.9941 1081.75 57.2597Z" fill="#25569D"/>
</g>
<defs>
<linearGradient id="paint0_linear_1966_77043" x1="3.36001" y1="-1.06004" x2="1338.87" y2="189.37" gradientUnits="userSpaceOnUse">
<stop stop-color="#E9D9D3"/>
<stop offset="1" stop-color="#D3DDEA"/>
</linearGradient>
<clipPath id="clip0_1966_77043">
<rect width="1340" height="188" fill="white"/>
</clipPath>
</defs>
</svg>
