<svg width="1340" height="188" viewBox="0 0 1600 220" fill="none" xmlns="http://www.w3.org/2000/svg">
<g clip-path="url(#clip0_2076_26269)">
<path d="M750.33 149.47V150.466H745.206V149.47H750.33ZM759.665 145.786V152.638H754.793V145.786H759.665ZM755.813 146.614V151.798H758.645V146.614H755.813ZM762.521 144.742V155.302H761.477V144.742H762.521ZM764.225 148.93V149.794H762.281V148.93H764.225ZM771.21 148.714V149.566H769.23V148.714H771.21ZM765.93 151.954C766.786 151.954 767.482 151.934 768.018 151.894C768.554 151.854 769.102 151.782 769.662 151.678L769.758 152.518C769.19 152.63 768.634 152.706 768.09 152.746C767.546 152.778 766.826 152.794 765.93 152.794H765.234V151.954H765.93ZM769.146 145.99V146.83H766.23V152.218H765.234V145.99H769.146ZM768.678 148.858V149.662H765.93V148.858H768.678ZM773.838 144.73V155.29H772.842V144.73H773.838ZM771.69 144.97V154.762H770.706V144.97H771.69ZM778.392 153.526C778.6 153.326 778.772 153.162 778.908 153.034C779.044 152.906 779.216 152.746 779.424 152.554C780.12 151.914 780.68 151.378 781.104 150.946C781.536 150.514 781.9 150.07 782.196 149.614C782.5 149.158 782.652 148.734 782.652 148.342C782.652 147.99 782.58 147.678 782.436 147.406C782.292 147.126 782.096 146.91 781.848 146.758C781.6 146.598 781.316 146.518 780.996 146.518C780.636 146.518 780.288 146.638 779.952 146.878C779.624 147.118 779.376 147.43 779.208 147.814L778.308 147.418C778.54 146.89 778.904 146.458 779.4 146.122C779.904 145.786 780.436 145.618 780.996 145.618C781.508 145.618 781.964 145.734 782.364 145.966C782.772 146.198 783.088 146.522 783.312 146.938C783.536 147.346 783.648 147.814 783.648 148.342C783.648 148.87 783.48 149.406 783.144 149.95C782.808 150.494 782.404 151.006 781.932 151.486C781.468 151.966 780.868 152.534 780.132 153.19C779.764 153.518 779.416 153.842 779.088 154.162L778.392 153.526ZM778.392 153.526H783.792V154.414H778.512L778.392 153.526ZM785.717 149.722C785.973 149.434 786.305 149.198 786.713 149.014C787.121 148.822 787.521 148.726 787.913 148.726C788.489 148.726 789.001 148.85 789.449 149.098C789.905 149.338 790.257 149.674 790.505 150.106C790.761 150.538 790.889 151.034 790.889 151.594C790.889 152.162 790.761 152.666 790.505 153.106C790.257 153.546 789.905 153.894 789.449 154.15C789.001 154.398 788.489 154.522 787.913 154.522C787.465 154.522 787.045 154.43 786.653 154.246C786.261 154.054 785.925 153.79 785.645 153.454C785.365 153.118 785.177 152.738 785.081 152.314L786.053 152.086C786.149 152.526 786.369 152.886 786.713 153.166C787.065 153.438 787.465 153.574 787.913 153.574C788.297 153.574 788.637 153.49 788.933 153.322C789.237 153.154 789.473 152.922 789.641 152.626C789.809 152.322 789.893 151.978 789.893 151.594C789.893 151.226 789.809 150.898 789.641 150.61C789.473 150.314 789.237 150.086 788.933 149.926C788.637 149.758 788.297 149.674 787.913 149.674C787.665 149.674 787.405 149.738 787.133 149.866C786.869 149.994 786.645 150.162 786.461 150.37L785.717 149.722ZM785.465 150.226L785.753 145.702H790.181V146.59H786.713L786.461 150.37L785.465 150.226ZM795.411 145.87V146.698C795.411 147.346 795.291 147.954 795.051 148.522C794.811 149.09 794.467 149.582 794.019 149.998C793.579 150.414 793.059 150.73 792.459 150.946L791.943 150.118C792.471 149.934 792.931 149.67 793.323 149.326C793.723 148.982 794.031 148.582 794.247 148.126C794.463 147.67 794.571 147.194 794.571 146.698V145.87H795.411ZM795.603 145.87V146.698C795.603 147.146 795.703 147.578 795.903 147.994C796.111 148.402 796.407 148.766 796.791 149.086C797.175 149.398 797.623 149.638 798.135 149.806L797.643 150.61C797.051 150.418 796.539 150.13 796.107 149.746C795.675 149.354 795.343 148.898 795.111 148.378C794.879 147.85 794.763 147.29 794.763 146.698V145.87H795.603ZM797.907 145.498V146.35H792.243V145.498H797.907ZM800.199 144.742V151.09H799.155V144.742H800.199ZM801.747 147.394V148.246H799.911V147.394H801.747ZM796.827 151.366C797.547 151.366 798.167 151.442 798.687 151.594C799.207 151.746 799.607 151.97 799.887 152.266C800.167 152.554 800.307 152.902 800.307 153.31C800.307 153.934 799.995 154.418 799.371 154.762C798.755 155.106 797.907 155.278 796.827 155.278C796.115 155.278 795.495 155.202 794.967 155.05C794.447 154.898 794.047 154.674 793.767 154.378C793.487 154.074 793.347 153.718 793.347 153.31C793.347 152.902 793.487 152.554 793.767 152.266C794.047 151.97 794.447 151.746 794.967 151.594C795.495 151.442 796.115 151.366 796.827 151.366ZM796.827 152.182C796.315 152.182 795.875 152.23 795.507 152.326C795.139 152.414 794.855 152.542 794.655 152.71C794.463 152.87 794.367 153.07 794.367 153.31C794.367 153.678 794.583 153.962 795.015 154.162C795.455 154.362 796.059 154.462 796.827 154.462C797.595 154.462 798.195 154.362 798.627 154.162C799.067 153.962 799.287 153.678 799.287 153.31C799.287 153.07 799.187 152.87 798.987 152.71C798.795 152.542 798.515 152.414 798.147 152.326C797.779 152.23 797.339 152.182 796.827 152.182ZM810.32 151.15H811.544V152.026H810.32V154.402H809.324V152.026H805.544L805.424 151.15L809.36 145.714H810.32V151.15ZM809.324 151.15V147.43L806.636 151.15H809.324ZM815.951 153.598C816.375 153.598 816.747 153.45 817.067 153.154C817.395 152.85 817.647 152.43 817.823 151.894C818.007 151.358 818.099 150.746 818.099 150.058C818.099 149.37 818.007 148.758 817.823 148.222C817.647 147.686 817.395 147.27 817.067 146.974C816.739 146.67 816.367 146.518 815.951 146.518C815.535 146.518 815.163 146.67 814.835 146.974C814.515 147.27 814.263 147.686 814.079 148.222C813.895 148.758 813.803 149.37 813.803 150.058C813.803 150.746 813.895 151.358 814.079 151.894C814.263 152.43 814.515 152.85 814.835 153.154C815.163 153.45 815.535 153.598 815.951 153.598ZM815.951 154.486C815.343 154.486 814.799 154.298 814.319 153.922C813.847 153.546 813.475 153.022 813.203 152.35C812.939 151.678 812.807 150.914 812.807 150.058C812.807 149.202 812.939 148.442 813.203 147.778C813.475 147.106 813.847 146.582 814.319 146.206C814.799 145.83 815.343 145.642 815.951 145.642C816.559 145.642 817.103 145.83 817.583 146.206C818.063 146.582 818.435 147.106 818.699 147.778C818.963 148.442 819.095 149.202 819.095 150.058C819.095 150.914 818.963 151.678 818.699 152.35C818.435 153.022 818.063 153.546 817.583 153.922C817.111 154.298 816.567 154.486 815.951 154.486ZM828.514 147.07V147.898H825.826V147.07H828.514ZM823.666 145.642V146.326C823.666 146.91 823.542 147.47 823.294 148.006C823.054 148.542 822.71 149.014 822.262 149.422C821.814 149.822 821.294 150.118 820.702 150.31L820.198 149.506C820.71 149.33 821.166 149.078 821.566 148.75C821.966 148.414 822.274 148.038 822.49 147.622C822.706 147.198 822.814 146.766 822.814 146.326V145.642H823.666ZM823.858 145.642V146.326C823.858 146.742 823.962 147.146 824.17 147.538C824.386 147.922 824.682 148.266 825.058 148.57C825.442 148.866 825.886 149.094 826.39 149.254L825.898 150.07C825.314 149.886 824.806 149.606 824.374 149.23C823.942 148.854 823.606 148.418 823.366 147.922C823.134 147.418 823.018 146.886 823.018 146.326V145.642H823.858ZM826.15 145.258V146.098H820.51V145.258H826.15ZM828.874 144.742V150.166H827.842V144.742H828.874ZM828.874 150.694V153.262H823.114V154.87H822.082V152.482H827.854V151.522H822.058V150.694H828.874ZM829.258 154.354V155.182H822.082V154.354H829.258ZM838.924 149.47V150.466H833.8V149.47H838.924Z" fill="#25569D"/>
<path d="M1600 0H0V220H1600V0Z" fill="url(#paint0_linear_2076_26269)"/>
<path d="M527.92 220.001H358.17C358.2 219.351 358.3 218.701 358.45 218.031L369.86 170.411C377.72 137.591 406.39 114.151 439.85 112.751C440.91 112.701 441.97 112.681 443.04 112.681C443.94 112.681 444.83 112.701 445.72 112.731C462.11 113.311 477.39 119.181 489.65 128.851C502.58 139.051 512.18 153.481 516.23 170.411L527.63 218.031C527.79 218.691 527.89 219.351 527.92 220.001Z" fill="#F8ECE8"/>
<path d="M425.15 162.371C427.674 162.371 429.72 159.568 429.72 156.111C429.72 152.653 427.674 149.851 425.15 149.851C422.626 149.851 420.58 152.653 420.58 156.111C420.58 159.568 422.626 162.371 425.15 162.371Z" fill="#25569D"/>
<path d="M460.94 162.43C463.464 162.43 465.51 159.627 465.51 156.17C465.51 152.713 463.464 149.91 460.94 149.91C458.416 149.91 456.37 152.713 456.37 156.17C456.37 159.627 458.416 162.43 460.94 162.43Z" fill="#25569D"/>
<path d="M443.04 171.091C445.133 171.091 446.83 169.851 446.83 168.321C446.83 166.791 445.133 165.551 443.04 165.551C440.947 165.551 439.25 166.791 439.25 168.321C439.25 169.851 440.947 171.091 443.04 171.091Z" fill="#A3887E"/>
<path d="M415.1 197.141C414.22 197.141 413.34 196.741 412.77 195.981C411.81 194.691 412.06 192.871 413.35 191.901C413.58 191.731 418.96 187.611 418.47 181.261C418.09 176.411 414.59 173.371 413.53 172.551C412.25 171.571 412.02 169.741 413 168.461C413.98 167.191 415.81 166.941 417.09 167.931C418.64 169.121 423.72 173.561 424.29 180.811C425.02 190.151 417.69 195.931 416.86 196.561C416.34 196.951 415.72 197.141 415.11 197.141H415.1Z" fill="#25569D"/>
<path d="M470.98 197.14C470.37 197.14 469.76 196.95 469.23 196.56C468.39 195.93 461.07 190.15 461.8 180.81C462.36 173.57 467.45 169.12 469 167.93C470.27 166.95 472.1 167.19 473.09 168.46C474.07 169.73 473.83 171.56 472.56 172.55C471.5 173.37 468 176.41 467.62 181.26C467.13 187.61 472.51 191.73 472.74 191.9C474.03 192.87 474.29 194.69 473.32 195.98C472.75 196.74 471.87 197.14 470.99 197.14H470.98Z" fill="#25569D"/>
<path d="M442.79 188.301C442.14 188.301 441.48 188.291 440.81 188.261C429.75 187.771 422.84 183.451 420.39 181.621C419.1 180.661 418.83 178.831 419.8 177.541C420.76 176.251 422.6 175.981 423.88 176.951C425.46 178.131 431.37 182.011 441.08 182.441C453.8 183.001 461.85 177.011 462.19 176.761C463.47 175.781 465.29 176.031 466.27 177.311C467.25 178.591 467 180.421 465.72 181.391C464.76 182.131 456.26 188.301 442.8 188.301H442.79Z" fill="#25569D"/>
<path d="M442.44 117.891C442.26 117.891 442.07 117.871 441.89 117.841C440.31 117.541 439.28 116.011 439.58 114.431C440.38 110.261 441.03 102.081 436.34 94.1307C430.97 85.0407 420.52 79.5607 408.91 79.9107C407.44 79.8407 405.97 78.6907 405.92 77.0807C405.88 75.4707 407.14 74.1307 408.75 74.0907C422.51 73.7807 434.92 80.2607 441.36 91.1707C447.02 100.771 446.26 110.551 445.31 115.531C445.04 116.921 443.82 117.891 442.45 117.891H442.44Z" fill="#25569D"/>
<path d="M403.83 87.8251C408.996 81.8002 410.934 74.9868 408.158 72.607C405.383 70.2272 398.945 73.1822 393.779 79.2071C388.613 85.232 386.676 92.0454 389.451 94.4252C392.227 96.805 398.665 93.8501 403.83 87.8251Z" fill="#25569D"/>
<path d="M407.473 79.0336C410.671 77.2622 410.147 70.1981 406.301 63.2555C402.456 56.3129 396.746 52.1208 393.548 53.8922C390.35 55.6636 390.874 62.7277 394.719 69.6703C398.564 76.6129 404.274 80.805 407.473 79.0336Z" fill="#25569D"/>
<path d="M623.38 60.3799V80.2899H626.3V60.3799H623.38ZM618.14 66.4999V68.8799H624.21V66.4999H618.14ZM621.18 72.3999C619.75 72.6999 618.31 72.9099 616.85 73.0199C615.77 73.0999 614.68 73.1499 613.56 73.1799C613.16 73.1899 612.76 73.1899 612.35 73.1899H610.64V75.6299H612.35C613.98 75.6299 615.54 75.5699 617.03 75.4499C618.52 75.3399 620 75.1299 621.48 74.8399L621.18 72.3999ZM610.64 62.5199V74.8599H613.56V62.5199H610.64Z" fill="#25569D"/>
<path d="M642.49 60.4297V80.2497H645.42V60.4297H642.49ZM633.78 60.6297V64.3197H636.75V60.6297H633.78ZM639.59 67.6197C639.18 67.0497 638.6 66.6097 637.84 66.2897C637.09 65.9797 636.23 65.8197 635.28 65.8197C634.33 65.8197 633.5 65.9697 632.77 66.2797C632.04 66.5897 631.46 67.0297 631.04 67.6097C630.62 68.1897 630.42 68.8497 630.42 69.5997C630.42 70.3497 630.62 70.9797 631.03 71.5497C631.44 72.1097 632.02 72.5497 632.76 72.8697C633.5 73.1797 634.34 73.3397 635.28 73.3397C636.22 73.3397 637.09 73.1797 637.84 72.8697C638.6 72.5497 639.18 72.1097 639.59 71.5497C640 70.9797 640.21 70.3297 640.21 69.5797C640.21 68.8297 640 68.1897 639.59 67.6197ZM637.13 70.4297C636.95 70.6497 636.71 70.8297 636.4 70.9397C636.09 71.0597 635.73 71.1197 635.32 71.1197C634.88 71.1197 634.5 71.0597 634.19 70.9397C633.87 70.8297 633.63 70.6497 633.46 70.4297C633.29 70.1997 633.21 69.9197 633.21 69.5997C633.21 69.0997 633.4 68.7197 633.77 68.4597C634.15 68.1897 634.65 68.0597 635.28 68.0597C635.91 68.0597 636.45 68.1897 636.83 68.4597C637.2 68.7197 637.39 69.0997 637.39 69.5997C637.39 69.9197 637.3 70.1997 637.13 70.4297ZM629.32 62.7597V65.0897H641.24V62.7597H629.32ZM641.48 73.9397C639.81 74.1897 638.08 74.3397 636.3 74.3997C634.52 74.4597 632.41 74.4897 629.98 74.4897H628.96L629.29 76.8797C631.68 76.8997 633.86 76.8597 635.83 76.7697C637.79 76.6897 639.74 76.4597 641.68 76.0897L641.48 73.9397Z" fill="#25569D"/>
<path d="M662.91 67.9299V70.3499H666.39V67.9299H662.91ZM660.69 60.3799V80.2099H663.66V60.3799H660.69ZM648.98 62.4299V64.7799H656.99V62.4299H648.98ZM655.47 62.4299V62.9399C655.47 63.5799 655.44 64.1899 655.37 64.7799C655.25 65.8599 655.01 66.8499 654.66 67.7599C654.12 69.1699 653.29 70.4299 652.17 71.5599C651.06 72.6899 649.63 73.6899 647.88 74.5699L649.53 76.8199C652.69 75.2299 654.95 73.2399 656.32 70.8199C657.69 68.4099 658.38 65.6099 658.38 62.4299H655.47Z" fill="#25569D"/>
<path d="M686.56 60.3799V80.2099H689.35V60.3799H686.56ZM684.05 68.0199V70.3699H687.29V68.0199H684.05ZM682.14 60.7399V79.2799H684.89V60.7399H682.14ZM681.08 72.3299C679.54 72.6399 677.87 72.8299 676.09 72.8799C675.59 72.9099 675.07 72.9199 674.55 72.9199H673.16V75.4499H674.55C675.68 75.4499 676.8 75.4099 677.91 75.3199C679.03 75.2299 680.18 75.0799 681.37 74.8599L681.08 72.3299ZM673.16 62.5799V73.9999H676.09V62.5799H673.16Z" fill="#25569D"/>
<path d="M710.32 60.38V73.01H713.27V60.38H710.32ZM707.88 64.72V67.05H711.44V64.72H707.88ZM707.83 68.68V71.03H711.4V68.68H707.83ZM700.81 60.25V63.75H703.79V60.25H700.81ZM711.53 74.2C710.31 73.57 708.65 73.25 706.56 73.25C704.47 73.25 702.78 73.57 701.57 74.2C700.36 74.83 699.76 75.68 699.76 76.75C699.76 77.82 700.36 78.71 701.57 79.31C702.78 79.92 704.44 80.23 706.56 80.23C708.68 80.23 710.31 79.92 711.53 79.31C712.75 78.71 713.35 77.85 713.35 76.75C713.35 75.65 712.75 74.83 711.53 74.2ZM709.3 77.69C708.67 77.88 707.75 77.98 706.54 77.98C705.33 77.98 704.42 77.88 703.8 77.69C703.17 77.49 702.86 77.18 702.86 76.75C702.86 76.32 703.17 76.01 703.79 75.81C704.4 75.6 705.33 75.5 706.56 75.5C707.79 75.5 708.69 75.6 709.31 75.81C709.92 76.01 710.23 76.33 710.23 76.75C710.23 77.17 709.92 77.49 709.3 77.69ZM706.36 66.9C705.96 66.34 705.41 65.9 704.7 65.59C703.99 65.27 703.18 65.11 702.27 65.11C701.36 65.11 700.59 65.27 699.88 65.58C699.17 65.88 698.62 66.32 698.22 66.9C697.82 67.47 697.62 68.11 697.62 68.83C697.62 69.55 697.82 70.19 698.22 70.76C698.62 71.32 699.17 71.76 699.87 72.08C700.57 72.39 701.37 72.55 702.27 72.55C703.17 72.55 703.99 72.39 704.7 72.08C705.41 71.76 705.96 71.32 706.36 70.76C706.75 70.19 706.95 69.54 706.95 68.81C706.95 68.08 706.75 67.45 706.36 66.9ZM703.7 69.95C703.35 70.22 702.87 70.35 702.27 70.35C701.67 70.35 701.24 70.22 700.89 69.95C700.55 69.69 700.37 69.32 700.37 68.83C700.37 68.34 700.55 67.97 700.89 67.71C701.24 67.45 701.69 67.31 702.27 67.31C702.85 67.31 703.35 67.45 703.7 67.71C704.05 67.97 704.23 68.35 704.23 68.83C704.23 69.31 704.05 69.69 703.7 69.95ZM696.72 62.17V64.45H707.57V62.17H696.72Z" fill="#25569D"/>
<path d="M730.12 60.3799V80.2099H732.91V60.3799H730.12ZM726.12 60.7099V79.3299H728.87V60.7099H726.12ZM723.65 67.1399V69.5399H726.91V67.1399H723.65ZM723.81 71.8199C723.25 70.9599 722.84 69.9999 722.6 68.9599C722.35 67.9199 722.22 66.8099 722.22 65.6399V63.6399H720V65.6399C720 67.1699 720.14 68.6099 720.43 69.9599C720.53 70.4499 720.65 70.9099 720.82 71.3599C721.07 72.1599 721.41 72.9099 721.81 73.5799C722.45 74.6399 723.28 75.4699 724.29 76.0699L726.03 73.9399C725.1 73.3899 724.36 72.6899 723.81 71.8199ZM716.21 62.3399V64.7399H725.04V62.3399H716.21ZM719.34 63.6399V65.6399C719.34 66.8399 719.21 67.9899 718.96 69.0699C718.72 70.1599 718.3 71.1699 717.72 72.0999C717.14 73.0299 716.4 73.7899 715.49 74.3799L717.23 76.5499C718.24 75.9199 719.07 75.0399 719.72 73.9099C720.18 73.1299 720.54 72.2799 720.82 71.3599C720.95 70.9599 721.05 70.5399 721.14 70.1099C721.44 68.6999 721.58 67.2099 721.58 65.6399V63.6399H719.34Z" fill="#25569D"/>
<path d="M737.36 64.7398V67.0298H750.97V64.7398H737.36ZM737.36 60.7598V66.6998H740.28V63.1098H750.8V60.7598H737.36ZM737.2 77.8298V80.0698H751.41V77.8298H737.2ZM737.16 71.4098V73.6298H747.98V74.6398H737.2V78.3398H740.08V76.7098H750.89V71.4098H737.16ZM735.16 68.0398V70.3698H753.09V68.0398H735.16Z" fill="#25569D"/>
<path d="M767.89 60.4102V74.6202H770.84V60.4102H767.89ZM757.62 77.5402V79.9002H771.35V77.5402H757.62ZM757.62 73.2102V78.4902H760.54V73.2102H757.62ZM764.75 64.1002C764.28 63.3202 763.63 62.7202 762.8 62.3002C761.97 61.8702 761.05 61.6602 760.04 61.6602C759.03 61.6602 758.11 61.8702 757.29 62.3002C756.47 62.7202 755.82 63.3202 755.34 64.1002C754.86 64.8802 754.63 65.7402 754.63 66.7002C754.63 67.6602 754.86 68.5002 755.34 69.2802C755.82 70.0702 756.47 70.6802 757.29 71.1102C758.11 71.5402 759.03 71.7602 760.04 71.7602C761.05 71.7602 761.97 71.5402 762.8 71.1102C763.63 70.6802 764.28 70.0702 764.75 69.2802C765.22 68.5002 765.45 67.6402 765.45 66.7002C765.45 65.7602 765.22 64.8802 764.75 64.1002ZM762.24 68.0302C762.02 68.4002 761.71 68.6902 761.33 68.8902C760.94 69.0802 760.51 69.1802 760.04 69.1802C759.57 69.1802 759.12 69.0802 758.74 68.8902C758.36 68.6902 758.06 68.4002 757.84 68.0302C757.62 67.6502 757.51 67.2102 757.51 66.7002C757.51 66.1902 757.62 65.7602 757.84 65.3802C758.06 65.0002 758.36 64.7102 758.74 64.5102C759.12 64.3102 759.55 64.2102 760.04 64.2102C760.53 64.2102 760.94 64.3102 761.33 64.5102C761.71 64.7102 762.02 65.0002 762.24 65.3802C762.46 65.7602 762.57 66.2002 762.57 66.7002C762.57 67.2002 762.46 67.6502 762.24 68.0302Z" fill="#25569D"/>
<path d="M792.14 60.3799V80.2699H795.13V60.3799H792.14ZM788.96 65.0899C788.51 64.0199 787.89 63.1999 787.11 62.6199C786.32 62.0399 785.43 61.7499 784.41 61.7499C783.39 61.7499 782.5 62.0399 781.71 62.6199C780.92 63.1999 780.3 64.0199 779.85 65.0899C779.4 66.1599 779.18 67.4099 779.18 68.8299C779.18 70.2499 779.4 71.5299 779.85 72.5999C780.3 73.6799 780.92 74.5199 781.71 75.0999C782.5 75.6899 783.4 75.9799 784.41 75.9799C785.42 75.9799 786.32 75.6899 787.11 75.0999C787.89 74.5199 788.51 73.6799 788.96 72.5999C789.4 71.5299 789.63 70.2699 789.63 68.8299C789.63 67.3899 789.4 66.1599 788.96 65.0899ZM786.5 71.2599C786.31 71.9299 786.04 72.4399 785.68 72.7799C785.32 73.1199 784.9 73.2999 784.41 73.2999C783.92 73.2999 783.53 73.1199 783.17 72.7799C782.81 72.4399 782.53 71.9299 782.32 71.2599C782.12 70.5999 782.02 69.7899 782.02 68.8299C782.02 67.8699 782.12 67.0999 782.32 66.4399C782.53 65.7899 782.81 65.2999 783.17 64.9599C783.53 64.6199 783.94 64.4499 784.41 64.4499C784.88 64.4499 785.32 64.6199 785.68 64.9599C786.04 65.2999 786.31 65.7899 786.5 66.4399C786.69 67.0999 786.79 67.8899 786.79 68.8299C786.79 69.7699 786.69 70.5999 786.5 71.2599Z" fill="#25569D"/>
<path d="M817.74 67.9299V70.3499H821.22V67.9299H817.74ZM815.52 60.3799V80.2099H818.49V60.3799H815.52ZM803.82 62.4299V64.7799H811.83V62.4299H803.82ZM810.31 62.4299V62.9399C810.31 63.5799 810.28 64.1899 810.21 64.7799C810.08 65.8599 809.85 66.8499 809.49 67.7599C808.95 69.1699 808.12 70.4299 807.01 71.5599C805.89 72.6899 804.46 73.6899 802.72 74.5699L804.37 76.8199C807.52 75.2299 809.78 73.2399 811.15 70.8199C812.53 68.4099 813.21 65.6099 813.21 62.4299H810.31Z" fill="#25569D"/>
<path d="M836.97 64.9397V67.3397H840.4V64.9397H836.97ZM834.82 60.4297V72.1497H837.79V60.4297H834.82ZM831.47 68.0297C830.8 67.4597 830.3 66.8197 829.99 66.0997C829.7 65.4597 829.54 64.7797 829.52 64.0797C829.51 63.9997 829.51 63.9197 829.51 63.8397V62.6097H827.14V63.8397C827.14 63.9197 827.14 63.9997 827.15 64.0797C827.17 65.1897 827.36 66.2397 827.72 67.2097C827.83 67.5097 827.96 67.7997 828.11 68.0797C828.47 68.7697 828.95 69.3897 829.54 69.9397C830.36 70.7097 831.38 71.2697 832.59 71.6297L834.02 69.3397C833 69.0297 832.15 68.5897 831.47 68.0297ZM837.2 74.2797C836.67 73.6997 835.89 73.2497 834.88 72.9497C833.87 72.6397 832.68 72.4797 831.32 72.4797C829.96 72.4797 828.74 72.6397 827.72 72.9497C826.7 73.2497 825.92 73.6997 825.38 74.2797C824.83 74.8597 824.56 75.5497 824.56 76.3597C824.56 77.1697 824.83 77.8597 825.38 78.4497C825.92 79.0297 826.7 79.4797 827.72 79.7797C828.74 80.0797 829.94 80.2297 831.32 80.2297C833.39 80.2297 835.02 79.8897 836.21 79.1997C837.41 78.5197 838.01 77.5697 838.01 76.3597C838.01 75.5497 837.74 74.8597 837.2 74.2797ZM834.13 77.5697C833.49 77.8297 832.55 77.9597 831.32 77.9597C830.09 77.9597 829.1 77.8297 828.46 77.5697C827.81 77.2997 827.49 76.8997 827.49 76.3597C827.49 75.9997 827.63 75.7097 827.92 75.4797C828.2 75.2397 828.63 75.0597 829.21 74.9497C829.78 74.8297 830.48 74.7697 831.32 74.7697C832.16 74.7697 832.83 74.8297 833.4 74.9497C833.96 75.0597 834.39 75.2397 834.67 75.4797C834.96 75.7097 835.1 75.9997 835.1 76.3597C835.1 76.8997 834.78 77.2997 834.13 77.5697ZM822.63 61.6997V64.0797H833.36V61.6997H822.63ZM826.54 62.6097V63.8197C826.54 63.9097 826.54 63.9897 826.53 64.0797C826.51 64.8497 826.35 65.5997 826.05 66.3197C825.72 67.1297 825.21 67.8597 824.51 68.5097C823.81 69.1697 822.93 69.6597 821.86 69.9997L823.35 72.3297C824.6 71.9297 825.64 71.3097 826.48 70.4597C827.16 69.7597 827.71 68.9697 828.11 68.0797C828.2 67.8897 828.28 67.6897 828.35 67.4897C828.73 66.4397 828.93 65.2997 828.95 64.0797C828.96 63.9997 828.96 63.9097 828.96 63.8197V62.6097H826.54Z" fill="#25569D"/>
<path d="M861.26 65.1597V67.5997H864.69V65.1597H861.26ZM859.1 60.4297V72.3497H862.07V60.4297H859.1ZM855.77 68.0097C855.09 67.3997 854.59 66.7197 854.27 65.9697C853.99 65.2997 853.83 64.6097 853.81 63.8997C853.81 63.8197 853.81 63.7397 853.81 63.6597V62.4297H851.44V63.6597C851.44 63.7397 851.44 63.8197 851.45 63.8997C851.47 65.0097 851.66 66.0697 852.02 67.0797C852.12 67.3697 852.24 67.6397 852.38 67.9097C852.74 68.6497 853.22 69.3097 853.82 69.9097C854.64 70.7197 855.64 71.3097 856.85 71.6897L858.34 69.3997C857.32 69.0797 856.46 68.6197 855.78 68.0097H855.77ZM848.81 73.1897V75.5397H859.1V80.2497H862.07V73.1897H848.81ZM846.92 61.5697V63.8997H857.65V61.5697H846.92ZM850.83 62.4297V63.6397C850.83 63.7297 850.83 63.8097 850.82 63.8997C850.8 64.6697 850.64 65.4097 850.34 66.1297C850.01 66.9197 849.49 67.6297 848.79 68.2697C848.08 68.9097 847.2 69.3997 846.15 69.7297L847.69 72.0397C848.92 71.6297 849.95 71.0097 850.79 70.1697C851.45 69.5097 851.98 68.7497 852.37 67.9097C852.47 67.6997 852.57 67.4797 852.65 67.2497C853.02 66.2097 853.22 65.0897 853.24 63.8997C853.25 63.8197 853.25 63.7297 853.25 63.6397V62.4297H850.83Z" fill="#25569D"/>
<path d="M867.84 77.5205V79.9205H881.59V77.5205H867.84ZM867.84 74.1305V78.2905H870.76V74.1305H867.84ZM880.96 62.8905C880.37 62.2805 879.52 61.8005 878.43 61.4705C877.34 61.1405 876.08 60.9805 874.66 60.9805C873.24 60.9805 871.96 61.1405 870.86 61.4705C869.77 61.8005 868.93 62.2805 868.33 62.9005C867.74 63.5305 867.44 64.2505 867.44 65.0705C867.44 65.8905 867.74 66.6405 868.33 67.2605C868.93 67.8805 869.77 68.3605 870.85 68.7005C871.94 69.0405 873.21 69.2105 874.66 69.2105C876.11 69.2105 877.36 69.0405 878.44 68.7005C879.53 68.3605 880.37 67.8805 880.96 67.2605C881.55 66.6405 881.85 65.9105 881.85 65.0705C881.85 64.2305 881.55 63.5105 880.96 62.8905ZM878.3 66.0405C877.97 66.3005 877.5 66.5005 876.88 66.6405C876.26 66.7805 875.52 66.8505 874.64 66.8505C873.76 66.8505 873.01 66.7805 872.39 66.6405C871.78 66.5005 871.3 66.3005 870.97 66.0405C870.64 65.7705 870.48 65.4505 870.48 65.0705C870.48 64.6905 870.64 64.3705 870.97 64.1105C871.3 63.8605 871.78 63.6605 872.39 63.5305C873.01 63.4005 873.76 63.3305 874.64 63.3305C875.52 63.3305 876.27 63.4005 876.89 63.5305C877.51 63.6605 877.99 63.8605 878.31 64.1205C878.63 64.3905 878.79 64.7005 878.79 65.0705C878.79 65.4405 878.63 65.7705 878.3 66.0405ZM865.68 70.4805V72.8105H883.61V70.4805H865.68Z" fill="#25569D"/>
<path d="M903.46 60.3799V80.2699H906.45V60.3799H903.46ZM900.28 65.0899C899.83 64.0199 899.21 63.1999 898.43 62.6199C897.64 62.0399 896.75 61.7499 895.73 61.7499C894.71 61.7499 893.82 62.0399 893.03 62.6199C892.23 63.1999 891.62 64.0199 891.17 65.0899C890.72 66.1599 890.5 67.4099 890.5 68.8299C890.5 70.2499 890.72 71.5299 891.17 72.5999C891.62 73.6799 892.23 74.5199 893.03 75.0999C893.82 75.6899 894.72 75.9799 895.73 75.9799C896.74 75.9799 897.64 75.6899 898.43 75.0999C899.21 74.5199 899.83 73.6799 900.28 72.5999C900.72 71.5299 900.95 70.2699 900.95 68.8299C900.95 67.3899 900.72 66.1599 900.28 65.0899ZM897.82 71.2599C897.63 71.9299 897.36 72.4399 897 72.7799C896.64 73.1199 896.22 73.2999 895.73 73.2999C895.24 73.2999 894.85 73.1199 894.49 72.7799C894.13 72.4399 893.85 71.9299 893.64 71.2599C893.44 70.5999 893.33 69.7899 893.33 68.8299C893.33 67.8699 893.44 67.0999 893.64 66.4399C893.85 65.7899 894.13 65.2999 894.49 64.9599C894.85 64.6199 895.26 64.4499 895.73 64.4499C896.2 64.4499 896.64 64.6199 897 64.9599C897.36 65.2999 897.63 65.7899 897.82 66.4399C898.01 67.0999 898.11 67.8899 898.11 68.8299C898.11 69.7699 898.01 70.5999 897.82 71.2599Z" fill="#25569D"/>
<path d="M911.42 64.7398V67.0298H925.04V64.7398H911.42ZM911.42 60.7598V66.6998H914.35V63.1098H924.86V60.7598H911.42ZM911.27 77.8298V80.0698H925.48V77.8298H911.27ZM911.22 71.4098V73.6298H922.04V74.6398H911.27V78.3398H914.15V76.7098H924.95V71.4098H911.22ZM909.22 68.0398V70.3698H927.15V68.0398H909.22Z" fill="#25569D"/>
<path d="M948.29 67.9299V70.3499H951.77V67.9299H948.29ZM946.07 60.3799V80.2099H949.04V60.3799H946.07ZM934.36 62.4299V64.7799H942.37V62.4299H934.36ZM940.85 62.4299V62.9399C940.85 63.5799 940.82 64.1899 940.75 64.7799C940.63 65.8599 940.39 66.8499 940.04 67.7599C939.5 69.1699 938.67 70.4299 937.55 71.5599C936.44 72.6899 935.01 73.6899 933.26 74.5699L934.91 76.8199C938.07 75.2299 940.33 73.2399 941.7 70.8199C943.07 68.4099 943.76 65.6099 943.76 62.4299H940.85Z" fill="#25569D"/>
<path d="M960.35 71.5198V75.6498H963.34V71.5198H960.35ZM954.8 77.5198V79.8798H968.71V77.5198H954.8ZM954.8 73.9398V78.1198H957.77V73.9398H954.8ZM967.95 62.6998C967.35 62.0798 966.51 61.5998 965.43 61.2598C964.34 60.9298 963.1 60.7598 961.69 60.7598C960.28 60.7598 959.02 60.9298 957.94 61.2598C956.86 61.5998 956.02 62.0798 955.42 62.6998C954.82 63.3298 954.52 64.0498 954.52 64.8698C954.52 65.6898 954.82 66.4398 955.42 67.0698C956.02 67.6998 956.86 68.1898 957.93 68.5198C959 68.8598 960.25 69.0298 961.69 69.0298C963.13 69.0298 964.34 68.8598 965.43 68.5198C966.51 68.1898 967.35 67.6998 967.95 67.0698C968.54 66.4398 968.84 65.7098 968.84 64.8698C968.84 64.0298 968.54 63.3298 967.95 62.6998ZM965.16 65.8698C964.84 66.1398 964.38 66.3498 963.79 66.4798C963.2 66.6098 962.5 66.6798 961.69 66.6798C960.88 66.6798 960.16 66.6098 959.57 66.4798C958.97 66.3498 958.51 66.1398 958.19 65.8698C957.87 65.5998 957.71 65.2698 957.71 64.8698C957.71 64.4998 957.86 64.1798 958.18 63.8998C958.5 63.6198 958.95 63.4198 959.55 63.2998C960.16 63.1698 960.87 63.1098 961.69 63.1098C962.51 63.1098 963.2 63.1698 963.8 63.2998C964.4 63.4198 964.86 63.6198 965.18 63.8998C965.49 64.1798 965.65 64.5098 965.65 64.8898C965.65 65.2698 965.49 65.5998 965.16 65.8698ZM952.71 69.9998V72.3298H970.66V69.9998H952.71Z" fill="#25569D"/>
<path d="M986.2 60.3799V80.2099H988.99V60.3799H986.2ZM982.08 60.7599V79.3699H984.83V60.7599H982.08ZM978.69 67.5999V69.9799H983.29V67.5999H978.69ZM980.67 72.9199C979.66 73.1299 978.65 73.2599 977.64 73.3299C976.99 73.3699 976.24 73.3999 975.39 73.4199C974.92 73.4299 974.41 73.4299 973.88 73.4299H972.49V75.8699H973.88C975.42 75.8699 976.71 75.8299 977.76 75.7599C978.81 75.6899 979.86 75.5499 980.92 75.3399L980.67 72.9199ZM972.49 62.6099V74.4899H975.39V64.9599H980.06V62.6099H972.49Z" fill="#25569D"/>
<path d="M609.78 102.41V104.83H613.21V102.41H609.78ZM607.62 96.4099V111.23H610.59V96.4099H607.62ZM599.33 96.3799V99.5499H602.28V96.3799H599.33ZM597.77 113.54V115.9H611.3V113.54H597.77ZM597.77 110.11V114.53H600.74V110.11H597.77ZM605.09 103.25C604.68 102.66 604.1 102.21 603.34 101.89C602.59 101.58 601.74 101.42 600.8 101.42C599.86 101.42 599.03 101.58 598.29 101.89C597.54 102.21 596.97 102.66 596.56 103.25C596.15 103.83 595.94 104.51 595.94 105.27C595.94 106.03 596.15 106.69 596.56 107.27C596.97 107.86 597.54 108.31 598.29 108.63C599.03 108.94 599.87 109.1 600.8 109.1C601.73 109.1 602.59 108.94 603.34 108.63C604.1 108.31 604.68 107.86 605.09 107.27C605.5 106.69 605.71 106.02 605.71 105.27C605.71 104.52 605.5 103.83 605.09 103.25ZM602.3 106.42C601.93 106.69 601.43 106.83 600.8 106.83C600.17 106.83 599.69 106.69 599.32 106.42C598.94 106.14 598.76 105.76 598.76 105.27C598.76 104.78 598.94 104.36 599.32 104.08C599.69 103.81 600.19 103.67 600.8 103.67C601.41 103.67 601.93 103.81 602.3 104.08C602.67 104.36 602.85 104.76 602.85 105.27C602.85 105.78 602.67 106.14 602.3 106.42ZM594.97 98.4499V100.74H606.61V98.4499H594.97Z" fill="#25569D"/>
<path d="M634.16 104V106.46H637.68V104H634.16ZM631.85 96.4297V116.25H634.82V96.4297H631.85ZM628.6 107.35C627.92 106.45 627.42 105.43 627.1 104.3C626.79 103.17 626.63 101.99 626.63 100.74V97.9197H624.26V100.74C624.26 102.38 624.44 103.93 624.81 105.38C624.91 105.79 625.03 106.18 625.17 106.56C625.5 107.54 625.95 108.43 626.5 109.24C627.26 110.36 628.22 111.22 629.38 111.81L631.16 109.47C630.14 108.96 629.28 108.25 628.6 107.35ZM623.68 97.9197V100.74C623.68 102.02 623.51 103.25 623.16 104.44C622.8 105.62 622.27 106.69 621.55 107.63C620.83 108.56 619.93 109.28 618.84 109.78L620.6 112.18C621.84 111.58 622.86 110.69 623.67 109.53C624.3 108.64 624.79 107.65 625.17 106.56C625.29 106.22 625.4 105.88 625.49 105.52C625.88 104.02 626.08 102.43 626.08 100.74V97.9197H623.68Z" fill="#25569D"/>
<path d="M653.3 101.05V103.47H656.75V101.05H653.3ZM651.16 96.4102V108.18H654.13V96.4102H651.16ZM641.2 109.01V116.01H654.13V109.01H641.2ZM651.25 113.7H644.1V111.3H651.25V113.7ZM649.86 104.57C648.6 104.79 647.33 104.94 646.04 105.02C645 105.08 643.7 105.12 642.12 105.13C641.73 105.14 641.32 105.14 640.89 105.14H639.19V107.52H640.89C643.06 107.52 644.82 107.48 646.18 107.39C647.54 107.31 648.85 107.14 650.13 106.88L649.86 104.57ZM639.17 97.4002V99.7302H645.33V101.29H639.19V106.42H642.12V103.49H648.26V97.4002H639.17Z" fill="#25569D"/>
<path d="M671.95 96.3799V116.21H674.75V96.3799H671.95ZM667.9 96.7099V115.33H670.65V96.7099H667.9ZM665.59 103.64V106.04H668.83V103.64H665.59ZM666.44 103.64C666.37 102.71 666.21 101.87 665.96 101.12C665.6 100.03 665.09 99.1999 664.44 98.6299C663.79 98.0599 663.02 97.7699 662.14 97.7699C661.26 97.7699 660.54 98.0599 659.88 98.6299C659.23 99.1999 658.73 100.03 658.39 101.12C658.04 102.22 657.87 103.51 657.87 105.01C657.87 106.51 658.04 107.78 658.39 108.87C658.73 109.96 659.23 110.79 659.88 111.37C660.54 111.94 661.29 112.22 662.14 112.22C662.99 112.22 663.79 111.94 664.44 111.37C665.09 110.79 665.6 109.96 665.96 108.87C666.23 108.04 666.4 107.1 666.47 106.04C666.49 105.71 666.5 105.36 666.5 105.01C666.5 104.53 666.48 104.08 666.44 103.64ZM663.61 107.48C663.48 108.15 663.29 108.65 663.05 108.97C662.81 109.29 662.51 109.45 662.14 109.45C661.82 109.45 661.53 109.29 661.29 108.97C661.05 108.65 660.87 108.15 660.74 107.48C660.62 106.82 660.56 105.99 660.56 105.01C660.56 104.03 660.62 103.18 660.74 102.52C660.87 101.86 661.05 101.37 661.29 101.05C661.53 100.73 661.82 100.56 662.14 100.56C662.51 100.56 662.81 100.73 663.05 101.05C663.29 101.37 663.48 101.86 663.61 102.52C663.75 103.18 663.81 104.01 663.81 105.01C663.81 106.01 663.75 106.82 663.61 107.48Z" fill="#25569D"/>
<path d="M691.22 96.3799V116.21H694.04V96.3799H691.22ZM687.04 96.8199V115.35H689.79V96.8199H687.04ZM683.46 103.95V106.28H687.59V103.95H683.46ZM677.78 98.7199V101.07H683.61V98.7199H677.78ZM682.71 98.7199V99.3099C682.71 99.9199 682.68 100.51 682.62 101.07C682.54 102.02 682.37 102.9 682.12 103.7C681.72 104.97 681.08 106.12 680.2 107.16C679.32 108.21 678.13 109.17 676.64 110.05L678.33 112.13C680.12 111.09 681.55 109.9 682.62 108.56C683.2 107.84 683.68 107.08 684.07 106.28C684.42 105.59 684.69 104.87 684.9 104.13C684.92 104.07 684.93 104.01 684.95 103.95C685.37 102.38 685.57 100.64 685.57 98.7199H682.71Z" fill="#25569D"/>
<path d="M715.47 96.3799V116.21H718.28V96.3799H715.47ZM713.18 104.44V106.79H716.37V104.44H713.18ZM711.31 96.7799V115.39H714.06V96.7799H711.31ZM704.53 96.9099V100.83H707.42V96.9099H704.53ZM709.75 104.83C709.37 104.11 708.85 103.55 708.2 103.14C707.54 102.73 706.8 102.52 705.96 102.52C705.12 102.52 704.4 102.73 703.73 103.14C703.06 103.55 702.54 104.11 702.17 104.83C701.79 105.55 701.61 106.36 701.61 107.27C701.61 108.18 701.79 109.02 702.17 109.74C702.54 110.46 703.06 111.01 703.73 111.41C704.4 111.81 705.14 112 705.96 112C706.78 112 707.54 111.81 708.2 111.41C708.85 111.01 709.37 110.46 709.75 109.74C710.13 109.02 710.32 108.2 710.32 107.27C710.32 106.34 710.13 105.55 709.75 104.83ZM707.5 108.51C707.36 108.84 707.15 109.1 706.89 109.29C706.62 109.47 706.32 109.56 705.99 109.56C705.63 109.56 705.33 109.47 705.06 109.29C704.8 109.1 704.59 108.84 704.45 108.51C704.3 108.17 704.23 107.76 704.23 107.27C704.23 106.78 704.3 106.38 704.45 106.03C704.59 105.69 704.79 105.42 705.05 105.24C705.31 105.06 705.61 104.96 705.96 104.96C706.31 104.96 706.6 105.06 706.88 105.24C707.15 105.42 707.36 105.69 707.5 106.03C707.65 106.38 707.72 106.79 707.72 107.27C707.72 107.75 707.65 108.17 707.5 108.51ZM701.19 99.3499V101.69H710.65V99.3499H701.19Z" fill="#25569D"/>
<path d="M739.23 102.2C738.3 101.78 737.62 101.29 737.18 100.73C736.88 100.34 736.69 99.9602 736.59 99.5702C736.54 99.3802 736.52 99.1902 736.52 99.0002V98.5202H733.9V99.0002C733.9 99.1902 733.91 99.3802 733.93 99.5702C734 100.22 734.18 100.84 734.48 101.42C734.56 101.6 734.66 101.77 734.77 101.94C735.35 102.84 736.22 103.6 737.38 104.2C738.54 104.81 739.95 105.21 741.62 105.4L742.68 103.05C741.3 102.9 740.15 102.62 739.23 102.2ZM733.26 107.74V111.87H736.21V107.74H733.26ZM727.57 113.57V115.92H741.49V113.57H727.57ZM727.57 110.2V114.36H730.51V110.2H727.57ZM727.13 97.2402V99.5702H741.84V97.2402H727.13ZM732.45 98.5202V99.0002C732.45 99.1902 732.43 99.3802 732.38 99.5702C732.28 99.9602 732.08 100.34 731.78 100.72C731.33 101.27 730.65 101.77 729.73 102.19C728.82 102.62 727.67 102.9 726.29 103.05L727.35 105.4C729.02 105.21 730.43 104.81 731.58 104.19C732.73 103.58 733.6 102.82 734.19 101.92C734.3 101.75 734.39 101.59 734.48 101.42C734.79 100.83 734.97 100.21 735.04 99.5702C735.06 99.3802 735.07 99.1902 735.07 99.0002V98.5202H732.45ZM725.52 106.24V108.59H743.45V106.24H725.52Z" fill="#25569D"/>
<path d="M763.47 96.4102V109.52H766.42V96.4102H763.47ZM760.17 101.62V104H763.89V101.62H760.17ZM763.9 112.75C762.97 112.22 762.28 111.61 761.83 110.9C761.38 110.2 761.16 109.47 761.16 108.73V108.09H758.65V108.73C758.65 109.94 758.94 111.07 759.51 112.1C759.57 112.21 759.64 112.32 759.71 112.43C760.27 113.32 761.05 114.08 762.06 114.71C763.19 115.41 764.56 115.9 766.15 116.16L767.32 113.85C765.97 113.65 764.83 113.28 763.9 112.75ZM758.26 108.09V108.73C758.26 109.49 758.03 110.22 757.57 110.93C757.12 111.63 756.44 112.25 755.53 112.77C754.62 113.3 753.47 113.66 752.1 113.85L753.24 116.18C754.84 115.92 756.2 115.43 757.33 114.72C758.34 114.08 759.14 113.32 759.71 112.43C759.77 112.33 759.84 112.22 759.9 112.11C760.47 111.09 760.76 109.96 760.76 108.73V108.09H758.26ZM751.06 97.8801V100.23H759.09V97.8801H751.06ZM756.91 97.8801V99.2001C756.91 99.5501 756.89 99.9002 756.83 100.23C756.66 101.5 756.14 102.61 755.28 103.57C754.18 104.78 752.43 105.73 750.03 106.44L751.26 108.75C753.25 108.13 754.9 107.32 756.19 106.32C757.48 105.31 758.44 104.11 759.08 102.72C759.72 101.33 760.04 99.7101 760.04 97.8801H756.91Z" fill="#25569D"/>
<path d="M782.52 96.3799V116.27H785.51V96.3799H782.52ZM779.34 101.09C778.9 100.02 778.28 99.1999 777.5 98.6199C776.71 98.0399 775.81 97.7499 774.8 97.7499C773.79 97.7499 772.89 98.0399 772.09 98.6199C771.3 99.1999 770.68 100.02 770.24 101.09C769.79 102.16 769.56 103.41 769.56 104.83C769.56 106.25 769.79 107.53 770.24 108.6C770.68 109.68 771.3 110.52 772.09 111.1C772.89 111.69 773.79 111.98 774.8 111.98C775.81 111.98 776.71 111.69 777.5 111.1C778.28 110.52 778.9 109.68 779.34 108.6C779.79 107.53 780.01 106.27 780.01 104.83C780.01 103.39 779.79 102.16 779.34 101.09ZM776.89 107.26C776.7 107.93 776.42 108.44 776.07 108.78C775.71 109.12 775.28 109.3 774.8 109.3C774.32 109.3 773.92 109.12 773.56 108.78C773.2 108.44 772.92 107.93 772.71 107.26C772.5 106.6 772.4 105.79 772.4 104.83C772.4 103.87 772.5 103.1 772.71 102.44C772.92 101.79 773.2 101.3 773.56 100.96C773.92 100.62 774.33 100.45 774.8 100.45C775.27 100.45 775.71 100.62 776.07 100.96C776.42 101.3 776.7 101.79 776.89 102.44C777.08 103.1 777.18 103.89 777.18 104.83C777.18 105.77 777.08 106.6 776.89 107.26Z" fill="#25569D"/>
<path d="M808.26 103.73V106.17H811.74V103.73H808.26ZM805.93 96.4297V116.25H808.9V96.4297H805.93ZM800.67 97.9697V102.72H796.87V97.9697H793.92V111.65H803.6V97.9697H800.67ZM800.67 109.3H796.87V105.03H800.67V109.3Z" fill="#25569D"/>
<path d="M820.03 107.96V112.62H822.98V107.96H820.03ZM814.6 106.44V108.79H828.94V106.44H814.6ZM814.58 97.6602V99.9902H825.58V102.02H814.6V107.58H817.52V104.33H828.52V97.6602H814.58ZM812.57 111.65V114.05H830.5V111.65H812.57Z" fill="#25569D"/>
<path d="M851.65 103.84V106.28H855.12V103.84H851.65ZM849.45 96.3799V116.21H852.42V96.3799H849.45ZM848.21 108.13C846.7 108.42 845.2 108.64 843.69 108.77C842.59 108.86 841.49 108.93 840.38 108.96C839.97 108.96 839.56 108.97 839.15 108.97H837.43V111.39H839.15C840.78 111.39 842.37 111.33 843.92 111.2C845.48 111.08 847.01 110.85 848.52 110.53L848.21 108.13ZM837.43 98.2799V110.6H840.38V98.2799H837.43Z" fill="#25569D"/>
<path d="M870.3 96.3799V116.21H873.1V96.3799H870.3ZM866.25 96.7099V115.33H869V96.7099H866.25ZM863.94 103.64V106.04H867.18V103.64H863.94ZM864.79 103.64C864.72 102.71 864.56 101.87 864.31 101.12C863.95 100.03 863.44 99.1999 862.79 98.6299C862.14 98.0599 861.37 97.7699 860.49 97.7699C859.61 97.7699 858.89 98.0599 858.23 98.6299C857.58 99.1999 857.08 100.03 856.74 101.12C856.39 102.22 856.22 103.51 856.22 105.01C856.22 106.51 856.39 107.78 856.74 108.87C857.08 109.96 857.58 110.79 858.23 111.37C858.89 111.94 859.64 112.22 860.49 112.22C861.34 112.22 862.14 111.94 862.79 111.37C863.44 110.79 863.95 109.96 864.31 108.87C864.58 108.04 864.75 107.1 864.82 106.04C864.84 105.71 864.85 105.36 864.85 105.01C864.85 104.53 864.83 104.08 864.79 103.64ZM861.96 107.48C861.83 108.15 861.64 108.65 861.4 108.97C861.16 109.29 860.86 109.45 860.49 109.45C860.17 109.45 859.88 109.29 859.64 108.97C859.4 108.65 859.22 108.15 859.09 107.48C858.97 106.82 858.91 105.99 858.91 105.01C858.91 104.03 858.97 103.18 859.09 102.52C859.22 101.86 859.4 101.37 859.64 101.05C859.88 100.73 860.17 100.56 860.49 100.56C860.86 100.56 861.16 100.73 861.4 101.05C861.64 101.37 861.83 101.86 861.96 102.52C862.1 103.18 862.16 104.01 862.16 105.01C862.16 106.01 862.1 106.82 861.96 107.48Z" fill="#25569D"/>
<path d="M889.57 96.3799V116.21H892.39V96.3799H889.57ZM885.39 96.8199V115.35H888.14V96.8199H885.39ZM881.81 103.95V106.28H885.94V103.95H881.81ZM876.13 98.7199V101.07H881.96V98.7199H876.13ZM881.06 98.7199V99.3099C881.06 99.9199 881.03 100.51 880.97 101.07C880.89 102.02 880.72 102.9 880.47 103.7C880.07 104.97 879.43 106.12 878.55 107.16C877.67 108.21 876.48 109.17 874.99 110.05L876.68 112.13C878.47 111.09 879.9 109.9 880.97 108.56C881.55 107.84 882.03 107.08 882.42 106.28C882.77 105.59 883.04 104.87 883.25 104.13C883.27 104.07 883.28 104.01 883.3 103.95C883.72 102.38 883.92 100.64 883.92 98.7199H881.06Z" fill="#25569D"/>
<path d="M913.82 96.3799V116.21H916.63V96.3799H913.82ZM911.53 104.44V106.79H914.72V104.44H911.53ZM909.66 96.7799V115.39H912.41V96.7799H909.66ZM902.88 96.9099V100.83H905.77V96.9099H902.88ZM908.1 104.83C907.72 104.11 907.2 103.55 906.55 103.14C905.89 102.73 905.15 102.52 904.31 102.52C903.47 102.52 902.75 102.73 902.08 103.14C901.41 103.55 900.89 104.11 900.52 104.83C900.14 105.55 899.96 106.36 899.96 107.27C899.96 108.18 900.14 109.02 900.52 109.74C900.89 110.46 901.41 111.01 902.08 111.41C902.75 111.81 903.49 112 904.31 112C905.13 112 905.89 111.81 906.55 111.41C907.2 111.01 907.72 110.46 908.1 109.74C908.48 109.02 908.67 108.2 908.67 107.27C908.67 106.34 908.48 105.55 908.1 104.83ZM905.85 108.51C905.71 108.84 905.5 109.1 905.24 109.29C904.97 109.47 904.67 109.56 904.34 109.56C903.98 109.56 903.68 109.47 903.41 109.29C903.15 109.1 902.94 108.84 902.8 108.51C902.65 108.17 902.58 107.76 902.58 107.27C902.58 106.78 902.65 106.38 902.8 106.03C902.94 105.69 903.14 105.42 903.4 105.24C903.66 105.06 903.96 104.96 904.31 104.96C904.66 104.96 904.95 105.06 905.23 105.24C905.5 105.42 905.71 105.69 905.85 106.03C906 106.38 906.07 106.79 906.07 107.27C906.07 107.75 906 108.17 905.85 108.51ZM899.54 99.3499V101.69H909V99.3499H899.54Z" fill="#25569D"/>
<path d="M937.58 102.2C936.65 101.78 935.97 101.29 935.53 100.73C935.23 100.34 935.04 99.9602 934.94 99.5702C934.89 99.3802 934.87 99.1902 934.87 99.0002V98.5202H932.25V99.0002C932.25 99.1902 932.26 99.3802 932.28 99.5702C932.35 100.22 932.53 100.84 932.83 101.42C932.91 101.6 933.01 101.77 933.12 101.94C933.7 102.84 934.57 103.6 935.73 104.2C936.89 104.81 938.3 105.21 939.98 105.4L941.03 103.05C939.65 102.9 938.5 102.62 937.58 102.2ZM931.61 107.74V111.87H934.56V107.74H931.61ZM925.92 113.57V115.92H939.84V113.57H925.92ZM925.92 110.2V114.36H928.86V110.2H925.92ZM925.48 97.2402V99.5702H940.19V97.2402H925.48ZM930.8 98.5202V99.0002C930.8 99.1902 930.78 99.3802 930.73 99.5702C930.63 99.9602 930.43 100.34 930.13 100.72C929.68 101.27 929 101.77 928.08 102.19C927.17 102.62 926.02 102.9 924.64 103.05L925.7 105.4C927.37 105.21 928.78 104.81 929.93 104.19C931.08 103.58 931.95 102.82 932.54 101.92C932.65 101.75 932.74 101.59 932.83 101.42C933.14 100.83 933.32 100.21 933.39 99.5702C933.41 99.3802 933.42 99.1902 933.42 99.0002V98.5202H930.8ZM923.87 106.24V108.59H941.8V106.24H923.87Z" fill="#25569D"/>
<path d="M961.82 96.4102V109.52H964.77V96.4102H961.82ZM958.52 101.62V104H962.24V101.62H958.52ZM962.25 112.75C961.32 112.22 960.63 111.61 960.18 110.9C959.73 110.2 959.51 109.47 959.51 108.73V108.09H957V108.73C957 109.94 957.29 111.07 957.86 112.1C957.92 112.21 957.99 112.32 958.06 112.43C958.62 113.32 959.4 114.08 960.41 114.71C961.54 115.41 962.91 115.9 964.5 116.16L965.67 113.85C964.32 113.65 963.18 113.28 962.25 112.75ZM956.61 108.09V108.73C956.61 109.49 956.38 110.22 955.92 110.93C955.47 111.63 954.79 112.25 953.88 112.77C952.97 113.3 951.82 113.66 950.45 113.85L951.59 116.18C953.19 115.92 954.55 115.43 955.68 114.72C956.69 114.08 957.49 113.32 958.06 112.43C958.12 112.33 958.19 112.22 958.25 112.11C958.82 111.09 959.11 109.96 959.11 108.73V108.09H956.61ZM949.41 97.8801V100.23H957.44V97.8801H949.41ZM955.26 97.8801V99.2001C955.26 99.5501 955.24 99.9002 955.18 100.23C955.01 101.5 954.49 102.61 953.63 103.57C952.53 104.78 950.78 105.73 948.38 106.44L949.61 108.75C951.6 108.13 953.25 107.32 954.54 106.32C955.83 105.31 956.79 104.11 957.43 102.72C958.07 101.33 958.39 99.7101 958.39 97.8801H955.26Z" fill="#25569D"/>
<path d="M980.87 96.3799V116.27H983.86V96.3799H980.87ZM977.69 101.09C977.25 100.02 976.63 99.1999 975.85 98.6199C975.06 98.0399 974.16 97.7499 973.15 97.7499C972.14 97.7499 971.24 98.0399 970.44 98.6199C969.65 99.1999 969.03 100.02 968.59 101.09C968.14 102.16 967.91 103.41 967.91 104.83C967.91 106.25 968.14 107.53 968.59 108.6C969.03 109.68 969.65 110.52 970.44 111.1C971.24 111.69 972.14 111.98 973.15 111.98C974.16 111.98 975.06 111.69 975.85 111.1C976.63 110.52 977.25 109.68 977.69 108.6C978.14 107.53 978.36 106.27 978.36 104.83C978.36 103.39 978.14 102.16 977.69 101.09ZM975.24 107.26C975.05 107.93 974.77 108.44 974.42 108.78C974.06 109.12 973.63 109.3 973.15 109.3C972.67 109.3 972.27 109.12 971.91 108.78C971.55 108.44 971.27 107.93 971.06 107.26C970.85 106.6 970.75 105.79 970.75 104.83C970.75 103.87 970.85 103.1 971.06 102.44C971.27 101.79 971.55 101.3 971.91 100.96C972.27 100.62 972.68 100.45 973.15 100.45C973.62 100.45 974.06 100.62 974.42 100.96C974.77 101.3 975.05 101.79 975.24 102.44C975.43 103.1 975.53 103.89 975.53 104.83C975.53 105.77 975.43 106.6 975.24 107.26Z" fill="#25569D"/>
<path d="M1001.55 103.67V106.09H1005.03V103.67H1001.55ZM999.22 96.3799V116.27H1002.19V96.3799H999.22ZM997.92 108.44C996.56 108.69 995.2 108.86 993.85 108.95C992.82 109.01 991.65 109.05 990.33 109.07C989.92 109.07 989.5 109.07 989.06 109.07H987.38V111.51H989.06C991.01 111.51 992.67 111.47 994.05 111.39C995.43 111.31 996.81 111.14 998.19 110.87L997.92 108.43V108.44ZM987.38 98.2299V110.27H990.33V100.59H996.62V98.2299H987.38Z" fill="#25569D"/>
<path d="M753.15 152.271V153.271H758.28V152.271H753.15Z" fill="#25569D"/>
<path d="M770.22 151.72V152.6H772.16V151.72H770.22ZM769.41 147.55V158.11H770.46V147.55H769.41ZM762.73 148.59V155.44H767.6V148.59H762.73ZM766.58 154.6H763.75V149.42H766.58V154.6Z" fill="#25569D"/>
<path d="M780.78 147.53V158.09H781.79V147.53H780.78ZM778.65 147.77V157.57H779.62V147.77H778.65ZM778.81 151.52V152.37H780.78V151.52H778.81ZM773.88 151.66V152.47H776.61V151.66H773.88ZM777.6 154.48C777.04 154.59 776.49 154.67 775.95 154.7C775.48 154.74 774.89 154.75 774.17 154.76H773.18V155.6H773.87C774.76 155.6 775.48 155.58 776.02 155.54C776.57 155.51 777.12 155.43 777.68 155.32L777.6 154.48ZM773.18 148.79V155.03H774.17V149.62H777.08V148.79H773.18Z" fill="#25569D"/>
<path d="M786.31 156.33L786.44 157.22H791.72V156.33H786.31ZM791.24 149.74C791.02 149.32 790.7 149 790.3 148.77C789.89 148.54 789.43 148.42 788.91 148.42C788.36 148.42 787.83 148.59 787.33 148.93C786.83 149.26 786.46 149.69 786.24 150.22L787.14 150.61C787.3 150.23 787.55 149.92 787.89 149.68C788.22 149.44 788.56 149.32 788.91 149.32C789.24 149.32 789.53 149.4 789.78 149.56C790.02 149.71 790.22 149.93 790.36 150.2C790.5 150.48 790.57 150.8 790.57 151.16C790.57 151.54 790.42 151.96 790.12 152.41C789.83 152.86 789.47 153.31 789.04 153.74C788.62 154.18 788.06 154.72 787.37 155.36C787.15 155.55 786.97 155.71 786.83 155.84C786.69 155.97 786.52 156.13 786.31 156.33L787.02 156.97C787.23 156.76 787.45 156.55 787.69 156.33C787.81 156.22 787.93 156.11 788.06 155.99C788.8 155.33 789.41 154.76 789.87 154.29C790.34 153.82 790.74 153.31 791.07 152.76C791.41 152.21 791.58 151.68 791.58 151.16C791.58 150.64 791.46 150.15 791.24 149.74Z" fill="#25569D"/>
<path d="M793.66 148.511L793.39 153.031L794.38 153.171L794.46 151.901L794.62 149.391H798.1V148.511H793.66ZM798.43 152.911C798.18 152.481 797.83 152.141 797.38 151.901C796.93 151.651 796.41 151.531 795.84 151.531C795.45 151.531 795.05 151.621 794.64 151.811C794.58 151.841 794.52 151.871 794.46 151.901C794.13 152.071 793.86 152.281 793.64 152.531L794.38 153.171C794.56 152.971 794.78 152.801 795.06 152.661C795.33 152.531 795.59 152.471 795.84 152.471C796.21 152.471 796.55 152.551 796.85 152.711C797.15 152.881 797.39 153.101 797.56 153.401C797.73 153.691 797.82 154.021 797.82 154.401C797.82 154.781 797.73 155.111 797.56 155.421C797.39 155.721 797.15 155.961 796.85 156.131C796.55 156.291 796.21 156.381 795.84 156.381C795.39 156.381 794.99 156.241 794.64 155.961C794.29 155.691 794.07 155.331 793.98 154.891L793 155.121C793.1 155.541 793.29 155.921 793.56 156.261C793.84 156.591 794.17 156.861 794.57 157.041C794.97 157.231 795.39 157.331 795.84 157.331C796.42 157.331 796.94 157.201 797.39 156.951C797.84 156.701 798.19 156.351 798.44 155.911C798.69 155.471 798.81 154.971 798.81 154.401C798.81 153.831 798.69 153.341 798.43 152.911Z" fill="#25569D"/>
<path d="M807.84 150.2V151.05H809.67V150.2H807.84ZM807.08 147.55V153.89H808.12V147.55H807.08ZM804.71 151.89C804.33 151.57 804.04 151.21 803.83 150.8C803.63 150.39 803.53 149.96 803.53 149.5V148.67H802.69V149.5C802.69 150.09 802.8 150.65 803.03 151.18C803.26 151.71 803.59 152.17 804.03 152.55C804.46 152.93 804.98 153.22 805.57 153.41L806.07 152.61C805.54 152.45 805.09 152.21 804.71 151.89ZM807.82 155.06C807.54 154.77 807.14 154.55 806.62 154.4C806.09 154.25 805.48 154.17 804.76 154.17C804.04 154.17 803.42 154.25 802.9 154.4C802.37 154.55 801.97 154.77 801.69 155.06C801.41 155.36 801.27 155.71 801.27 156.11C801.27 156.51 801.41 156.87 801.69 157.17C801.97 157.47 802.37 157.69 802.9 157.85C803.42 158 804.04 158.08 804.75 158.08C805.83 158.08 806.68 157.91 807.3 157.56C807.92 157.21 808.23 156.73 808.23 156.11C808.23 155.71 808.09 155.36 807.82 155.06ZM806.56 156.97C806.12 157.17 805.52 157.28 804.75 157.28C803.98 157.28 803.38 157.17 802.94 156.97C802.5 156.76 802.28 156.47 802.28 156.11C802.28 155.88 802.38 155.68 802.58 155.51C802.78 155.34 803.07 155.21 803.44 155.12C803.81 155.03 804.25 154.99 804.75 154.99C805.25 154.99 805.71 155.03 806.08 155.12C806.45 155.21 806.73 155.34 806.92 155.51C807.12 155.68 807.21 155.88 807.21 156.11C807.21 156.47 806.99 156.76 806.56 156.97ZM800.17 148.31V149.17H805.83V148.31H800.17ZM802.5 148.67V149.51C802.5 150.01 802.39 150.48 802.17 150.93C801.96 151.38 801.65 151.78 801.25 152.12C800.86 152.47 800.39 152.74 799.86 152.93L800.4 153.75C800.99 153.53 801.51 153.22 801.95 152.8C802.39 152.38 802.74 151.88 802.98 151.32C803 151.27 803.02 151.23 803.03 151.18C803.25 150.66 803.35 150.1 803.35 149.51V148.67H802.5Z" fill="#25569D"/>
<path d="M818.24 153.951V148.521H817.28L813.34 153.941L813.46 154.831H817.24V157.211H818.24V154.831H819.48V153.951H818.24ZM817.24 153.951H814.56L817.24 150.23V153.951Z" fill="#25569D"/>
<path d="M826.61 150.58C826.34 149.91 825.97 149.39 825.49 149.01C825.02 148.63 824.48 148.45 823.87 148.45C823.26 148.45 822.72 148.63 822.24 149.01C821.77 149.39 821.39 149.91 821.13 150.58C820.86 151.25 820.72 152.01 820.72 152.86C820.72 153.71 820.86 154.48 821.13 155.15C821.39 155.83 821.77 156.35 822.24 156.73C822.72 157.1 823.26 157.29 823.87 157.29C824.48 157.29 825.02 157.1 825.49 156.72C825.97 156.34 826.34 155.82 826.61 155.15C826.88 154.48 827.01 153.72 827.01 152.86C827.01 152 826.88 151.25 826.61 150.58ZM825.75 154.69C825.57 155.22 825.31 155.64 824.98 155.95C824.66 156.25 824.28 156.4 823.87 156.4C823.46 156.4 823.08 156.25 822.76 155.95C822.43 155.64 822.18 155.22 822 154.69C821.81 154.16 821.72 153.55 821.72 152.85C821.72 152.15 821.81 151.56 822 151.03C822.18 150.49 822.43 150.07 822.76 149.77C823.08 149.47 823.45 149.32 823.87 149.32C824.29 149.32 824.66 149.47 824.98 149.77C825.31 150.07 825.57 150.49 825.75 151.03C825.93 151.56 826.02 152.17 826.02 152.86C826.02 153.55 825.93 154.16 825.75 154.69Z" fill="#25569D"/>
<path d="M835.77 147.55V152.97H836.8V147.55H835.77ZM833.76 149.87V150.7H836.46V149.87H833.76ZM833 151.37C832.62 151.07 832.32 150.72 832.11 150.34C831.89 149.95 831.79 149.55 831.79 149.14V148.45H830.95V149.14C830.95 149.67 831.06 150.17 831.27 150.66C831.28 150.68 831.29 150.71 831.3 150.73C831.54 151.23 831.87 151.67 832.3 152.04C832.74 152.41 833.24 152.69 833.83 152.87L834.32 152.06C833.82 151.91 833.38 151.68 833 151.37ZM830.01 157.16V157.99H837.2V157.16H830.01ZM829.99 153.5V154.33H835.78V155.3H830.01V157.67H831.04V156.07H836.8V153.5H829.99ZM828.44 148.06V148.91H834.08V148.06H828.44ZM830.74 148.45V149.13C830.74 149.57 830.64 150 830.42 150.42C830.2 150.84 829.9 151.22 829.5 151.55C829.1 151.88 828.64 152.13 828.13 152.31L828.64 153.1C829.23 152.92 829.74 152.62 830.19 152.22C830.63 151.82 830.98 151.34 831.22 150.8C831.24 150.75 831.26 150.71 831.27 150.66C831.49 150.17 831.6 149.66 831.6 149.13V148.45H830.74Z" fill="#25569D"/>
<path d="M841.72 152.271V153.271H846.85V152.271H841.72Z" fill="#25569D"/>
</g>
<defs>
<linearGradient id="paint0_linear_2076_26269" x1="2.49" y1="152.18" x2="1599.74" y2="67.7" gradientUnits="userSpaceOnUse">
<stop stop-color="#E9D9D3"/>
<stop offset="0.01" stop-color="#E6D9D6"/>
<stop offset="0.1" stop-color="#D7DCE4"/>
<stop offset="0.18" stop-color="#D3DDEA"/>
<stop offset="0.57" stop-color="#D5DCE7"/>
<stop offset="0.82" stop-color="#DEDADE"/>
<stop offset="1" stop-color="#E9D9D3"/>
</linearGradient>
<clipPath id="clip0_2076_26269">
<rect width="1600" height="220" fill="white"/>
</clipPath>
</defs>
</svg>
