<svg width="1340" height="188" viewBox="0 0 1340 188" fill="none" xmlns="http://www.w3.org/2000/svg">
<g clip-path="url(#clip0_1966_77071)">
<path d="M1340 0H0V188H1340V0Z" fill="url(#paint0_linear_1966_77071)"/>
<path d="M1031.6 57.0195H308.4C289.363 57.0195 273.93 72.4523 273.93 91.4895C273.93 110.527 289.363 125.96 308.4 125.96H1031.6C1050.64 125.96 1066.07 110.527 1066.07 91.4895C1066.07 72.4523 1050.64 57.0195 1031.6 57.0195Z" fill="white"/>
<path d="M379.56 80.1297V83.0697H364.59V80.1297H379.56ZM375.36 84.5597C376.33 84.9697 377.08 85.5497 377.61 86.2997C378.14 87.0497 378.4 87.9197 378.4 88.8997C378.4 89.8797 378.14 90.7197 377.61 91.4797C377.08 92.2297 376.33 92.8097 375.36 93.2197C374.39 93.6297 373.3 93.8297 372.09 93.8297C370.88 93.8297 369.8 93.6297 368.85 93.2197C367.9 92.8097 367.16 92.2297 366.63 91.4797C366.1 90.7297 365.84 89.8697 365.84 88.8997C365.84 87.9297 366.1 87.0497 366.63 86.2997C367.16 85.5497 367.9 84.9697 368.85 84.5597C369.8 84.1497 370.88 83.9497 372.09 83.9497C373.3 83.9497 374.39 84.1497 375.36 84.5597ZM372.01 95.1297V100.82H368.19V95.1297H372.01ZM385.59 99.5497V102.58H368.19V99.5497H385.59ZM370.18 87.3797C369.7 87.7397 369.46 88.2497 369.46 88.9097C369.46 89.5297 369.7 90.0197 370.18 90.3797C370.66 90.7397 371.3 90.9197 372.09 90.9197C372.88 90.9197 373.54 90.7397 374.01 90.3797C374.48 90.0197 374.72 89.5297 374.72 88.9097C374.72 88.2497 374.48 87.7397 374.01 87.3797C373.54 87.0197 372.9 86.8397 372.09 86.8397C371.28 86.8397 370.66 87.0197 370.18 87.3797ZM373.99 77.4697V81.5397H370.2V77.4697H373.99ZM384.69 77.4997V96.5697H380.87V77.4997H384.69ZM388.05 85.2297V88.3397H383.64V85.2297H388.05Z" fill="#25569D"/>
<path d="M398.18 78.6593V81.0393C398.18 82.7193 397.92 84.2793 397.4 85.7193C396.88 87.1593 396.09 88.4193 395.04 89.4793C393.98 90.5493 392.66 91.3193 391.08 91.8093L389.1 88.8393C390.48 88.4093 391.61 87.7893 392.5 86.9893C393.39 86.1893 394.04 85.2793 394.47 84.2693C394.9 83.2593 395.11 82.1793 395.11 81.0293V78.6493H398.19L398.18 78.6593ZM410.66 93.1193V102.709H393.63V93.1193H410.66ZM398.92 78.6593V81.2593C398.92 82.3193 399.12 83.3093 399.51 84.2493C399.91 85.1793 400.53 86.0193 401.38 86.7493C402.23 87.4793 403.29 88.0493 404.58 88.4493L402.63 91.3593C401.1 90.8893 399.83 90.1493 398.82 89.1493C397.81 88.1493 397.07 86.9793 396.58 85.6393C396.1 84.2993 395.86 82.8393 395.86 81.2493V78.6493H398.92V78.6593ZM397.36 96.0693V99.7493H406.95V96.0693H397.36ZM407.41 81.8893V84.9493H402.29V81.8893H407.41ZM410.66 77.5293V92.0493H406.87V77.5293H410.66Z" fill="#25569D"/>
<path d="M422.7 80.3597C423.54 81.0997 424.19 82.1697 424.65 83.5697C425.11 84.9797 425.34 86.6397 425.34 88.5597C425.34 90.4797 425.11 92.1197 424.65 93.5297C424.19 94.9397 423.54 96.0097 422.7 96.7397C421.86 97.4797 420.87 97.8397 419.74 97.8397C418.61 97.8397 417.68 97.4697 416.84 96.7397C416 95.9997 415.36 94.9297 414.92 93.5297C414.48 92.1297 414.25 90.4697 414.25 88.5597C414.25 86.6497 414.47 84.9697 414.92 83.5697C415.36 82.1597 416 81.0897 416.84 80.3597C417.68 79.6197 418.65 79.2597 419.74 79.2597C420.83 79.2597 421.86 79.6297 422.7 80.3597ZM418.66 83.4697C418.35 83.8897 418.11 84.5197 417.95 85.3697C417.79 86.2197 417.71 87.2897 417.71 88.5697C417.71 89.8497 417.79 90.8997 417.95 91.7497C418.11 92.6097 418.35 93.2497 418.66 93.6597C418.97 94.0697 419.34 94.2797 419.75 94.2797C420.22 94.2797 420.61 94.0697 420.92 93.6597C421.23 93.2497 421.47 92.6097 421.64 91.7497C421.81 90.8897 421.89 89.8297 421.89 88.5697C421.89 87.3097 421.81 86.2197 421.64 85.3697C421.47 84.5197 421.23 83.8897 420.92 83.4697C420.61 83.0597 420.22 82.8497 419.75 82.8497C419.34 82.8497 418.97 83.0597 418.66 83.4697ZM428.35 86.8097V89.8897H424.19V86.8097H428.35ZM430.7 77.8997V101.84H427.16V77.8997H430.7ZM435.96 77.4697V102.97H432.37V77.4697H435.96Z" fill="#25569D"/>
<path d="M461.88 80.4497V83.5097H456.25V95.7097H452.51V80.4597H461.88V80.4497ZM458.91 94.0397C460.25 93.9597 461.62 93.7897 463.01 93.5497L463.32 96.6297C461.87 96.8897 460.45 97.0697 459.08 97.1697C457.7 97.2597 456.11 97.3097 454.3 97.3097H452.52V94.1697H454.3C456.04 94.1697 457.57 94.1297 458.91 94.0397ZM467.93 77.9297V101.78H464.42V77.9297H467.93ZM470.96 87.2397V90.3197H466.8V87.2397H470.96ZM473.71 77.4697V102.97H470.12V77.4697H473.71Z" fill="#25569D"/>
<path d="M488.65 81.2997V84.2997H476.48V81.2997H488.65ZM485.49 86.1597C486.33 86.6897 486.99 87.4097 487.48 88.3397C487.97 89.2597 488.22 90.3097 488.22 91.4797C488.22 92.6497 487.97 93.7197 487.48 94.6497C486.99 95.5697 486.32 96.2897 485.49 96.7997C484.65 97.3097 483.69 97.5597 482.62 97.5597C481.55 97.5597 480.61 97.2997 479.75 96.7997C478.89 96.2897 478.22 95.5697 477.74 94.6497C477.26 93.7297 477.02 92.6697 477.02 91.4797C477.02 90.2897 477.26 89.2597 477.74 88.3397C478.22 87.4197 478.89 86.6897 479.75 86.1597C480.61 85.6297 481.56 85.3697 482.62 85.3697C483.68 85.3697 484.65 85.6297 485.49 86.1597ZM481.45 88.8597C481.12 89.0997 480.86 89.4397 480.67 89.8797C480.48 90.3197 480.39 90.8597 480.39 91.4797C480.39 92.0997 480.48 92.6297 480.67 93.0597C480.86 93.4897 481.12 93.8297 481.46 94.0597C481.8 94.2897 482.2 94.4097 482.65 94.4097C483.1 94.4097 483.47 94.2897 483.81 94.0597C484.15 93.8297 484.41 93.4897 484.6 93.0597C484.79 92.6297 484.88 92.0997 484.88 91.4797C484.88 90.8597 484.79 90.3197 484.6 89.8797C484.41 89.4397 484.14 89.0997 483.79 88.8597C483.44 88.6197 483.05 88.5097 482.62 88.5097C482.19 88.5097 481.78 88.6297 481.45 88.8597ZM484.49 78.1497V83.1897H480.78V78.1497H484.49ZM493.03 77.9797V101.92H489.49V77.9797H493.03ZM496.01 87.8297V90.8597H491.91V87.8297H496.01ZM498.47 77.4697V102.97H494.85V77.4697H498.47Z" fill="#25569D"/>
<path d="M520.51 79.7397V82.7697H512.76V94.9897H509V79.7397H520.52H520.51ZM517.06 93.6697C518.64 93.5697 520.21 93.3697 521.76 93.0897L522.13 96.1497C520.51 96.4697 518.88 96.6797 517.25 96.7897C515.62 96.8897 513.55 96.9497 511.04 96.9497H509V93.8397H511.04C513.47 93.8397 515.48 93.7897 517.07 93.6797L517.06 93.6697ZM527.02 86.2497V89.3297H519.32V86.2497H527.02ZM529.2 77.4697V103.08H525.44V77.4697H529.2Z" fill="#25569D"/>
<path d="M562.11 87.2094V90.2094H539.05V87.2094H562.11ZM557.11 94.4494C558.7 95.3194 559.5 96.5294 559.5 98.0994C559.5 99.6694 558.7 100.849 557.11 101.719C555.52 102.589 553.32 103.019 550.53 103.019C547.74 103.019 545.55 102.589 543.97 101.719C542.39 100.849 541.59 99.6395 541.59 98.0994C541.59 96.5594 542.38 95.3194 543.97 94.4494C545.55 93.5794 547.74 93.1495 550.53 93.1495C553.32 93.1495 555.51 93.5794 557.11 94.4494ZM557.95 78.4395V81.4395H541.88V78.4395H557.95ZM546.66 96.6294C545.81 96.9494 545.39 97.4394 545.39 98.0994C545.39 98.7594 545.82 99.2494 546.66 99.5594C547.51 99.8694 548.8 100.029 550.54 100.029C552.28 100.029 553.57 99.8794 554.43 99.5594C555.29 99.2494 555.72 98.7594 555.72 98.0994C555.72 97.4394 555.29 96.9494 554.43 96.6294C553.57 96.3094 552.27 96.1495 550.54 96.1495C548.81 96.1495 547.51 96.3094 546.66 96.6294ZM552.43 89.2694V94.3295H548.64V89.2694H552.43ZM559.42 78.4395V80.4494C559.42 81.9794 559.38 83.3394 559.29 84.5194C559.2 85.6994 558.99 87.0395 558.65 88.5095L554.91 88.1694C555.27 86.7194 555.49 85.4294 555.56 84.3094C555.64 83.1894 555.67 81.8994 555.67 80.4494V78.4395H559.41H559.42Z" fill="#25569D"/>
<path d="M586.84 87.7494V90.8094H563.78V87.7494H586.84ZM584.01 93.3494V102.739H566.47V93.3494H584.01ZM582.68 78.6094V81.6694H566.61V78.6094H582.68ZM570.17 96.3194V99.7394H580.33V96.3194H570.17ZM584.15 78.6094V80.6794C584.15 82.1894 584.11 83.5094 584.04 84.6394C583.96 85.7694 583.76 87.0694 583.42 88.5494L579.66 88.4894C580 87.0194 580.21 85.7194 580.3 84.5894C580.38 83.4594 580.43 82.1594 580.43 80.6794V78.6094H584.17H584.15Z" fill="#25569D"/>
<path d="M603.19 81.2393V84.2393H588.36V81.2393H603.19ZM599.16 86.4193C600.17 86.9493 600.95 87.6693 601.51 88.5993C602.07 89.5193 602.34 90.5693 602.34 91.7393C602.34 92.9093 602.06 93.9593 601.49 94.8793C600.92 95.7993 600.14 96.5293 599.14 97.0393C598.14 97.5593 597.04 97.8193 595.83 97.8193C594.62 97.8193 593.47 97.5593 592.48 97.0393C591.49 96.5193 590.72 95.7993 590.16 94.8593C589.6 93.9293 589.33 92.8793 589.33 91.7293C589.33 90.5793 589.61 89.5393 590.16 88.5993C590.72 87.6693 591.49 86.9393 592.48 86.4093C593.47 85.8793 594.58 85.6193 595.8 85.6193C597.02 85.6193 598.14 85.8793 599.15 86.4093L599.16 86.4193ZM594.33 89.0593C593.9 89.3093 593.56 89.6593 593.33 90.1093C593.09 90.5493 592.98 91.0993 592.98 91.7393C592.98 92.3793 593.1 92.8993 593.33 93.3393C593.56 93.7793 593.9 94.1293 594.33 94.3693C594.76 94.6093 595.25 94.7393 595.8 94.7393C596.35 94.7393 596.84 94.6193 597.27 94.3693C597.7 94.1193 598.04 93.7793 598.29 93.3393C598.54 92.8993 598.66 92.3593 598.66 91.7393C598.66 91.1193 598.54 90.5593 598.29 90.1093C598.05 89.6693 597.71 89.3193 597.27 89.0593C596.83 88.7993 596.35 88.6793 595.8 88.6793C595.25 88.6793 594.76 88.8093 594.33 89.0593ZM597.73 77.9593V82.3693H593.88V77.9593H597.73ZM608.51 77.5293V103.029H604.72V77.5293H608.51ZM612.16 87.3793V90.5193H607.69V87.3793H612.16Z" fill="#25569D"/>
<path d="M622.43 79.4597V83.0797C622.43 85.3597 622.17 87.4897 621.65 89.4497C621.13 91.4097 620.32 93.1397 619.23 94.6297C618.14 96.1197 616.76 97.2497 615.1 98.0297L612.84 94.8897C614.29 94.2697 615.5 93.3497 616.48 92.1397C617.45 90.9297 618.17 89.5497 618.65 87.9897C619.12 86.4297 619.36 84.7997 619.36 83.0797V79.4597H622.44H622.43ZM623.17 79.4597V83.0797C623.17 84.7197 623.4 86.2797 623.85 87.7597C624.3 89.2397 625 90.5597 625.94 91.7097C626.88 92.8597 628.06 93.7397 629.48 94.3397L627.24 97.4297C625.64 96.6897 624.3 95.6097 623.22 94.1797C622.14 92.7497 621.35 91.0897 620.84 89.1997C620.33 87.3097 620.08 85.2797 620.08 83.0897V79.4697H623.16L623.17 79.4597ZM634.37 77.4697V103.05H630.55V77.4697H634.37Z" fill="#25569D"/>
<path d="M650.81 79.8497V82.8797H642.72V95.3297H638.93V79.8497H650.81ZM647.25 93.6297C648.98 93.5197 650.73 93.2997 652.48 92.9797L652.82 96.1197C651.05 96.4597 649.27 96.6797 647.5 96.7897C645.73 96.8897 643.58 96.9497 641.08 96.9497H638.93V93.8097H641.08C643.46 93.8097 645.51 93.7497 647.25 93.6397V93.6297ZM657.97 77.4697V103.05H654.15V77.4697H657.97ZM661.62 86.8397V89.9497H657.15V86.8397H661.62Z" fill="#25569D"/>
<path d="M675.8 79.51V92.05H663.72V79.51H675.8ZM670.93 94.28V101.13H667.11V94.28H670.93ZM684.57 99.55V102.58H667.11V99.55H684.57ZM667.43 82.51V89.07H672.1V82.51H667.43ZM681.32 81.46V84.46H674.98V81.46H681.32ZM681.43 86.93V89.96H674.98V86.93H681.43ZM684.03 77.5V96.06H680.24V77.5H684.03Z" fill="#25569D"/>
<path d="M690.15 105.039H687.41L688.66 97.6494H692.34L690.16 105.039H690.15Z" fill="#25569D"/>
<path d="M723.57 100.93H719.66L717.65 95.4098H709.47L707.38 100.93H703.48L711.37 79.7598H715.81L723.56 100.93H723.57ZM716.46 92.2498L713.6 84.3598L710.63 92.2498H716.46Z" fill="#25569D"/>
<path d="M731.63 100.609C730.89 100.319 730.24 99.7995 729.68 99.0695L729.74 98.8695V100.989H726.06V80.4795H729.74V89.4195L729.68 89.1695C730.23 88.3795 730.86 87.8495 731.59 87.5695C732.32 87.2995 732.97 87.1595 733.56 87.1595C734.82 87.1595 735.94 87.4595 736.91 88.0495C737.88 88.6395 738.64 89.4695 739.17 90.5295C739.7 91.5895 739.98 92.7895 739.98 94.1495C739.98 95.5095 739.71 96.6795 739.17 97.7295C738.63 98.7795 737.87 99.5895 736.89 100.179C735.91 100.769 734.79 101.059 733.52 101.059C732.99 101.059 732.36 100.909 731.62 100.619L731.63 100.609ZM734.81 97.5895C735.29 97.2695 735.66 96.8195 735.91 96.2295C736.16 95.6495 736.29 94.9695 736.29 94.1895C736.29 93.4095 736.16 92.6795 735.91 92.0995C735.66 91.5195 735.29 91.0695 734.81 90.7595C734.33 90.4495 733.77 90.2895 733.13 90.2895C732.49 90.2895 731.94 90.4595 731.42 90.7995C730.9 91.1395 730.49 91.6095 730.19 92.2195C729.89 92.8195 729.74 93.4795 729.74 94.1995C729.74 94.9195 729.89 95.5695 730.19 96.1695C730.49 96.7595 730.9 97.2295 731.42 97.5695C731.94 97.9095 732.51 98.0795 733.13 98.0795C733.75 98.0795 734.33 97.9195 734.81 97.5995V97.5895Z" fill="#25569D"/>
<path d="M752.74 88.0294C753.76 88.6294 754.55 89.4494 755.12 90.4894C755.69 91.5294 755.97 92.7294 755.97 94.0794C755.97 95.4294 755.69 96.6194 755.12 97.6694C754.55 98.7294 753.76 99.5494 752.74 100.149C751.72 100.739 750.56 101.039 749.26 101.039C747.96 101.039 746.8 100.749 745.78 100.159C744.76 99.5694 743.96 98.7494 743.39 97.6794C742.81 96.6094 742.53 95.4194 742.53 94.0994C742.53 92.7794 742.81 91.5194 743.38 90.4794C743.95 89.4394 744.74 88.6194 745.77 88.0194C746.8 87.4194 747.96 87.1094 749.26 87.1094C750.56 87.1094 751.72 87.4094 752.74 88.0194V88.0294ZM750.86 97.4894C751.32 97.1794 751.68 96.7294 751.92 96.1494C752.16 95.5694 752.29 94.8894 752.29 94.1094C752.29 93.3294 752.17 92.6294 751.92 92.0394C751.67 91.4594 751.32 90.9994 750.86 90.6794C750.4 90.3594 749.86 90.1994 749.26 90.1994C748.66 90.1994 748.09 90.3594 747.63 90.6794C747.17 90.9994 746.81 91.4494 746.57 92.0394C746.32 92.6294 746.2 93.3094 746.2 94.1094C746.2 94.9094 746.32 95.5594 746.57 96.1494C746.81 96.7394 747.17 97.1794 747.63 97.4894C748.09 97.7994 748.63 97.9594 749.26 97.9594C749.89 97.9594 750.4 97.8094 750.86 97.4894Z" fill="#25569D"/>
<path d="M763.58 97.1697C764.09 97.6997 764.79 97.9597 765.67 97.9597C766.24 97.9597 766.73 97.8297 767.17 97.5797C767.61 97.3297 767.94 96.9597 768.17 96.4797C768.4 95.9997 768.51 95.4297 768.5 94.7697V87.1897H772.15V101H768.5V98.5897L768.9 98.6697C768.56 99.4397 768.01 100.03 767.26 100.42C766.51 100.82 765.71 101.01 764.88 101.01C763.75 101.01 762.75 100.76 761.89 100.26C761.03 99.7597 760.36 99.0497 759.87 98.1397C759.38 97.2197 759.13 96.1497 759.13 94.9297V87.1797H762.81V94.8797C762.81 95.8797 763.06 96.6397 763.57 97.1697H763.58Z" fill="#25569D"/>
<path d="M774.98 87.1198H784.57V90.2898H774.98V87.1198ZM777.67 82.2598H781.32V100.99H777.67V82.2598Z" fill="#25569D"/>
<path d="M795.79 80.3597C796.63 81.0997 797.28 82.1697 797.74 83.5697C798.2 84.9797 798.43 86.6397 798.43 88.5597C798.43 90.4797 798.2 92.1197 797.74 93.5297C797.28 94.9397 796.63 96.0097 795.79 96.7397C794.95 97.4797 793.96 97.8397 792.83 97.8397C791.7 97.8397 790.77 97.4697 789.93 96.7397C789.09 95.9997 788.45 94.9297 788.01 93.5297C787.57 92.1297 787.34 90.4697 787.34 88.5597C787.34 86.6497 787.56 84.9697 788.01 83.5697C788.45 82.1597 789.09 81.0897 789.93 80.3597C790.77 79.6197 791.74 79.2597 792.83 79.2597C793.92 79.2597 794.95 79.6297 795.79 80.3597ZM791.75 83.4697C791.44 83.8897 791.2 84.5197 791.04 85.3697C790.88 86.2197 790.8 87.2897 790.8 88.5697C790.8 89.8497 790.88 90.8997 791.04 91.7497C791.2 92.6097 791.44 93.2497 791.75 93.6597C792.06 94.0697 792.43 94.2797 792.84 94.2797C793.31 94.2797 793.7 94.0697 794.01 93.6597C794.32 93.2497 794.56 92.6097 794.73 91.7497C794.9 90.8897 794.98 89.8297 794.98 88.5697C794.98 87.3097 794.9 86.2197 794.73 85.3697C794.56 84.5197 794.32 83.8897 794.01 83.4697C793.7 83.0597 793.31 82.8497 792.84 82.8497C792.43 82.8497 792.06 83.0597 791.75 83.4697ZM801.44 86.8097V89.8897H797.28V86.8097H801.44ZM803.79 77.8997V101.84H800.25V77.8997H803.79ZM809.05 77.4697V102.97H805.46V77.4697H809.05Z" fill="#25569D"/>
<path d="M822.89 79.1193V82.1993H827.67V79.1193H831.41V91.1493H819.13V79.1193H822.89ZM834.74 93.6193C836.04 94.0293 837.04 94.6093 837.74 95.3593C838.44 96.1093 838.79 97.0093 838.79 98.0493C838.79 99.0893 838.44 99.9593 837.74 100.709C837.04 101.459 836.05 102.039 834.75 102.439C833.46 102.839 831.93 103.029 830.15 103.029C828.37 103.029 826.84 102.829 825.54 102.439C824.24 102.039 823.24 101.469 822.54 100.709C821.84 99.9593 821.49 99.0693 821.49 98.0493C821.49 97.0293 821.84 96.1193 822.54 95.3593C823.24 94.6093 824.24 94.0293 825.54 93.6193C826.84 93.2093 828.38 93.0093 830.15 93.0093C831.92 93.0093 833.43 93.2093 834.73 93.6193H834.74ZM822.89 88.1993H827.67V85.1693H822.89V88.1993ZM827.46 96.2193C826.73 96.3593 826.19 96.5793 825.82 96.8793C825.45 97.1793 825.27 97.5593 825.27 98.0093C825.27 98.7093 825.68 99.2293 826.5 99.5793C827.32 99.9293 828.53 100.099 830.14 100.099C831.75 100.099 832.98 99.9293 833.8 99.5793C834.62 99.2293 835.03 98.7093 835.03 98.0093C835.03 97.5593 834.85 97.1793 834.48 96.8793C834.11 96.5793 833.56 96.3593 832.84 96.2193C832.11 96.0793 831.22 96.0093 830.17 96.0093C829.12 96.0093 828.19 96.0793 827.47 96.2193H827.46ZM838.51 77.5293V92.4693H834.69V77.5293H838.51ZM841.85 83.3893V86.5293H837.46V83.3893H841.85Z" fill="#25569D"/>
<path d="M866.18 90.0701V93.0701H843.12V90.0701H866.18ZM849.54 95.1601V100.54H845.75V95.1601H849.54ZM863.66 99.5801V102.61H845.75V99.5801H863.66ZM863.27 78.5801V88.1201H845.95V78.5801H863.27ZM849.65 81.5201V85.1101H859.53V81.5201H849.65ZM856.87 91.9601V97.2801H853.08V91.9601H856.87Z" fill="#25569D"/>
<path d="M879.96 81.2997V84.2997H867.79V81.2997H879.96ZM876.81 86.1597C877.65 86.6897 878.31 87.4097 878.8 88.3397C879.29 89.2597 879.54 90.3097 879.54 91.4797C879.54 92.6497 879.29 93.7197 878.8 94.6497C878.31 95.5697 877.64 96.2897 876.81 96.7997C875.97 97.3097 875.01 97.5597 873.94 97.5597C872.87 97.5597 871.93 97.2997 871.07 96.7997C870.21 96.2897 869.54 95.5697 869.06 94.6497C868.58 93.7297 868.34 92.6697 868.34 91.4797C868.34 90.2897 868.58 89.2597 869.06 88.3397C869.54 87.4197 870.21 86.6897 871.07 86.1597C871.93 85.6297 872.88 85.3697 873.94 85.3697C875 85.3697 875.97 85.6297 876.81 86.1597ZM872.76 88.8597C872.43 89.0997 872.17 89.4397 871.98 89.8797C871.79 90.3197 871.7 90.8597 871.7 91.4797C871.7 92.0997 871.79 92.6297 871.98 93.0597C872.17 93.4897 872.43 93.8297 872.77 94.0597C873.11 94.2897 873.51 94.4097 873.96 94.4097C874.41 94.4097 874.78 94.2897 875.12 94.0597C875.46 93.8297 875.72 93.4897 875.91 93.0597C876.1 92.6297 876.19 92.0997 876.19 91.4797C876.19 90.8597 876.1 90.3197 875.91 89.8797C875.72 89.4397 875.45 89.0997 875.1 88.8597C874.75 88.6197 874.36 88.5097 873.93 88.5097C873.5 88.5097 873.09 88.6297 872.76 88.8597ZM875.8 78.1497V83.1897H872.09V78.1497H875.8ZM884.35 77.9797V101.92H880.81V77.9797H884.35ZM887.32 87.8297V90.8597H883.22V87.8297H887.32ZM889.78 77.4697V102.97H886.16V77.4697H889.78Z" fill="#25569D"/>
<path d="M915.64 91.5393V94.5693H892.61V91.5393H915.64ZM905.23 80.3893V81.0993C905.23 82.6093 904.84 83.9993 904.06 85.2693C903.28 86.5393 902.12 87.6093 900.59 88.4693C899.06 89.3293 897.22 89.8993 895.07 90.1793L893.68 87.1793C895.51 86.9493 897.04 86.5293 898.28 85.9093C899.51 85.2893 900.43 84.5593 901.04 83.7193C901.65 82.8793 901.95 82.0093 901.95 81.0993V80.3893H905.23ZM913.58 78.7793V81.8093H894.65V78.7793H913.58ZM905.94 93.7193V103.059H902.15V93.7193H905.94ZM906.33 80.3893V81.0993C906.33 82.0093 906.63 82.8793 907.23 83.7193C907.83 84.5593 908.75 85.2893 909.99 85.9093C911.23 86.5293 912.76 86.9593 914.59 87.1793L913.2 90.1793C911.03 89.8993 909.18 89.3293 907.65 88.4693C906.12 87.6093 904.97 86.5493 904.18 85.2693C903.4 83.9993 903.01 82.6093 903.01 81.0993V80.3893H906.32H906.33Z" fill="#25569D"/>
<path d="M924.75 79.7097V83.8997C924.75 85.9597 924.56 87.8897 924.17 89.6997C923.78 91.5097 923.17 93.1397 922.32 94.5797C921.47 96.0197 920.4 97.1497 919.09 97.9597L916.77 95.0997C917.98 94.3597 918.96 93.4097 919.71 92.2297C920.46 91.0497 921 89.7597 921.32 88.3497C921.64 86.9497 921.8 85.4597 921.8 83.8897V79.6997H924.74L924.75 79.7097ZM925.49 79.7097V83.7597C925.49 85.2697 925.63 86.6797 925.92 87.9997C926.2 89.3197 926.67 90.5397 927.32 91.6597C927.97 92.7797 928.85 93.6997 929.97 94.4197L927.93 97.3897C926.65 96.5997 925.61 95.4997 924.82 94.0897C924.03 92.6797 923.47 91.1097 923.14 89.3597C922.81 87.6197 922.65 85.7397 922.65 83.7397V79.6897H925.51L925.49 79.7097ZM931.46 86.0197V89.0997H927.33V86.0197H931.46ZM933.95 77.8997V101.84H930.41V77.8997H933.95ZM939.21 77.4697V102.97H935.59V77.4697H939.21Z" fill="#25569D"/>
<path d="M965.13 96.9695V100.049H942.07V96.9695H965.13ZM958.51 79.5395C959.96 80.1095 961.09 80.9094 961.91 81.9494C962.72 82.9894 963.13 84.1895 963.13 85.5395C963.13 86.8895 962.72 88.1295 961.91 89.1795C961.1 90.2295 959.97 91.0294 958.51 91.5994C957.05 92.1694 955.42 92.4494 953.59 92.4494C951.76 92.4494 950.1 92.1694 948.65 91.5994C947.2 91.0294 946.08 90.2295 945.26 89.1795C944.44 88.1295 944.03 86.9195 944.03 85.5395C944.03 84.1595 944.44 82.9794 945.26 81.9494C946.08 80.9094 947.21 80.1095 948.65 79.5395C950.09 78.9695 951.74 78.6895 953.59 78.6895C955.44 78.6895 957.06 78.9695 958.51 79.5395ZM950.87 90.4095V97.5095H947.08V90.4095H950.87ZM950.53 82.1195C949.66 82.4195 948.98 82.8694 948.49 83.4494C948 84.0294 947.75 84.7295 947.75 85.5395C947.75 86.3495 947.99 87.0795 948.47 87.6595C948.95 88.2495 949.63 88.6994 950.51 89.0194C951.39 89.3394 952.41 89.4995 953.58 89.4995C954.75 89.4995 955.75 89.3394 956.62 89.0194C957.5 88.6994 958.17 88.2495 958.64 87.6595C959.11 87.0795 959.35 86.3695 959.35 85.5395C959.35 84.7095 959.11 84.0294 958.63 83.4494C958.15 82.8694 957.47 82.4195 956.61 82.1195C955.74 81.8195 954.73 81.6694 953.58 81.6694C952.43 81.6694 951.39 81.8195 950.52 82.1195H950.53ZM960.1 90.4095V97.5095H956.28V90.4095H960.1Z" fill="#25569D"/>
<path d="M972.91 94.6198H969.37L968.69 78.5498H973.44L972.9 94.6198H972.91ZM972.59 97.9798C972.96 98.3498 973.14 98.8298 973.14 99.4398C973.14 100.05 972.96 100.51 972.59 100.88C972.22 101.26 971.75 101.45 971.16 101.45C970.57 101.45 970.09 101.26 969.72 100.88C969.34 100.5 969.15 100.02 969.15 99.4398C969.15 98.8598 969.34 98.3498 969.72 97.9798C970.1 97.6098 970.58 97.4298 971.16 97.4298C971.74 97.4298 972.22 97.6098 972.59 97.9798Z" fill="#25569D"/>
<path d="M631.82 138.69C634.8 143.84 630.62 148.02 625.47 145.04C620.32 148.02 616.14 143.84 619.12 138.69C616.14 133.54 620.32 129.36 625.47 132.34C630.62 129.36 634.8 133.54 631.82 138.69Z" fill="#25569D"/>
<path d="M625.48 140.93C626.717 140.93 627.72 139.927 627.72 138.69C627.72 137.453 626.717 136.45 625.48 136.45C624.243 136.45 623.24 137.453 623.24 138.69C623.24 139.927 624.243 140.93 625.48 140.93Z" fill="#F8ECE8"/>
<path d="M672.98 187.999H613.27L616.95 172.63C619.76 160.9 630.02 152.509 641.98 151.999C642.36 151.989 642.74 151.979 643.13 151.979C643.45 151.979 643.77 151.989 644.08 151.999C649.95 152.199 655.41 154.309 659.8 157.759C664.42 161.409 667.85 166.58 669.3 172.63L672.98 187.999Z" fill="#A9C5E8"/>
<path d="M636.72 169.75C637.626 169.75 638.36 168.747 638.36 167.51C638.36 166.272 637.626 165.27 636.72 165.27C635.814 165.27 635.08 166.272 635.08 167.51C635.08 168.747 635.814 169.75 636.72 169.75Z" fill="#25569D"/>
<path d="M649.53 169.769C650.436 169.769 651.17 168.766 651.17 167.529C651.17 166.292 650.436 165.289 649.53 165.289C648.624 165.289 647.89 166.292 647.89 167.529C647.89 168.766 648.624 169.769 649.53 169.769Z" fill="#25569D"/>
<path d="M643.13 172.87C643.881 172.87 644.49 172.426 644.49 171.88C644.49 171.333 643.881 170.89 643.13 170.89C642.379 170.89 641.77 171.333 641.77 171.88C641.77 172.426 642.379 172.87 643.13 172.87Z" fill="#F8ECE8"/>
<path d="M633.13 182.19C632.81 182.19 632.5 182.05 632.3 181.77C631.95 181.31 632.05 180.66 632.51 180.31C632.59 180.25 634.52 178.77 634.34 176.5C634.21 174.77 632.95 173.68 632.57 173.39C632.11 173.04 632.03 172.38 632.38 171.93C632.73 171.47 633.39 171.39 633.84 171.74C634.39 172.17 636.21 173.75 636.41 176.35C636.67 179.69 634.05 181.76 633.75 181.98C633.56 182.12 633.34 182.19 633.13 182.19Z" fill="#25569D"/>
<path d="M653.12 182.19C652.9 182.19 652.68 182.12 652.5 181.98C652.2 181.76 649.58 179.69 649.84 176.35C650.04 173.76 651.86 172.17 652.41 171.74C652.87 171.39 653.52 171.48 653.87 171.93C654.22 172.39 654.14 173.04 653.68 173.39C653.3 173.68 652.05 174.77 651.91 176.5C651.73 178.77 653.66 180.25 653.74 180.31C654.2 180.66 654.29 181.31 653.95 181.77C653.75 182.04 653.43 182.19 653.12 182.19Z" fill="#25569D"/>
<path d="M643.04 179.029C642.81 179.029 642.57 179.029 642.33 179.009C638.37 178.829 635.9 177.289 635.03 176.629C634.57 176.279 634.47 175.629 634.82 175.169C635.17 174.709 635.82 174.609 636.28 174.959C636.85 175.379 638.96 176.769 642.43 176.919C646.98 177.119 649.86 174.979 649.98 174.889C650.44 174.539 651.09 174.629 651.44 175.089C651.79 175.549 651.7 176.199 651.24 176.549C650.9 176.809 647.85 179.019 643.04 179.019V179.029Z" fill="#25569D"/>
<path d="M642.91 153.84C642.84 153.84 642.78 153.84 642.71 153.82C642.14 153.71 641.77 153.16 641.88 152.6C642.17 151.11 642.4 148.18 640.72 145.34C638.8 142.09 635.06 140.13 630.91 140.25C630.39 140.23 629.86 139.81 629.84 139.24C629.82 138.66 630.28 138.19 630.85 138.17C635.77 138.06 640.21 140.38 642.52 144.28C644.55 147.71 644.27 151.21 643.93 152.99C643.83 153.49 643.4 153.84 642.91 153.84Z" fill="#25569D"/>
<path d="M669.03 157.639C670.593 157.639 671.86 156.372 671.86 154.809C671.86 153.247 670.593 151.979 669.03 151.979C667.467 151.979 666.2 153.247 666.2 154.809C666.2 156.372 667.467 157.639 669.03 157.639Z" fill="white"/>
<path d="M692.24 137.939C698.856 137.939 704.22 132.576 704.22 125.959C704.22 119.343 698.856 113.979 692.24 113.979C685.624 113.979 680.26 119.343 680.26 125.959C680.26 132.576 685.624 137.939 692.24 137.939Z" fill="white"/>
<path d="M685.05 156.569C689.021 156.569 692.24 153.35 692.24 149.379C692.24 145.409 689.021 142.189 685.05 142.189C681.079 142.189 677.86 145.409 677.86 149.379C677.86 153.35 681.079 156.569 685.05 156.569Z" fill="white"/>
</g>
<defs>
<linearGradient id="paint0_linear_1966_77071" x1="1.09" y1="68.14" x2="1339.91" y2="119.9" gradientUnits="userSpaceOnUse">
<stop offset="0.66" stop-color="#D4DDE9"/>
<stop offset="1" stop-color="#E9D9D3"/>
</linearGradient>
<clipPath id="clip0_1966_77071">
<rect width="1340" height="188" fill="white"/>
</clipPath>
</defs>
</svg>
