<svg width="1280" height="184" viewBox="0 0 1280 184" fill="none" xmlns="http://www.w3.org/2000/svg">
<g clip-path="url(#clip0_1874_61790)">
<mask id="mask0_1874_61790" style="mask-type:luminance" maskUnits="userSpaceOnUse" x="0" y="0" width="1280" height="184">
<path d="M1280 0H0V184H1280V0Z" fill="white"/>
</mask>
<g mask="url(#mask0_1874_61790)">
<path d="M1280 0H0V184H1280V0Z" fill="url(#paint0_linear_1874_61790)"/>
<path d="M116.89 145.411C108.65 131.151 120.2 119.591 134.46 127.841C148.72 119.601 160.28 131.151 152.03 145.411C160.27 159.671 148.72 171.231 134.46 162.981C120.2 171.221 108.64 159.671 116.89 145.411Z" fill="#25569D"/>
<path d="M134.46 151.621C137.89 151.621 140.67 148.841 140.67 145.411C140.67 141.981 137.89 139.201 134.46 139.201C131.03 139.201 128.25 141.981 128.25 145.411C128.25 148.841 131.03 151.621 134.46 151.621Z" fill="#F8ECE8"/>
<path d="M12.2696 -8.94922H158.92C165.86 -8.94922 170.98 -2.45922 169.36 4.29078L158.07 51.4508C150.04 84.9708 120.07 108.621 85.5996 108.621C51.1296 108.621 21.1496 84.9808 13.1296 51.4508L1.82956 4.29078C0.219556 -2.45922 5.32956 -8.94922 12.2696 -8.94922Z" fill="#A9C5E8"/>
<path d="M103.319 71.8121C105.821 71.8121 107.849 69.0363 107.849 65.6121C107.849 62.1879 105.821 59.4121 103.319 59.4121C100.817 59.4121 98.7891 62.1879 98.7891 65.6121C98.7891 69.0363 100.817 71.8121 103.319 71.8121Z" fill="#25569D"/>
<path d="M67.8796 71.7516C70.3815 71.7516 72.4096 68.9757 72.4096 65.5516C72.4096 62.1274 70.3815 59.3516 67.8796 59.3516C65.3778 59.3516 63.3496 62.1274 63.3496 65.5516C63.3496 68.9757 65.3778 71.7516 67.8796 71.7516Z" fill="#25569D"/>
<path d="M85.5996 56.2612C87.6707 56.2612 89.3496 55.0345 89.3496 53.5213C89.3496 52.008 87.6707 50.7812 85.5996 50.7812C83.5285 50.7812 81.8496 52.008 81.8496 53.5213C81.8496 55.0345 83.5285 56.2612 85.5996 56.2612Z" fill="#F8ECE8"/>
<path d="M113.269 24.9805C114.149 24.9805 115.009 25.3805 115.579 26.1305C116.539 27.4005 116.279 29.2105 115.009 30.1705C114.779 30.3405 109.449 34.4205 109.939 40.7105C110.309 45.5105 113.779 48.5205 114.829 49.3305C116.099 50.3005 116.329 52.1105 115.359 53.3805C114.389 54.6405 112.579 54.8805 111.309 53.9105C109.779 52.7305 104.739 48.3305 104.179 41.1605C103.459 31.9105 110.709 26.1805 111.539 25.5605C112.059 25.1705 112.669 24.9805 113.269 24.9805Z" fill="#25569D"/>
<path d="M57.9291 24.9805C58.5291 24.9805 59.1391 25.1705 59.6591 25.5605C60.4891 26.1805 67.7391 31.9105 67.0191 41.1605C66.4591 48.3305 61.4191 52.7405 59.8891 53.9105C58.6291 54.8805 56.8191 54.6405 55.8391 53.3805C54.8691 52.1205 55.0991 50.3105 56.3691 49.3305C57.4191 48.5205 60.8891 45.5005 61.2591 40.7105C61.7491 34.4205 56.4191 30.3405 56.1891 30.1705C54.9191 29.2105 54.6591 27.4005 55.6191 26.1305C56.1891 25.3705 57.0491 24.9805 57.9291 24.9805Z" fill="#25569D"/>
<path d="M85.8499 33.7305C86.4899 33.7305 87.1399 33.7405 87.8099 33.7705C98.7599 34.2605 105.6 38.5305 108.03 40.3505C109.31 41.3105 109.57 43.1105 108.62 44.3905C107.66 45.6705 105.85 45.9305 104.58 44.9805C103.01 43.8105 97.1599 39.9705 87.5499 39.5405C74.9599 38.9805 66.9799 44.9105 66.6499 45.1705C65.3799 46.1405 63.5799 45.8905 62.6099 44.6305C61.6399 43.3605 61.8899 41.5505 63.1499 40.5905C64.0999 39.8605 72.5199 33.7405 85.8499 33.7405V33.7305Z" fill="#25569D"/>
<path d="M86.1996 103.451C86.3796 103.451 86.5596 103.471 86.7496 103.501C88.3196 103.801 89.3396 105.311 89.0396 106.881C88.2496 111.011 87.6096 119.111 92.2496 126.981C97.5696 135.981 107.92 141.411 119.42 141.061C120.87 141.121 122.34 142.271 122.38 143.871C122.42 145.461 121.17 146.791 119.57 146.831C105.94 147.141 93.6596 140.721 87.2696 129.911C81.6596 120.411 82.4196 110.721 83.3596 105.791C83.6296 104.411 84.8396 103.451 86.1896 103.451H86.1996Z" fill="#25569D"/>
<path d="M201.514 30.0922V38.0122H200.47V30.0922H201.514ZM203.062 33.5242V34.3882H201.202V33.5242H203.062ZM199.57 31.3402V32.1802H193.33V31.3402H199.57ZM196.45 32.7322C196.946 32.7322 197.386 32.8162 197.77 32.9842C198.154 33.1442 198.45 33.3762 198.658 33.6802C198.874 33.9762 198.982 34.3202 198.982 34.7122C198.982 35.1042 198.874 35.4522 198.658 35.7562C198.45 36.0522 198.154 36.2842 197.77 36.4522C197.386 36.6122 196.946 36.6922 196.45 36.6922C195.946 36.6922 195.502 36.6122 195.118 36.4522C194.742 36.2842 194.446 36.0522 194.23 35.7562C194.022 35.4522 193.918 35.1042 193.918 34.7122C193.918 34.3202 194.022 33.9762 194.23 33.6802C194.446 33.3762 194.742 33.1442 195.118 32.9842C195.502 32.8162 195.946 32.7322 196.45 32.7322ZM196.45 33.5482C195.986 33.5482 195.61 33.6562 195.322 33.8722C195.042 34.0802 194.902 34.3642 194.902 34.7242C194.902 35.0682 195.042 35.3482 195.322 35.5642C195.61 35.7722 195.986 35.8762 196.45 35.8762C196.914 35.8762 197.286 35.7722 197.566 35.5642C197.846 35.3482 197.986 35.0682 197.986 34.7242C197.986 34.3642 197.846 34.0802 197.566 33.8722C197.286 33.6562 196.914 33.5482 196.45 33.5482ZM196.966 30.0922V31.7722H195.934V30.0922H196.966ZM201.982 39.5722V40.4122H194.914V39.5722H201.982ZM195.946 37.3762V39.9322H194.914V37.3762H195.946ZM213.346 35.2642V36.1042H203.806V35.2642H213.346ZM209.074 33.5842V35.6122H208.054V33.5842H209.074ZM212.23 33.2602V34.1002H205.006V33.2602H212.23ZM212.158 30.5722V31.4122H206.026V33.7642H205.006V30.5722H212.158ZM208.558 36.8362C209.686 36.8362 210.57 37.0042 211.21 37.3402C211.858 37.6682 212.182 38.1322 212.182 38.7322C212.182 39.3402 211.862 39.8082 211.222 40.1362C210.582 40.4722 209.694 40.6402 208.558 40.6402C207.422 40.6402 206.534 40.4722 205.894 40.1362C205.254 39.8082 204.934 39.3402 204.934 38.7322C204.934 38.1322 205.254 37.6682 205.894 37.3402C206.534 37.0042 207.422 36.8362 208.558 36.8362ZM208.558 37.6402C207.742 37.6402 207.106 37.7362 206.65 37.9282C206.202 38.1202 205.978 38.3882 205.978 38.7322C205.978 39.0922 206.202 39.3682 206.65 39.5602C207.106 39.7442 207.742 39.8362 208.558 39.8362C209.374 39.8362 210.006 39.7442 210.454 39.5602C210.902 39.3682 211.126 39.0922 211.126 38.7322C211.126 38.3882 210.902 38.1202 210.454 37.9282C210.006 37.7362 209.374 37.6402 208.558 37.6402ZM219.586 31.0162V35.9482H214.714V31.0162H219.586ZM215.734 31.8562V35.0962H218.578V31.8562H215.734ZM222.502 30.0802V37.8082H221.458V30.0802H222.502ZM224.038 33.2722V34.1362H222.178V33.2722H224.038ZM222.958 39.5722V40.4122H215.902V39.5722H222.958ZM216.934 37.0762V39.9442H215.902V37.0762H216.934ZM228.178 30.8362C228.722 30.8362 229.206 30.9442 229.63 31.1602C230.062 31.3682 230.398 31.6642 230.638 32.0482C230.886 32.4242 231.01 32.8562 231.01 33.3442C231.01 33.8322 230.886 34.2682 230.638 34.6522C230.398 35.0282 230.062 35.3242 229.63 35.5402C229.206 35.7482 228.722 35.8522 228.178 35.8522C227.634 35.8522 227.146 35.7482 226.714 35.5402C226.282 35.3242 225.942 35.0282 225.694 34.6522C225.454 34.2682 225.334 33.8322 225.334 33.3442C225.334 32.8562 225.454 32.4242 225.694 32.0482C225.942 31.6642 226.282 31.3682 226.714 31.1602C227.146 30.9442 227.634 30.8362 228.178 30.8362ZM228.178 31.7362C227.826 31.7362 227.51 31.8042 227.23 31.9402C226.958 32.0682 226.742 32.2562 226.582 32.5042C226.422 32.7442 226.342 33.0242 226.342 33.3442C226.342 33.6562 226.422 33.9362 226.582 34.1842C226.742 34.4242 226.958 34.6122 227.23 34.7482C227.51 34.8842 227.826 34.9522 228.178 34.9522C228.522 34.9522 228.834 34.8842 229.114 34.7482C229.394 34.6122 229.61 34.4242 229.762 34.1842C229.922 33.9362 230.002 33.6562 230.002 33.3442C230.002 33.0242 229.922 32.7442 229.762 32.5042C229.61 32.2562 229.394 32.0682 229.114 31.9402C228.842 31.8042 228.53 31.7362 228.178 31.7362ZM233.386 30.0682V40.6642H232.354V30.0682H233.386ZM224.818 37.4962C226.202 37.4962 227.438 37.4762 228.526 37.4362C229.622 37.3962 230.67 37.2962 231.67 37.1362L231.754 37.9042C230.714 38.1042 229.65 38.2322 228.562 38.2882C227.474 38.3442 226.27 38.3722 224.95 38.3722L224.818 37.4962ZM246.352 30.0682V40.6642H245.308V30.0682H246.352ZM247.828 34.1962V35.0722H245.896V34.1962H247.828ZM238.804 37.0402C239.204 37.0402 239.584 37.0282 239.944 37.0042C240.312 36.9722 240.696 36.9162 241.096 36.8362L241.204 37.6882C240.772 37.7762 240.372 37.8362 240.004 37.8682C239.636 37.8922 239.236 37.9042 238.804 37.9042H238.336V37.0402H238.804ZM241 31.1842V32.0242H239.356V37.4602H238.336V31.1842H241ZM242.104 37.0402C242.704 37.0402 243.188 37.0242 243.556 36.9922C243.932 36.9602 244.308 36.9002 244.684 36.8122L244.792 37.6642C244.384 37.7602 243.988 37.8242 243.604 37.8562C243.228 37.8882 242.728 37.9042 242.104 37.9042H241.588V37.0402H242.104ZM244.396 31.1842V32.0242H242.608V37.4842H241.588V31.1842H244.396ZM258.053 35.1322V35.9842H248.513V35.1322H258.053ZM257.225 33.3682V34.2082H253.589V33.3682H257.225ZM257.141 30.5962V31.4362H254.621V33.6562H253.589V30.5962H257.141ZM253.001 30.5962V31.4362H250.469V33.6562H249.413V30.5962H253.001ZM250.013 33.3682C250.605 33.3682 251.145 33.3522 251.633 33.3202C252.121 33.2802 252.621 33.2002 253.133 33.0802L253.241 33.9202C252.705 34.0322 252.189 34.1082 251.693 34.1482C251.197 34.1882 250.637 34.2082 250.013 34.2082H249.413V33.3682H250.013ZM253.661 36.8002V37.1002C253.661 37.7082 253.481 38.2562 253.121 38.7442C252.769 39.2322 252.289 39.6322 251.681 39.9442C251.081 40.2642 250.397 40.4882 249.629 40.6162L249.245 39.7882C249.909 39.7002 250.505 39.5282 251.033 39.2722C251.569 39.0162 251.989 38.7002 252.293 38.3242C252.605 37.9482 252.761 37.5402 252.761 37.1002V36.8002H253.661ZM253.817 36.8002V37.1002C253.817 37.5402 253.969 37.9482 254.273 38.3242C254.585 38.7002 255.009 39.0162 255.545 39.2722C256.089 39.5282 256.689 39.7002 257.345 39.7882L256.949 40.6162C256.189 40.4882 255.505 40.2642 254.897 39.9442C254.289 39.6322 253.809 39.2322 253.457 38.7442C253.105 38.2562 252.929 37.7082 252.929 37.1002V36.8002H253.817ZM267.209 30.0922V36.4402H266.165V30.0922H267.209ZM268.757 32.8642V33.7162H266.921V32.8642H268.757ZM267.209 37.0162V40.5082H260.549V37.0162H267.209ZM261.569 37.8562V39.6682H266.189V37.8562H261.569ZM265.265 31.1842V32.0122H259.025V31.1842H265.265ZM262.145 32.5042C262.641 32.5042 263.081 32.5842 263.465 32.7442C263.849 32.9042 264.145 33.1282 264.353 33.4162C264.569 33.6962 264.677 34.0242 264.677 34.4002C264.677 34.7762 264.569 35.1082 264.353 35.3962C264.145 35.6762 263.849 35.8962 263.465 36.0562C263.081 36.2082 262.641 36.2842 262.145 36.2842C261.641 36.2842 261.197 36.2082 260.813 36.0562C260.437 35.8962 260.141 35.6762 259.925 35.3962C259.717 35.1082 259.613 34.7762 259.613 34.4002C259.613 34.0162 259.717 33.6842 259.925 33.4042C260.141 33.1242 260.437 32.9042 260.813 32.7442C261.197 32.5842 261.641 32.5042 262.145 32.5042ZM262.145 33.2962C261.681 33.2962 261.305 33.3962 261.017 33.5962C260.737 33.7882 260.597 34.0522 260.597 34.3882C260.597 34.7322 260.737 35.0042 261.017 35.2042C261.305 35.3962 261.681 35.4922 262.145 35.4922C262.601 35.4922 262.969 35.3962 263.249 35.2042C263.537 35.0042 263.681 34.7322 263.681 34.3882C263.681 34.0522 263.541 33.7882 263.261 33.5962C262.981 33.3962 262.609 33.2962 262.145 33.2962ZM262.661 29.9962V31.6042H261.629V29.9962H262.661ZM274.253 30.2722C275.429 30.2722 276.345 30.4282 277.001 30.7402C277.657 31.0522 277.985 31.5002 277.985 32.0842C277.985 32.6762 277.657 33.1322 277.001 33.4522C276.345 33.7642 275.429 33.9202 274.253 33.9202C273.077 33.9202 272.161 33.7642 271.505 33.4522C270.849 33.1322 270.521 32.6762 270.521 32.0842C270.521 31.5002 270.849 31.0522 271.505 30.7402C272.161 30.4282 273.077 30.2722 274.253 30.2722ZM274.253 31.0402C273.413 31.0402 272.761 31.1322 272.297 31.3162C271.833 31.5002 271.601 31.7602 271.601 32.0962C271.601 32.4242 271.829 32.6802 272.285 32.8642C272.749 33.0482 273.405 33.1402 274.253 33.1402C275.109 33.1402 275.765 33.0482 276.221 32.8642C276.685 32.6802 276.917 32.4242 276.917 32.0962C276.917 31.7602 276.685 31.5002 276.221 31.3162C275.757 31.1322 275.101 31.0402 274.253 31.0402ZM279.029 34.5922V35.4322H269.489V34.5922H279.029ZM277.805 36.2842V38.7082H271.673V39.9442H270.665V37.9642H276.797V37.0882H270.629V36.2842H277.805ZM278.129 39.7282V40.5322H270.665V39.7282H278.129ZM290.567 32.0002V32.8402H287.783V32.0002H290.567ZM290.507 34.1962V35.0362H287.699V34.1962H290.507ZM291.443 30.0802V36.3802H290.399V30.0802H291.443ZM288.179 30.8602C288.179 31.7642 287.983 32.5802 287.591 33.3082C287.207 34.0282 286.647 34.6482 285.911 35.1682C285.183 35.6882 284.307 36.1002 283.283 36.4042L282.863 35.5762C283.759 35.3202 284.519 34.9882 285.143 34.5802C285.775 34.1642 286.255 33.6842 286.583 33.1402C286.911 32.5882 287.075 31.9882 287.075 31.3402V30.8602H288.179ZM287.795 30.8602V31.7122H283.415V30.8602H287.795ZM287.999 36.5002C288.711 36.5002 289.327 36.5842 289.847 36.7522C290.375 36.9122 290.779 37.1482 291.059 37.4602C291.347 37.7642 291.491 38.1282 291.491 38.5522C291.491 38.9682 291.347 39.3322 291.059 39.6442C290.779 39.9482 290.375 40.1802 289.847 40.3402C289.319 40.5082 288.703 40.5922 287.999 40.5922C287.287 40.5922 286.667 40.5082 286.139 40.3402C285.611 40.1802 285.203 39.9482 284.915 39.6442C284.635 39.3402 284.495 38.9762 284.495 38.5522C284.495 38.1282 284.635 37.7642 284.915 37.4602C285.203 37.1482 285.611 36.9122 286.139 36.7522C286.667 36.5842 287.287 36.5002 287.999 36.5002ZM287.999 37.3162C287.495 37.3162 287.055 37.3682 286.679 37.4722C286.311 37.5682 286.027 37.7082 285.827 37.8922C285.627 38.0682 285.527 38.2882 285.527 38.5522C285.527 38.8082 285.627 39.0282 285.827 39.2122C286.027 39.3962 286.311 39.5362 286.679 39.6322C287.055 39.7282 287.495 39.7762 287.999 39.7762C288.503 39.7762 288.939 39.7282 289.307 39.6322C289.683 39.5362 289.971 39.3962 290.171 39.2122C290.371 39.0282 290.471 38.8082 290.471 38.5522C290.471 38.1602 290.251 37.8562 289.811 37.6402C289.371 37.4242 288.767 37.3162 287.999 37.3162ZM301.919 30.0922V36.4762H300.875V30.0922H301.919ZM301.331 33.2842V34.1362H299.183V33.2842H301.331ZM301.919 37.0162V40.5082H295.043V37.0162H301.919ZM296.063 37.8562V39.6682H300.911V37.8562H296.063ZM299.351 31.1602V32.0002H293.231V31.1602H299.351ZM296.291 32.5042C296.763 32.5042 297.183 32.5882 297.551 32.7562C297.927 32.9162 298.219 33.1402 298.427 33.4282C298.635 33.7082 298.739 34.0322 298.739 34.4002C298.739 34.7682 298.635 35.0962 298.427 35.3842C298.219 35.6642 297.927 35.8842 297.551 36.0442C297.183 36.2042 296.763 36.2842 296.291 36.2842C295.827 36.2842 295.407 36.2042 295.031 36.0442C294.655 35.8842 294.359 35.6642 294.143 35.3842C293.935 35.0962 293.831 34.7682 293.831 34.4002C293.831 34.0322 293.935 33.7082 294.143 33.4282C294.359 33.1402 294.655 32.9162 295.031 32.7562C295.407 32.5882 295.827 32.5042 296.291 32.5042ZM296.291 33.2962C296.011 33.2962 295.759 33.3442 295.535 33.4402C295.311 33.5282 295.139 33.6562 295.019 33.8242C294.899 33.9842 294.839 34.1722 294.839 34.3882C294.839 34.7162 294.975 34.9842 295.247 35.1922C295.519 35.3922 295.867 35.4922 296.291 35.4922C296.723 35.4922 297.071 35.3922 297.335 35.1922C297.607 34.9842 297.743 34.7202 297.743 34.4002C297.743 34.1762 297.683 33.9842 297.563 33.8242C297.443 33.6562 297.271 33.5282 297.047 33.4402C296.823 33.3442 296.571 33.2962 296.291 33.2962ZM296.807 29.9842V31.7482H295.775V29.9842H296.807ZM311.928 30.0562V35.8642H310.884V30.0562H311.928ZM313.476 32.5522V33.4162H311.496V32.5522H313.476ZM311.928 36.3922V38.7922H306.24V40.0282H305.22V38.0482H310.908V37.1722H305.196V36.3922H311.928ZM312.3 39.7402V40.5322H305.22V39.7402H312.3ZM309.984 31.0042V31.8202H303.744V31.0042H309.984ZM306.864 32.2522C307.632 32.2522 308.244 32.4082 308.7 32.7202C309.164 33.0322 309.396 33.4562 309.396 33.9922C309.396 34.5202 309.164 34.9402 308.7 35.2522C308.244 35.5642 307.628 35.7202 306.852 35.7202C306.084 35.7202 305.472 35.5642 305.016 35.2522C304.56 34.9402 304.332 34.5202 304.332 33.9922C304.332 33.4642 304.56 33.0442 305.016 32.7322C305.472 32.4122 306.088 32.2522 306.864 32.2522ZM306.864 33.0202C306.392 33.0202 306.016 33.1082 305.736 33.2842C305.456 33.4602 305.316 33.6962 305.316 33.9922C305.316 34.2882 305.456 34.5242 305.736 34.7002C306.016 34.8762 306.392 34.9642 306.864 34.9642C307.328 34.9642 307.7 34.8762 307.98 34.7002C308.26 34.5242 308.4 34.2882 308.4 33.9922C308.4 33.6962 308.26 33.4602 307.98 33.2842C307.7 33.1082 307.328 33.0202 306.864 33.0202ZM307.38 29.9722V31.5682H306.348V29.9722H307.38ZM322.122 30.4522V31.0402C322.122 31.6882 321.926 32.2842 321.534 32.8282C321.15 33.3722 320.634 33.8242 319.986 34.1842C319.338 34.5442 318.63 34.7842 317.862 34.9042L317.442 34.0762C318.106 33.9802 318.726 33.7842 319.302 33.4882C319.878 33.1922 320.338 32.8282 320.682 32.3962C321.034 31.9642 321.21 31.5122 321.21 31.0402V30.4522H322.122ZM322.302 30.4522V31.0402C322.302 31.5042 322.474 31.9522 322.818 32.3842C323.17 32.8162 323.634 33.1842 324.21 33.4882C324.794 33.7842 325.414 33.9802 326.07 34.0762L325.65 34.9042C324.89 34.7842 324.186 34.5442 323.538 34.1842C322.89 33.8162 322.37 33.3602 321.978 32.8162C321.586 32.2642 321.39 31.6722 321.39 31.0402V30.4522H322.302ZM322.242 36.6562V40.6522H321.21V36.6562H322.242ZM326.526 36.0082V36.8602H316.974V36.0082H326.526ZM333.635 36.5842V37.1122C333.635 37.5842 333.543 38.0442 333.359 38.4922C333.175 38.9402 332.903 39.3402 332.543 39.6922C332.183 40.0442 331.751 40.3122 331.247 40.4962L330.731 39.7282C331.163 39.5762 331.539 39.3602 331.859 39.0802C332.179 38.8002 332.419 38.4882 332.579 38.1442C332.747 37.7922 332.831 37.4482 332.831 37.1122V36.5842H333.635ZM333.827 36.5842V37.1122C333.827 37.6722 333.987 38.2002 334.307 38.6962C334.635 39.1922 335.103 39.5642 335.711 39.8122L335.291 40.6042C334.555 40.3162 333.999 39.8522 333.623 39.2122C333.247 38.5722 333.059 37.8722 333.059 37.1122V36.5842H333.827ZM337.487 36.5842V37.1122C337.487 37.5522 337.407 38.0042 337.247 38.4682C337.087 38.9242 336.839 39.3442 336.503 39.7282C336.175 40.1042 335.771 40.3962 335.291 40.6042L334.847 39.8122C335.247 39.6282 335.587 39.3842 335.867 39.0802C336.155 38.7762 336.371 38.4522 336.515 38.1082C336.659 37.7562 336.731 37.4242 336.731 37.1122V36.5842H337.487ZM337.739 36.5842V37.1122C337.739 37.4802 337.819 37.8362 337.979 38.1802C338.147 38.5242 338.387 38.8322 338.699 39.1042C339.019 39.3682 339.399 39.5762 339.839 39.7282L339.335 40.4962C338.575 40.2242 337.983 39.7842 337.559 39.1762C337.143 38.5602 336.935 37.8722 336.935 37.1122V36.5842H337.739ZM338.903 30.0922V36.1162H337.859V30.0922H338.903ZM333.227 30.6922C333.755 30.6922 334.227 30.8002 334.643 31.0162C335.067 31.2242 335.399 31.5162 335.639 31.8922C335.879 32.2602 335.999 32.6882 335.999 33.1762C335.999 33.6482 335.879 34.0722 335.639 34.4482C335.399 34.8242 335.067 35.1162 334.643 35.3242C334.227 35.5242 333.755 35.6242 333.227 35.6242C332.699 35.6242 332.223 35.5242 331.799 35.3242C331.383 35.1162 331.055 34.8242 330.815 34.4482C330.575 34.0722 330.455 33.6482 330.455 33.1762C330.455 32.6882 330.575 32.2602 330.815 31.8922C331.055 31.5162 331.383 31.2242 331.799 31.0162C332.223 30.8002 332.699 30.6922 333.227 30.6922ZM333.227 31.5682C332.891 31.5682 332.591 31.6362 332.327 31.7722C332.063 31.9082 331.855 32.0962 331.703 32.3362C331.551 32.5762 331.475 32.8562 331.475 33.1762C331.475 33.4882 331.551 33.7682 331.703 34.0162C331.855 34.2562 332.063 34.4442 332.327 34.5802C332.591 34.7082 332.891 34.7722 333.227 34.7722C333.571 34.7722 333.875 34.7082 334.139 34.5802C334.403 34.4442 334.607 34.2562 334.751 34.0162C334.903 33.7682 334.979 33.4882 334.979 33.1762C334.979 32.8562 334.903 32.5762 334.751 32.3362C334.607 32.0962 334.403 31.9082 334.139 31.7722C333.875 31.6362 333.571 31.5682 333.227 31.5682ZM349.188 33.2122V34.0522H341.988V33.2122H349.188ZM350.28 35.4322V36.2722H340.716V35.4322H350.28ZM343.02 30.4642V33.6442H341.988V30.4642H343.02ZM349.248 39.5482V40.4002H341.928V39.5482H349.248ZM342.948 37.2922V39.7762H341.928V37.2922H342.948ZM361.878 30.5962V31.4362H355.098V30.5962H361.878ZM363.498 35.0242V35.8522H353.982V35.0242H363.498ZM358.878 32.9242V35.1442H357.846V32.9242H358.878ZM362.298 30.5962V31.3522C362.298 31.9042 362.282 32.4002 362.25 32.8402C362.226 33.2802 362.154 33.7722 362.034 34.3162L361.014 34.1962C361.134 33.6682 361.206 33.1962 361.23 32.7802C361.262 32.3642 361.278 31.8882 361.278 31.3522V30.5962H362.298ZM359.07 36.6562V37.1122C359.07 37.7202 358.89 38.2682 358.53 38.7562C358.178 39.2362 357.694 39.6322 357.078 39.9442C356.47 40.2642 355.79 40.4882 355.038 40.6162L354.642 39.8002C355.306 39.7042 355.906 39.5282 356.442 39.2722C356.978 39.0162 357.402 38.7042 357.714 38.3362C358.026 37.9602 358.182 37.5522 358.182 37.1122V36.6562H359.07ZM359.226 36.6562V37.1122C359.226 37.5522 359.378 37.9602 359.682 38.3362C359.994 38.7042 360.418 39.0162 360.954 39.2722C361.498 39.5282 362.098 39.7042 362.754 39.8002L362.382 40.6162C361.614 40.4882 360.922 40.2642 360.306 39.9442C359.698 39.6322 359.214 39.2362 358.854 38.7562C358.502 38.2682 358.326 37.7202 358.326 37.1122V36.6562H359.226ZM370.404 30.3442H371.148L370.752 32.7682H369.684L370.404 30.3442ZM368.532 30.3442H369.252L368.868 32.7682H367.788L368.532 30.3442ZM380.6 30.0922V38.0122H379.556V30.0922H380.6ZM382.148 33.5242V34.3882H380.288V33.5242H382.148ZM378.656 31.3402V32.1802H372.416V31.3402H378.656ZM375.536 32.7322C376.032 32.7322 376.472 32.8162 376.856 32.9842C377.24 33.1442 377.536 33.3762 377.744 33.6802C377.96 33.9762 378.068 34.3202 378.068 34.7122C378.068 35.1042 377.96 35.4522 377.744 35.7562C377.536 36.0522 377.24 36.2842 376.856 36.4522C376.472 36.6122 376.032 36.6922 375.536 36.6922C375.032 36.6922 374.588 36.6122 374.204 36.4522C373.828 36.2842 373.532 36.0522 373.316 35.7562C373.108 35.4522 373.004 35.1042 373.004 34.7122C373.004 34.3202 373.108 33.9762 373.316 33.6802C373.532 33.3762 373.828 33.1442 374.204 32.9842C374.588 32.8162 375.032 32.7322 375.536 32.7322ZM375.536 33.5482C375.072 33.5482 374.696 33.6562 374.408 33.8722C374.128 34.0802 373.988 34.3642 373.988 34.7242C373.988 35.0682 374.128 35.3482 374.408 35.5642C374.696 35.7722 375.072 35.8762 375.536 35.8762C376 35.8762 376.372 35.7722 376.652 35.5642C376.932 35.3482 377.072 35.0682 377.072 34.7242C377.072 34.3642 376.932 34.0802 376.652 33.8722C376.372 33.6562 376 33.5482 375.536 33.5482ZM376.052 30.0922V31.7722H375.02V30.0922H376.052ZM381.068 39.5722V40.4122H374V39.5722H381.068ZM375.032 37.3762V39.9322H374V37.3762H375.032ZM391.568 30.0922V36.1642H390.524V30.0922H391.568ZM391.568 36.6922V40.5082H384.692V36.6922H391.568ZM385.712 37.5202V39.6682H390.56V37.5202H385.712ZM390.74 32.1322V32.9842H388.28V32.1322H390.74ZM386.324 30.5362V31.6402C386.324 32.2882 386.204 32.9002 385.964 33.4762C385.732 34.0442 385.396 34.5362 384.956 34.9522C384.516 35.3682 383.996 35.6882 383.396 35.9122L382.856 35.0842C383.392 34.9002 383.856 34.6362 384.248 34.2922C384.648 33.9402 384.952 33.5362 385.16 33.0802C385.376 32.6242 385.484 32.1442 385.484 31.6402V30.5362H386.324ZM386.504 30.5362V31.6882C386.504 32.1442 386.608 32.5842 386.816 33.0082C387.032 33.4322 387.332 33.8042 387.716 34.1242C388.1 34.4442 388.548 34.6882 389.06 34.8562L388.508 35.6722C387.932 35.4642 387.428 35.1642 386.996 34.7722C386.572 34.3802 386.244 33.9202 386.012 33.3922C385.78 32.8562 385.664 32.2882 385.664 31.6882V30.5362H386.504ZM394.436 32.7802H393.704L394.1 30.3562H395.168L394.436 32.7802ZM396.332 32.7802H395.6L395.984 30.3562H397.064L396.332 32.7802Z" fill="#25569D"/>
<path d="M546.73 75.1245V80.6125H543.006V75.1245H546.73ZM557.734 62.1605V81.2565H554.01V62.1605H557.734ZM558.322 83.9725V86.9405H539.506V83.9725H558.322ZM543.23 79.4365V84.7565H539.506V79.4365H543.23ZM536.398 73.2765C539.609 73.2578 542.493 73.2018 545.05 73.1085C547.626 73.0151 550.081 72.8191 552.414 72.5205L552.638 75.1525C550.249 75.5631 547.766 75.8431 545.19 75.9925C542.633 76.1231 539.851 76.1978 536.846 76.2165L536.398 73.2765ZM554.85 76.7765V79.2965H549.306V76.7765H554.85ZM544.49 63.0005C545.703 63.0005 546.786 63.1965 547.738 63.5885C548.69 63.9618 549.427 64.4938 549.95 65.1845C550.491 65.8565 550.762 66.6405 550.762 67.5365C550.762 68.4138 550.491 69.1978 549.95 69.8885C549.427 70.5605 548.69 71.0831 547.738 71.4565C546.786 71.8298 545.703 72.0165 544.49 72.0165C543.258 72.0165 542.166 71.8298 541.214 71.4565C540.262 71.0831 539.515 70.5605 538.974 69.8885C538.451 69.1978 538.19 68.4138 538.19 67.5365C538.19 66.6405 538.451 65.8565 538.974 65.1845C539.515 64.4938 540.262 63.9618 541.214 63.5885C542.185 63.1965 543.277 63.0005 544.49 63.0005ZM544.49 65.7165C543.65 65.7165 542.978 65.8751 542.474 66.1925C541.989 66.4911 541.746 66.9298 541.746 67.5085C541.746 68.0871 541.989 68.5351 542.474 68.8525C542.978 69.1511 543.65 69.3005 544.49 69.3005C545.33 69.3005 545.993 69.1511 546.478 68.8525C546.982 68.5351 547.234 68.0871 547.234 67.5085C547.234 66.9298 546.982 66.4911 546.478 66.1925C545.993 65.8751 545.33 65.7165 544.49 65.7165ZM580.779 62.1885V87.3885H577.055V62.1885H580.779ZM584.363 71.9605V75.0405H579.939V71.9605H584.363ZM575.543 65.8565V68.8245H560.843V65.8565H575.543ZM568.207 70.1965C569.439 70.1965 570.54 70.4578 571.511 70.9805C572.5 71.4845 573.265 72.1938 573.807 73.1085C574.367 74.0231 574.647 75.0591 574.647 76.2165C574.647 77.3925 574.367 78.4378 573.807 79.3525C573.265 80.2485 572.5 80.9578 571.511 81.4805C570.54 81.9845 569.448 82.2365 568.235 82.2365C567.021 82.2365 565.92 81.9845 564.931 81.4805C563.96 80.9578 563.195 80.2391 562.635 79.3245C562.093 78.4098 561.823 77.3738 561.823 76.2165C561.823 75.0778 562.093 74.0511 562.635 73.1365C563.195 72.2031 563.96 71.4845 564.931 70.9805C565.901 70.4578 566.993 70.1965 568.207 70.1965ZM568.235 73.2205C567.675 73.2205 567.18 73.3418 566.751 73.5845C566.321 73.8271 565.985 74.1725 565.743 74.6205C565.519 75.0685 565.407 75.6098 565.407 76.2445C565.407 76.8605 565.519 77.3925 565.743 77.8405C565.985 78.2885 566.321 78.6338 566.751 78.8765C567.18 79.1005 567.675 79.2125 568.235 79.2125C568.776 79.2125 569.261 79.1005 569.691 78.8765C570.12 78.6338 570.456 78.2885 570.699 77.8405C570.941 77.3925 571.063 76.8605 571.063 76.2445C571.063 75.6098 570.941 75.0685 570.699 74.6205C570.456 74.1725 570.12 73.8271 569.691 73.5845C569.261 73.3418 568.776 73.2205 568.235 73.2205ZM570.111 62.6085V67.0045H566.331V62.6085H570.111ZM605.755 68.9085V71.8485H588.255V68.9085H605.755ZM608.275 74.4245V77.3645H585.455V74.4245H608.275ZM591.951 63.0565V70.3645H588.255V63.0565H591.951ZM605.895 83.8605V86.8565H588.003V83.8605H605.895ZM591.727 79.3245V84.6725H588.003V79.3245H591.727ZM636.233 62.1885V81.0045H632.481V62.1885H636.233ZM639.537 69.8045V72.8845H635.197V69.8045H639.537ZM631.193 64.7645V67.6765H616.381V64.7645H631.193ZM623.801 68.5445C624.996 68.5445 626.06 68.7498 626.993 69.1605C627.945 69.5711 628.682 70.1498 629.205 70.8965C629.746 71.6245 630.017 72.4645 630.017 73.4165C630.017 74.3685 629.746 75.2178 629.205 75.9645C628.682 76.7111 627.945 77.2898 626.993 77.7005C626.06 78.0925 624.996 78.2885 623.801 78.2885C622.606 78.2885 621.533 78.0925 620.581 77.7005C619.648 77.2898 618.91 76.7111 618.369 75.9645C617.846 75.2178 617.585 74.3685 617.585 73.4165C617.585 72.4645 617.846 71.6245 618.369 70.8965C618.91 70.1498 619.648 69.5711 620.581 69.1605C621.533 68.7498 622.606 68.5445 623.801 68.5445ZM623.801 71.3725C622.998 71.3725 622.354 71.5498 621.869 71.9045C621.402 72.2591 621.169 72.7631 621.169 73.4165C621.169 74.0698 621.402 74.5738 621.869 74.9285C622.354 75.2831 622.998 75.4605 623.801 75.4605C624.585 75.4605 625.21 75.2831 625.677 74.9285C626.162 74.5738 626.405 74.0698 626.405 73.4165C626.405 72.7631 626.162 72.2591 625.677 71.9045C625.21 71.5498 624.585 71.3725 623.801 71.3725ZM625.649 62.1325V66.1645H621.925V62.1325H625.649ZM637.129 83.9725V86.9405H619.937V83.9725H637.129ZM623.661 79.5765V85.2605H619.937V79.5765H623.661ZM661.938 62.1885V76.5525H658.186V62.1885H661.938ZM661.938 77.6165V87.1085H645.082V77.6165H661.938ZM648.75 80.5285V84.1685H658.298V80.5285H648.75ZM658.746 66.5005V69.4965H653.678V66.5005H658.746ZM649.562 63.3365V65.6885C649.562 67.3498 649.31 68.8898 648.806 70.3085C648.302 71.7085 647.527 72.9405 646.482 74.0045C645.436 75.0498 644.13 75.8245 642.562 76.3285L640.63 73.3885C641.974 72.9591 643.084 72.3525 643.962 71.5685C644.858 70.7658 645.511 69.8698 645.922 68.8805C646.332 67.8725 646.538 66.8085 646.538 65.6885V63.3365H649.562ZM650.318 63.3365V65.9125C650.318 66.9391 650.504 67.9191 650.878 68.8525C651.27 69.7858 651.886 70.6165 652.726 71.3445C653.566 72.0538 654.63 72.6045 655.918 72.9965L653.986 75.8805C652.492 75.3951 651.242 74.6671 650.234 73.6965C649.244 72.7071 648.507 71.5498 648.022 70.2245C647.536 68.8991 647.294 67.4618 647.294 65.9125V63.3365H650.318ZM676.694 62.5245C679.588 62.5245 681.837 62.8978 683.442 63.6445C685.066 64.3911 685.878 65.4551 685.878 66.8365C685.878 68.1991 685.066 69.2538 683.442 70.0005C681.837 70.7471 679.588 71.1205 676.694 71.1205C673.82 71.1205 671.58 70.7471 669.974 70.0005C668.369 69.2538 667.566 68.1991 667.566 66.8365C667.566 65.4551 668.369 64.3911 669.974 63.6445C671.58 62.8978 673.82 62.5245 676.694 62.5245ZM676.694 65.2405C674.902 65.2405 673.577 65.3711 672.718 65.6325C671.86 65.8938 671.43 66.2951 671.43 66.8365C671.43 67.3778 671.85 67.7791 672.69 68.0405C673.549 68.2831 674.884 68.4045 676.694 68.4045C678.524 68.4045 679.858 68.2831 680.698 68.0405C681.557 67.7791 681.986 67.3778 681.986 66.8365C681.986 66.2951 681.557 65.8938 680.698 65.6325C679.84 65.3711 678.505 65.2405 676.694 65.2405ZM688.09 72.2405V75.1805H665.326V72.2405H688.09ZM685.346 76.5245V83.0765H671.598V85.2325H667.958V80.5005H681.678V79.2965H667.902V76.5245H685.346ZM686.018 84.4205V87.2205H667.958V84.4205H686.018ZM704.876 66.3605V67.2565C704.876 68.7125 704.615 70.0751 704.092 71.3445C703.569 72.5951 702.776 73.6778 701.712 74.5925C700.648 75.5071 699.323 76.1791 697.736 76.6085L696.028 73.6965C697.353 73.3605 698.445 72.8658 699.304 72.2125C700.181 71.5405 700.825 70.7845 701.236 69.9445C701.647 69.0858 701.852 68.1898 701.852 67.2565V66.3605H704.876ZM705.576 66.3605V67.2565C705.576 68.1151 705.772 68.9458 706.164 69.7485C706.575 70.5325 707.209 71.2418 708.068 71.8765C708.945 72.4925 710.037 72.9685 711.344 73.3045L709.692 76.1605C708.105 75.7685 706.78 75.1338 705.716 74.2565C704.652 73.3791 703.859 72.3431 703.336 71.1485C702.813 69.9351 702.552 68.6378 702.552 67.2565V66.3605H705.576ZM710.504 64.5405V67.4525H696.952V64.5405H710.504ZM705.576 62.0765V65.9125H701.852V62.0765H705.576ZM716.076 62.1885V76.4965H712.352V62.1885H716.076ZM719.408 67.7605V70.7845H715.068V67.7605H719.408ZM709.132 78.7645V79.4085C709.132 80.7151 708.777 81.9191 708.068 83.0205C707.359 84.1218 706.295 85.0458 704.876 85.7925C703.476 86.5391 701.768 87.0431 699.752 87.3045L698.408 84.4765C700.107 84.2711 701.525 83.9071 702.664 83.3845C703.803 82.8618 704.633 82.2551 705.156 81.5645C705.697 80.8738 705.968 80.1551 705.968 79.4085V78.7645H709.132ZM709.944 78.7645V79.4085C709.944 80.1178 710.215 80.8271 710.756 81.5365C711.316 82.2271 712.165 82.8431 713.304 83.3845C714.443 83.9258 715.843 84.2991 717.504 84.5045L716.188 87.3325C714.172 87.0898 712.464 86.5858 711.064 85.8205C709.664 85.0551 708.6 84.1218 707.872 83.0205C707.163 81.9005 706.808 80.6965 706.808 79.4085V78.7645H709.944ZM716.412 77.5325V80.4725H699.5V77.5325H716.412ZM727.473 63.8685C728.742 63.8685 729.881 64.2418 730.889 64.9885C731.897 65.7165 732.681 66.7711 733.241 68.1525C733.819 69.5151 734.109 71.0925 734.109 72.8845C734.109 74.7138 733.819 76.3191 733.241 77.7005C732.681 79.0631 731.897 80.1178 730.889 80.8645C729.881 81.5925 728.742 81.9565 727.473 81.9565C726.203 81.9565 725.065 81.5925 724.057 80.8645C723.049 80.1178 722.255 79.0631 721.677 77.7005C721.117 76.3191 720.837 74.7138 720.837 72.8845C720.837 71.0738 721.117 69.4871 721.677 68.1245C722.255 66.7618 723.049 65.7165 724.057 64.9885C725.065 64.2418 726.203 63.8685 727.473 63.8685ZM727.473 67.2845C726.857 67.2845 726.315 67.4991 725.849 67.9285C725.401 68.3578 725.046 68.9925 724.785 69.8325C724.542 70.6725 724.421 71.6898 724.421 72.8845C724.421 74.0978 724.542 75.1338 724.785 75.9925C725.046 76.8325 725.401 77.4765 725.849 77.9245C726.315 78.3538 726.857 78.5685 727.473 78.5685C728.089 78.5685 728.63 78.3538 729.097 77.9245C729.563 77.4765 729.918 76.8325 730.161 75.9925C730.422 75.1338 730.553 74.0978 730.553 72.8845C730.553 71.6898 730.422 70.6725 730.161 69.8325C729.918 68.9925 729.563 68.3578 729.097 67.9285C728.63 67.4991 728.089 67.2845 727.473 67.2845ZM740.521 62.1885V87.3885H736.769V62.1885H740.521ZM744.105 71.6245V74.7045H739.681V71.6245H744.105Z" fill="#25569D"/>
<path d="M538.158 112.708V129.116H528.19V112.708H538.158ZM531.634 115.62V126.204H534.686V115.62H531.634ZM549.134 110.16V135.36H545.606V110.16H549.134ZM541.938 119.288V122.284H536.282V119.288H541.938ZM543.926 110.552V134.24H540.454V110.552H543.926ZM561.063 112.092V115.676C561.063 117.935 560.802 120.035 560.279 121.976C559.775 123.918 558.982 125.626 557.899 127.1C556.816 128.575 555.454 129.686 553.811 130.432L551.599 127.352C553.018 126.736 554.203 125.831 555.155 124.636C556.126 123.442 556.844 122.079 557.311 120.548C557.778 118.999 558.011 117.375 558.011 115.676V112.092H561.063ZM561.791 112.092V115.676C561.791 117.3 562.015 118.85 562.463 120.324C562.911 121.78 563.602 123.078 564.535 124.216C565.468 125.355 566.626 126.223 568.007 126.82L565.851 129.844C564.264 129.116 562.939 128.052 561.875 126.652C560.811 125.234 560.027 123.591 559.523 121.724C559.019 119.858 558.767 117.842 558.767 115.676V112.092H561.791ZM572.851 110.132V135.416H569.127V110.132H572.851ZM585.368 114.164V116.908C585.368 118.906 585.106 120.819 584.584 122.648C584.061 124.478 583.268 126.092 582.204 127.492C581.14 128.892 579.833 129.947 578.284 130.656L576.184 127.716C577.546 127.1 578.694 126.223 579.628 125.084C580.561 123.927 581.252 122.648 581.7 121.248C582.166 119.83 582.4 118.383 582.4 116.908V114.164H585.368ZM586.18 114.164V116.908C586.18 118.308 586.404 119.68 586.852 121.024C587.318 122.35 588.018 123.554 588.952 124.636C589.885 125.7 591.033 126.512 592.396 127.072L590.352 130.012C588.784 129.34 587.468 128.342 586.404 127.016C585.34 125.691 584.546 124.16 584.024 122.424C583.501 120.688 583.24 118.85 583.24 116.908V114.164H586.18ZM591.36 112.568V115.648H577.192V112.568H591.36ZM597.324 110.188V135.388H593.6V110.188H597.324ZM623.728 121.444V124.132H600.908V121.444H623.728ZM621.012 125.336V131.356H607.18V133.456H603.484V129.032H617.344V127.856H603.456V125.336H621.012ZM621.712 132.672V135.192H603.484V132.672H621.712ZM620.956 110.58V116.6H607.404V118.588H603.736V114.248H617.288V113.1H603.708V110.58H620.956ZM621.432 117.804V120.352H603.736V117.804H621.432ZM654.654 129.424V132.448H631.834V129.424H654.654ZM645.078 124.104V130.152H641.354V124.104H645.078ZM637.91 111.728V115.564H648.494V111.728H652.19V124.86H634.214V111.728H637.91ZM637.91 121.92H648.494V118.476H637.91V121.92ZM677.867 110.16V135.36H674.339V110.16H677.867ZM675.263 119.848V122.816H671.119V119.848H675.263ZM672.183 110.608V134.156H668.711V110.608H672.183ZM660.983 112.932V127.492H657.259V112.932H660.983ZM659.023 126.092C662.065 126.092 664.847 125.85 667.367 125.364L667.703 128.556C666.209 128.818 664.753 129.004 663.335 129.116C661.916 129.228 660.479 129.284 659.023 129.284H657.259V126.092H659.023ZM703.599 129.424V132.448H680.779V129.424H703.599ZM694.023 124.104V130.152H690.299V124.104H694.023ZM686.855 111.728V115.564H697.439V111.728H701.135V124.86H683.159V111.728H686.855ZM686.855 121.92H697.439V118.476H686.855V121.92ZM719.252 118.588V121.612H715.164V118.588H719.252ZM712.56 112.344V116.516C712.56 118.532 712.364 120.436 711.972 122.228C711.599 124.02 710.992 125.626 710.152 127.044C709.331 128.463 708.276 129.574 706.988 130.376L704.72 127.576C705.915 126.848 706.876 125.906 707.604 124.748C708.351 123.572 708.883 122.294 709.2 120.912C709.536 119.512 709.704 118.047 709.704 116.516V112.344H712.56ZM713.316 112.344V116.348C713.316 117.842 713.456 119.242 713.736 120.548C714.016 121.855 714.483 123.068 715.136 124.188C715.789 125.29 716.667 126.204 717.768 126.932L715.724 129.816C714.455 129.032 713.428 127.95 712.644 126.568C711.879 125.168 711.328 123.61 710.992 121.892C710.675 120.175 710.516 118.327 710.516 116.348V112.344H713.316ZM726.896 110.16V135.36H723.34V110.16H726.896ZM721.688 110.552V134.24H718.216V110.552H721.688ZM738.433 122.928V129.956H734.681V122.928H738.433ZM747.561 122.928V129.956H743.809V122.928H747.561ZM752.545 129.424V132.448H729.725V129.424H752.545ZM741.121 111.336C742.931 111.336 744.546 111.616 745.965 112.176C747.402 112.736 748.522 113.53 749.325 114.556C750.146 115.583 750.557 116.778 750.557 118.14C750.557 119.484 750.146 120.67 749.325 121.696C748.522 122.723 747.402 123.516 745.965 124.076C744.546 124.636 742.931 124.916 741.121 124.916C739.31 124.916 737.686 124.636 736.249 124.076C734.83 123.516 733.71 122.723 732.889 121.696C732.086 120.67 731.685 119.484 731.685 118.14C731.685 116.778 732.086 115.583 732.889 114.556C733.71 113.53 734.83 112.736 736.249 112.176C737.686 111.616 739.31 111.336 741.121 111.336ZM741.121 114.248C739.963 114.248 738.946 114.407 738.069 114.724C737.21 115.023 736.538 115.471 736.053 116.068C735.586 116.647 735.353 117.338 735.353 118.14C735.353 118.943 735.586 119.643 736.053 120.24C736.538 120.819 737.21 121.267 738.069 121.584C738.946 121.883 739.963 122.032 741.121 122.032C742.259 122.032 743.267 121.883 744.145 121.584C745.022 121.267 745.694 120.819 746.161 120.24C746.627 119.643 746.861 118.943 746.861 118.14C746.861 117.338 746.618 116.647 746.133 116.068C745.666 115.471 744.994 115.023 744.117 114.724C743.258 114.407 742.259 114.248 741.121 114.248Z" fill="#25569D"/>
<path d="M1161.39 208.29H1013.3C1006.29 208.29 1001.12 201.74 1002.76 194.92L1014.16 147.3C1022.27 113.45 1052.53 89.5703 1087.34 89.5703C1122.15 89.5703 1152.42 113.44 1160.52 147.3L1171.92 194.92C1173.55 201.74 1168.38 208.29 1161.38 208.29H1161.39Z" fill="#F8ECE8"/>
<path d="M1069.45 139.262C1071.97 139.262 1074.02 136.459 1074.02 133.002C1074.02 129.545 1071.97 126.742 1069.45 126.742C1066.93 126.742 1064.88 129.545 1064.88 133.002C1064.88 136.459 1066.93 139.262 1069.45 139.262Z" fill="#25569D"/>
<path d="M1105.24 139.323C1107.77 139.323 1109.81 136.52 1109.81 133.063C1109.81 129.605 1107.77 126.803 1105.24 126.803C1102.72 126.803 1100.67 129.605 1100.67 133.063C1100.67 136.52 1102.72 139.323 1105.24 139.323Z" fill="#25569D"/>
<path d="M1087.34 147.981C1089.43 147.981 1091.13 146.741 1091.13 145.211C1091.13 143.682 1089.43 142.441 1087.34 142.441C1085.25 142.441 1083.55 143.682 1083.55 145.211C1083.55 146.741 1085.25 147.981 1087.34 147.981Z" fill="#A3887E"/>
<path d="M1059.4 174.042C1058.52 174.042 1057.64 173.642 1057.07 172.882C1056.11 171.592 1056.36 169.772 1057.65 168.802C1057.88 168.632 1063.26 164.512 1062.77 158.162C1062.39 153.312 1058.89 150.272 1057.83 149.452C1056.55 148.472 1056.32 146.642 1057.3 145.362C1058.28 144.092 1060.11 143.842 1061.39 144.832C1062.94 146.022 1068.02 150.462 1068.59 157.712C1069.32 167.052 1061.99 172.832 1061.16 173.462C1060.64 173.852 1060.02 174.042 1059.41 174.042H1059.4Z" fill="#25569D"/>
<path d="M1115.28 174.042C1114.67 174.042 1114.06 173.852 1113.53 173.462C1112.69 172.832 1105.37 167.052 1106.1 157.712C1106.66 150.472 1111.75 146.022 1113.3 144.832C1114.57 143.852 1116.4 144.092 1117.39 145.362C1118.37 146.632 1118.13 148.462 1116.86 149.452C1115.8 150.272 1112.3 153.312 1111.92 158.162C1111.43 164.512 1116.81 168.632 1117.04 168.802C1118.33 169.772 1118.59 171.592 1117.62 172.882C1117.05 173.642 1116.17 174.042 1115.29 174.042H1115.28Z" fill="#25569D"/>
<path d="M1087.09 165.201C1086.44 165.201 1085.78 165.191 1085.11 165.161C1074.05 164.671 1067.14 160.351 1064.69 158.521C1063.4 157.561 1063.13 155.731 1064.1 154.441C1065.06 153.151 1066.9 152.881 1068.18 153.851C1069.76 155.031 1075.67 158.911 1085.38 159.341C1098.1 159.901 1106.15 153.911 1106.49 153.661C1107.77 152.681 1109.59 152.931 1110.57 154.211C1111.55 155.491 1111.3 157.321 1110.02 158.291C1109.06 159.031 1100.56 165.201 1087.1 165.201H1087.09Z" fill="#25569D"/>
<path d="M1086.74 94.7911C1086.56 94.7911 1086.37 94.7711 1086.19 94.7411C1084.61 94.4411 1083.58 92.9111 1083.88 91.3311C1084.68 87.1611 1085.33 78.9811 1080.64 71.0311C1075.27 61.9411 1064.82 56.4611 1053.21 56.8111C1051.74 56.7411 1050.27 55.5911 1050.22 53.9811C1050.18 52.3711 1051.44 51.0311 1053.05 50.9911C1066.81 50.6811 1079.22 57.1611 1085.66 68.0711C1091.32 77.6711 1090.56 87.4511 1089.61 92.4311C1089.34 93.8211 1088.12 94.7911 1086.75 94.7911H1086.74Z" fill="#25569D"/>
<path d="M1048.16 64.7382C1053.32 58.7133 1055.26 51.8999 1052.48 49.5201C1049.71 47.1403 1043.27 50.0953 1038.11 56.1202C1032.94 62.1451 1031 68.9585 1033.78 71.3383C1036.55 73.7181 1042.99 70.7631 1048.16 64.7382Z" fill="#25569D"/>
<path d="M1051.75 55.891C1054.95 54.1196 1054.43 47.0555 1050.58 40.1129C1046.74 33.1703 1041.03 28.9782 1037.83 30.7496C1034.63 32.521 1035.15 39.5851 1039 46.5277C1042.84 53.4704 1048.55 57.6625 1051.75 55.891Z" fill="#25569D"/>
</g>
</g>
<defs>
<linearGradient id="paint0_linear_1874_61790" x1="2.9" y1="1.16" x2="1279.23" y2="183.15" gradientUnits="userSpaceOnUse">
<stop stop-color="#E9D9D3"/>
<stop offset="1" stop-color="#D3DDEA"/>
</linearGradient>
<clipPath id="clip0_1874_61790">
<rect width="1280" height="184" fill="white"/>
</clipPath>
</defs>
</svg>
