<svg width="1340" height="188" viewBox="0 0 1340 188" fill="none" xmlns="http://www.w3.org/2000/svg">
<g clip-path="url(#clip0_1966_76976)">
<path d="M620.33 133.47V134.466H615.206V133.47H620.33ZM629.665 129.786V136.638H624.793V129.786H629.665ZM625.813 130.614V135.798H628.645V130.614H625.813ZM632.521 128.742V139.302H631.477V128.742H632.521ZM634.225 132.93V133.794H632.281V132.93H634.225ZM641.21 132.714V133.566H639.23V132.714H641.21ZM635.93 135.954C636.786 135.954 637.482 135.934 638.018 135.894C638.554 135.854 639.102 135.782 639.662 135.678L639.758 136.518C639.19 136.63 638.634 136.706 638.09 136.746C637.546 136.778 636.826 136.794 635.93 136.794H635.234V135.954H635.93ZM639.146 129.99V130.83H636.23V136.218H635.234V129.99H639.146ZM638.678 132.858V133.662H635.93V132.858H638.678ZM643.838 128.73V139.29H642.842V128.73H643.838ZM641.69 128.97V138.762H640.706V128.97H641.69ZM648.392 137.526C648.6 137.326 648.772 137.162 648.908 137.034C649.044 136.906 649.216 136.746 649.424 136.554C650.12 135.914 650.68 135.378 651.104 134.946C651.536 134.514 651.9 134.07 652.196 133.614C652.5 133.158 652.652 132.734 652.652 132.342C652.652 131.99 652.58 131.678 652.436 131.406C652.292 131.126 652.096 130.91 651.848 130.758C651.6 130.598 651.316 130.518 650.996 130.518C650.636 130.518 650.288 130.638 649.952 130.878C649.624 131.118 649.376 131.43 649.208 131.814L648.308 131.418C648.54 130.89 648.904 130.458 649.4 130.122C649.904 129.786 650.436 129.618 650.996 129.618C651.508 129.618 651.964 129.734 652.364 129.966C652.772 130.198 653.088 130.522 653.312 130.938C653.536 131.346 653.648 131.814 653.648 132.342C653.648 132.87 653.48 133.406 653.144 133.95C652.808 134.494 652.404 135.006 651.932 135.486C651.468 135.966 650.868 136.534 650.132 137.19C649.764 137.518 649.416 137.842 649.088 138.162L648.392 137.526ZM648.392 137.526H653.792V138.414H648.512L648.392 137.526ZM655.717 133.722C655.973 133.434 656.305 133.198 656.713 133.014C657.121 132.822 657.521 132.726 657.913 132.726C658.489 132.726 659.001 132.85 659.449 133.098C659.905 133.338 660.257 133.674 660.505 134.106C660.761 134.538 660.889 135.034 660.889 135.594C660.889 136.162 660.761 136.666 660.505 137.106C660.257 137.546 659.905 137.894 659.449 138.15C659.001 138.398 658.489 138.522 657.913 138.522C657.465 138.522 657.045 138.43 656.653 138.246C656.261 138.054 655.925 137.79 655.645 137.454C655.365 137.118 655.177 136.738 655.081 136.314L656.053 136.086C656.149 136.526 656.369 136.886 656.713 137.166C657.065 137.438 657.465 137.574 657.913 137.574C658.297 137.574 658.637 137.49 658.933 137.322C659.237 137.154 659.473 136.922 659.641 136.626C659.809 136.322 659.893 135.978 659.893 135.594C659.893 135.226 659.809 134.898 659.641 134.61C659.473 134.314 659.237 134.086 658.933 133.926C658.637 133.758 658.297 133.674 657.913 133.674C657.665 133.674 657.405 133.738 657.133 133.866C656.869 133.994 656.645 134.162 656.461 134.37L655.717 133.722ZM655.465 134.226L655.753 129.702H660.181V130.59H656.713L656.461 134.37L655.465 134.226ZM665.411 129.87V130.698C665.411 131.346 665.291 131.954 665.051 132.522C664.811 133.09 664.467 133.582 664.019 133.998C663.579 134.414 663.059 134.73 662.459 134.946L661.943 134.118C662.471 133.934 662.931 133.67 663.323 133.326C663.723 132.982 664.031 132.582 664.247 132.126C664.463 131.67 664.571 131.194 664.571 130.698V129.87H665.411ZM665.603 129.87V130.698C665.603 131.146 665.703 131.578 665.903 131.994C666.111 132.402 666.407 132.766 666.791 133.086C667.175 133.398 667.623 133.638 668.135 133.806L667.643 134.61C667.051 134.418 666.539 134.13 666.107 133.746C665.675 133.354 665.343 132.898 665.111 132.378C664.879 131.85 664.763 131.29 664.763 130.698V129.87H665.603ZM667.907 129.498V130.35H662.243V129.498H667.907ZM670.199 128.742V135.09H669.155V128.742H670.199ZM671.747 131.394V132.246H669.911V131.394H671.747ZM666.827 135.366C667.547 135.366 668.167 135.442 668.687 135.594C669.207 135.746 669.607 135.97 669.887 136.266C670.167 136.554 670.307 136.902 670.307 137.31C670.307 137.934 669.995 138.418 669.371 138.762C668.755 139.106 667.907 139.278 666.827 139.278C666.115 139.278 665.495 139.202 664.967 139.05C664.447 138.898 664.047 138.674 663.767 138.378C663.487 138.074 663.347 137.718 663.347 137.31C663.347 136.902 663.487 136.554 663.767 136.266C664.047 135.97 664.447 135.746 664.967 135.594C665.495 135.442 666.115 135.366 666.827 135.366ZM666.827 136.182C666.315 136.182 665.875 136.23 665.507 136.326C665.139 136.414 664.855 136.542 664.655 136.71C664.463 136.87 664.367 137.07 664.367 137.31C664.367 137.678 664.583 137.962 665.015 138.162C665.455 138.362 666.059 138.462 666.827 138.462C667.595 138.462 668.195 138.362 668.627 138.162C669.067 137.962 669.287 137.678 669.287 137.31C669.287 137.07 669.187 136.87 668.987 136.71C668.795 136.542 668.515 136.414 668.147 136.326C667.779 136.23 667.339 136.182 666.827 136.182ZM680.321 135.15H681.545V136.026H680.321V138.402H679.325V136.026H675.545L675.425 135.15L679.361 129.714H680.321V135.15ZM679.325 135.15V131.43L676.637 135.15H679.325ZM685.951 137.598C686.375 137.598 686.747 137.45 687.067 137.154C687.395 136.85 687.647 136.43 687.823 135.894C688.007 135.358 688.099 134.746 688.099 134.058C688.099 133.37 688.007 132.758 687.823 132.222C687.647 131.686 687.395 131.27 687.067 130.974C686.739 130.67 686.367 130.518 685.951 130.518C685.535 130.518 685.163 130.67 684.835 130.974C684.515 131.27 684.263 131.686 684.079 132.222C683.895 132.758 683.803 133.37 683.803 134.058C683.803 134.746 683.895 135.358 684.079 135.894C684.263 136.43 684.515 136.85 684.835 137.154C685.163 137.45 685.535 137.598 685.951 137.598ZM685.951 138.486C685.343 138.486 684.799 138.298 684.319 137.922C683.847 137.546 683.475 137.022 683.203 136.35C682.939 135.678 682.807 134.914 682.807 134.058C682.807 133.202 682.939 132.442 683.203 131.778C683.475 131.106 683.847 130.582 684.319 130.206C684.799 129.83 685.343 129.642 685.951 129.642C686.559 129.642 687.103 129.83 687.583 130.206C688.063 130.582 688.435 131.106 688.699 131.778C688.963 132.442 689.095 133.202 689.095 134.058C689.095 134.914 688.963 135.678 688.699 136.35C688.435 137.022 688.063 137.546 687.583 137.922C687.111 138.298 686.567 138.486 685.951 138.486ZM698.514 131.07V131.898H695.826V131.07H698.514ZM693.666 129.642V130.326C693.666 130.91 693.542 131.47 693.294 132.006C693.054 132.542 692.71 133.014 692.262 133.422C691.814 133.822 691.294 134.118 690.702 134.31L690.198 133.506C690.71 133.33 691.166 133.078 691.566 132.75C691.966 132.414 692.274 132.038 692.49 131.622C692.706 131.198 692.814 130.766 692.814 130.326V129.642H693.666ZM693.858 129.642V130.326C693.858 130.742 693.962 131.146 694.17 131.538C694.386 131.922 694.682 132.266 695.058 132.57C695.442 132.866 695.886 133.094 696.39 133.254L695.898 134.07C695.314 133.886 694.806 133.606 694.374 133.23C693.942 132.854 693.606 132.418 693.366 131.922C693.134 131.418 693.018 130.886 693.018 130.326V129.642H693.858ZM696.15 129.258V130.098H690.51V129.258H696.15ZM698.874 128.742V134.166H697.842V128.742H698.874ZM698.874 134.694V137.262H693.114V138.87H692.082V136.482H697.854V135.522H692.058V134.694H698.874ZM699.258 138.354V139.182H692.082V138.354H699.258ZM708.924 133.47V134.466H703.8V133.47H708.924Z" fill="#25569D"/>
<path d="M1340 0H0V188H1340V0Z" fill="url(#paint0_linear_1966_76976)"/>
<path d="M397.92 186.35H228.17C228.2 185.7 228.3 185.05 228.45 184.38L239.86 136.76C247.72 103.94 276.39 80.5003 309.85 79.1003C310.91 79.0503 311.97 79.0303 313.04 79.0303C313.94 79.0303 314.83 79.0503 315.72 79.0803C332.11 79.6603 347.39 85.5303 359.65 95.2003C372.58 105.4 382.18 119.83 386.23 136.76L397.63 184.38C397.79 185.04 397.89 185.7 397.92 186.35Z" fill="#F8ECE8"/>
<path d="M295.15 128.72C297.674 128.72 299.72 125.917 299.72 122.46C299.72 119.003 297.674 116.2 295.15 116.2C292.626 116.2 290.58 119.003 290.58 122.46C290.58 125.917 292.626 128.72 295.15 128.72Z" fill="#25569D"/>
<path d="M330.94 128.78C333.464 128.78 335.51 125.977 335.51 122.52C335.51 119.062 333.464 116.26 330.94 116.26C328.416 116.26 326.37 119.062 326.37 122.52C326.37 125.977 328.416 128.78 330.94 128.78Z" fill="#25569D"/>
<path d="M313.04 137.44C315.133 137.44 316.83 136.2 316.83 134.67C316.83 133.141 315.133 131.9 313.04 131.9C310.947 131.9 309.25 133.141 309.25 134.67C309.25 136.2 310.947 137.44 313.04 137.44Z" fill="#A3887E"/>
<path d="M285.1 163.49C284.22 163.49 283.34 163.09 282.77 162.33C281.81 161.04 282.06 159.22 283.35 158.25C283.58 158.08 288.96 153.96 288.47 147.61C288.09 142.76 284.59 139.72 283.53 138.9C282.25 137.92 282.02 136.09 283 134.81C283.98 133.54 285.81 133.29 287.09 134.28C288.64 135.47 293.72 139.91 294.29 147.16C295.02 156.5 287.69 162.28 286.86 162.91C286.34 163.3 285.72 163.49 285.11 163.49H285.1Z" fill="#25569D"/>
<path d="M340.98 163.49C340.37 163.49 339.76 163.3 339.23 162.91C338.39 162.28 331.07 156.5 331.8 147.16C332.36 139.92 337.45 135.47 339 134.28C340.27 133.3 342.1 133.54 343.09 134.81C344.07 136.08 343.83 137.91 342.56 138.9C341.5 139.72 338 142.76 337.62 147.61C337.13 153.96 342.51 158.08 342.74 158.25C344.03 159.22 344.29 161.04 343.32 162.33C342.75 163.09 341.87 163.49 340.99 163.49H340.98Z" fill="#25569D"/>
<path d="M312.79 154.651C312.14 154.651 311.48 154.641 310.81 154.611C299.75 154.121 292.84 149.801 290.39 147.971C289.1 147.011 288.83 145.181 289.8 143.891C290.76 142.601 292.6 142.331 293.88 143.301C295.46 144.481 301.37 148.361 311.08 148.791C323.8 149.351 331.85 143.361 332.19 143.111C333.47 142.131 335.29 142.381 336.27 143.661C337.25 144.941 337 146.771 335.72 147.741C334.76 148.481 326.26 154.651 312.8 154.651H312.79Z" fill="#25569D"/>
<path d="M312.44 84.2403C312.26 84.2403 312.07 84.2203 311.89 84.1903C310.31 83.8903 309.28 82.3603 309.58 80.7803C310.38 76.6103 311.03 68.4303 306.34 60.4803C300.97 51.3903 290.52 45.9103 278.91 46.2603C277.44 46.1903 275.97 45.0403 275.92 43.4303C275.88 41.8203 277.14 40.4803 278.75 40.4403C292.51 40.1303 304.92 46.6103 311.36 57.5203C317.02 67.1203 316.26 76.9003 315.31 81.8803C315.04 83.2703 313.82 84.2403 312.45 84.2403H312.44Z" fill="#25569D"/>
<path d="M273.827 54.1728C278.993 48.1478 280.93 41.3345 278.155 38.9547C275.379 36.5749 268.941 39.5298 263.776 45.5548C258.61 51.5797 256.672 58.3931 259.448 60.7729C262.223 63.1527 268.661 60.1977 273.827 54.1728Z" fill="#25569D"/>
<path d="M277.476 45.3823C280.675 43.6109 280.15 36.5467 276.305 29.6041C272.46 22.6615 266.75 18.4694 263.552 20.2408C260.354 22.0122 260.878 29.0763 264.723 36.019C268.568 42.9616 274.278 47.1537 277.476 45.3823Z" fill="#25569D"/>
<path d="M493.38 44.3799V64.2899H496.3V44.3799H493.38ZM488.14 50.4999V52.8799H494.21V50.4999H488.14ZM491.18 56.3999C489.75 56.6999 488.31 56.9099 486.85 57.0199C485.77 57.0999 484.68 57.1499 483.56 57.1799C483.16 57.1899 482.76 57.1899 482.35 57.1899H480.64V59.6299H482.35C483.98 59.6299 485.54 59.5699 487.03 59.4499C488.52 59.3399 490 59.1299 491.48 58.8399L491.18 56.3999ZM480.64 46.5199V58.8599H483.56V46.5199H480.64Z" fill="#25569D"/>
<path d="M512.49 44.4297V64.2497H515.42V44.4297H512.49ZM503.78 44.6297V48.3197H506.75V44.6297H503.78ZM509.59 51.6197C509.18 51.0497 508.6 50.6097 507.84 50.2897C507.09 49.9797 506.23 49.8197 505.28 49.8197C504.33 49.8197 503.5 49.9697 502.77 50.2797C502.04 50.5897 501.46 51.0297 501.04 51.6097C500.62 52.1897 500.42 52.8497 500.42 53.5997C500.42 54.3497 500.62 54.9797 501.03 55.5497C501.44 56.1097 502.02 56.5497 502.76 56.8697C503.5 57.1797 504.34 57.3397 505.28 57.3397C506.22 57.3397 507.09 57.1797 507.84 56.8697C508.6 56.5497 509.18 56.1097 509.59 55.5497C510 54.9797 510.21 54.3297 510.21 53.5797C510.21 52.8297 510 52.1897 509.59 51.6197ZM507.13 54.4297C506.95 54.6497 506.71 54.8297 506.4 54.9397C506.09 55.0597 505.73 55.1197 505.32 55.1197C504.88 55.1197 504.5 55.0597 504.19 54.9397C503.87 54.8297 503.63 54.6497 503.46 54.4297C503.29 54.1997 503.21 53.9197 503.21 53.5997C503.21 53.0997 503.4 52.7197 503.77 52.4597C504.15 52.1897 504.65 52.0597 505.28 52.0597C505.91 52.0597 506.45 52.1897 506.83 52.4597C507.2 52.7197 507.39 53.0997 507.39 53.5997C507.39 53.9197 507.3 54.1997 507.13 54.4297ZM499.32 46.7597V49.0897H511.24V46.7597H499.32ZM511.48 57.9397C509.81 58.1897 508.08 58.3397 506.3 58.3997C504.52 58.4597 502.41 58.4897 499.98 58.4897H498.96L499.29 60.8797C501.68 60.8997 503.86 60.8597 505.83 60.7697C507.79 60.6897 509.74 60.4597 511.68 60.0897L511.48 57.9397Z" fill="#25569D"/>
<path d="M532.91 51.9299V54.3499H536.39V51.9299H532.91ZM530.69 44.3799V64.2099H533.66V44.3799H530.69ZM518.98 46.4299V48.7799H526.99V46.4299H518.98ZM525.47 46.4299V46.9399C525.47 47.5799 525.44 48.1899 525.37 48.7799C525.25 49.8599 525.01 50.8499 524.66 51.7599C524.12 53.1699 523.29 54.4299 522.17 55.5599C521.06 56.6899 519.63 57.6899 517.88 58.5699L519.53 60.8199C522.69 59.2299 524.95 57.2399 526.32 54.8199C527.69 52.4099 528.38 49.6099 528.38 46.4299H525.47Z" fill="#25569D"/>
<path d="M556.56 44.3799V64.2099H559.35V44.3799H556.56ZM554.05 52.0199V54.3699H557.29V52.0199H554.05ZM552.14 44.7399V63.2799H554.89V44.7399H552.14ZM551.08 56.3299C549.54 56.6399 547.87 56.8299 546.09 56.8799C545.59 56.9099 545.07 56.9199 544.55 56.9199H543.16V59.4499H544.55C545.68 59.4499 546.8 59.4099 547.91 59.3199C549.03 59.2299 550.18 59.0799 551.37 58.8599L551.08 56.3299ZM543.16 46.5799V57.9999H546.09V46.5799H543.16Z" fill="#25569D"/>
<path d="M580.32 44.38V57.01H583.27V44.38H580.32ZM577.88 48.72V51.05H581.44V48.72H577.88ZM577.83 52.68V55.03H581.4V52.68H577.83ZM570.81 44.25V47.75H573.79V44.25H570.81ZM581.53 58.2C580.31 57.57 578.65 57.25 576.56 57.25C574.47 57.25 572.78 57.57 571.57 58.2C570.36 58.83 569.76 59.68 569.76 60.75C569.76 61.82 570.36 62.71 571.57 63.31C572.78 63.92 574.44 64.23 576.56 64.23C578.68 64.23 580.31 63.92 581.53 63.31C582.75 62.71 583.35 61.85 583.35 60.75C583.35 59.65 582.75 58.83 581.53 58.2ZM579.3 61.69C578.67 61.88 577.75 61.98 576.54 61.98C575.33 61.98 574.42 61.88 573.8 61.69C573.17 61.49 572.86 61.18 572.86 60.75C572.86 60.32 573.17 60.01 573.79 59.81C574.4 59.6 575.33 59.5 576.56 59.5C577.79 59.5 578.69 59.6 579.31 59.81C579.92 60.01 580.23 60.33 580.23 60.75C580.23 61.17 579.92 61.49 579.3 61.69ZM576.36 50.9C575.96 50.34 575.41 49.9 574.7 49.59C573.99 49.27 573.18 49.11 572.27 49.11C571.36 49.11 570.59 49.27 569.88 49.58C569.17 49.88 568.62 50.32 568.22 50.9C567.82 51.47 567.62 52.11 567.62 52.83C567.62 53.55 567.82 54.19 568.22 54.76C568.62 55.32 569.17 55.76 569.87 56.08C570.57 56.39 571.37 56.55 572.27 56.55C573.17 56.55 573.99 56.39 574.7 56.08C575.41 55.76 575.96 55.32 576.36 54.76C576.75 54.19 576.95 53.54 576.95 52.81C576.95 52.08 576.75 51.45 576.36 50.9ZM573.7 53.95C573.35 54.22 572.87 54.35 572.27 54.35C571.67 54.35 571.24 54.22 570.89 53.95C570.55 53.69 570.37 53.32 570.37 52.83C570.37 52.34 570.55 51.97 570.89 51.71C571.24 51.45 571.69 51.31 572.27 51.31C572.85 51.31 573.35 51.45 573.7 51.71C574.05 51.97 574.23 52.35 574.23 52.83C574.23 53.31 574.05 53.69 573.7 53.95ZM566.72 46.17V48.45H577.57V46.17H566.72Z" fill="#25569D"/>
<path d="M600.12 44.3799V64.2099H602.91V44.3799H600.12ZM596.12 44.7099V63.3299H598.87V44.7099H596.12ZM593.65 51.1399V53.5399H596.91V51.1399H593.65ZM593.81 55.8199C593.25 54.9599 592.84 53.9999 592.6 52.9599C592.35 51.9199 592.22 50.8099 592.22 49.6399V47.6399H590V49.6399C590 51.1699 590.14 52.6099 590.43 53.9599C590.53 54.4499 590.65 54.9099 590.82 55.3599C591.07 56.1599 591.41 56.9099 591.81 57.5799C592.45 58.6399 593.28 59.4699 594.29 60.0699L596.03 57.9399C595.1 57.3899 594.36 56.6899 593.81 55.8199ZM586.21 46.3399V48.7399H595.04V46.3399H586.21ZM589.34 47.6399V49.6399C589.34 50.8399 589.21 51.9899 588.96 53.0699C588.72 54.1599 588.3 55.1699 587.72 56.0999C587.14 57.0299 586.4 57.7899 585.49 58.3799L587.23 60.5499C588.24 59.9199 589.07 59.0399 589.72 57.9099C590.18 57.1299 590.54 56.2799 590.82 55.3599C590.95 54.9599 591.05 54.5399 591.14 54.1099C591.44 52.6999 591.58 51.2099 591.58 49.6399V47.6399H589.34Z" fill="#25569D"/>
<path d="M607.36 48.7398V51.0298H620.97V48.7398H607.36ZM607.36 44.7598V50.6998H610.28V47.1098H620.8V44.7598H607.36ZM607.2 61.8298V64.0698H621.41V61.8298H607.2ZM607.16 55.4098V57.6298H617.98V58.6398H607.2V62.3398H610.08V60.7098H620.89V55.4098H607.16ZM605.16 52.0398V54.3698H623.09V52.0398H605.16Z" fill="#25569D"/>
<path d="M637.89 44.4102V58.6202H640.84V44.4102H637.89ZM627.62 61.5402V63.9002H641.35V61.5402H627.62ZM627.62 57.2102V62.4902H630.54V57.2102H627.62ZM634.75 48.1002C634.28 47.3202 633.63 46.7202 632.8 46.3002C631.97 45.8702 631.05 45.6602 630.04 45.6602C629.03 45.6602 628.11 45.8702 627.29 46.3002C626.47 46.7202 625.82 47.3202 625.34 48.1002C624.86 48.8802 624.63 49.7402 624.63 50.7002C624.63 51.6602 624.86 52.5002 625.34 53.2802C625.82 54.0702 626.47 54.6802 627.29 55.1102C628.11 55.5402 629.03 55.7602 630.04 55.7602C631.05 55.7602 631.97 55.5402 632.8 55.1102C633.63 54.6802 634.28 54.0702 634.75 53.2802C635.22 52.5002 635.45 51.6402 635.45 50.7002C635.45 49.7602 635.22 48.8802 634.75 48.1002ZM632.24 52.0302C632.02 52.4002 631.71 52.6902 631.33 52.8902C630.94 53.0802 630.51 53.1802 630.04 53.1802C629.57 53.1802 629.12 53.0802 628.74 52.8902C628.36 52.6902 628.06 52.4002 627.84 52.0302C627.62 51.6502 627.51 51.2102 627.51 50.7002C627.51 50.1902 627.62 49.7602 627.84 49.3802C628.06 49.0002 628.36 48.7102 628.74 48.5102C629.12 48.3102 629.55 48.2102 630.04 48.2102C630.53 48.2102 630.94 48.3102 631.33 48.5102C631.71 48.7102 632.02 49.0002 632.24 49.3802C632.46 49.7602 632.57 50.2002 632.57 50.7002C632.57 51.2002 632.46 51.6502 632.24 52.0302Z" fill="#25569D"/>
<path d="M662.14 44.3799V64.2699H665.13V44.3799H662.14ZM658.96 49.0899C658.51 48.0199 657.89 47.1999 657.11 46.6199C656.32 46.0399 655.43 45.7499 654.41 45.7499C653.39 45.7499 652.5 46.0399 651.71 46.6199C650.92 47.1999 650.3 48.0199 649.85 49.0899C649.4 50.1599 649.18 51.4099 649.18 52.8299C649.18 54.2499 649.4 55.5299 649.85 56.5999C650.3 57.6799 650.92 58.5199 651.71 59.0999C652.5 59.6899 653.4 59.9799 654.41 59.9799C655.42 59.9799 656.32 59.6899 657.11 59.0999C657.89 58.5199 658.51 57.6799 658.96 56.5999C659.4 55.5299 659.63 54.2699 659.63 52.8299C659.63 51.3899 659.4 50.1599 658.96 49.0899ZM656.5 55.2599C656.31 55.9299 656.04 56.4399 655.68 56.7799C655.32 57.1199 654.9 57.2999 654.41 57.2999C653.92 57.2999 653.53 57.1199 653.17 56.7799C652.81 56.4399 652.53 55.9299 652.32 55.2599C652.12 54.5999 652.02 53.7899 652.02 52.8299C652.02 51.8699 652.12 51.0999 652.32 50.4399C652.53 49.7899 652.81 49.2999 653.17 48.9599C653.53 48.6199 653.94 48.4499 654.41 48.4499C654.88 48.4499 655.32 48.6199 655.68 48.9599C656.04 49.2999 656.31 49.7899 656.5 50.4399C656.69 51.0999 656.79 51.8899 656.79 52.8299C656.79 53.7699 656.69 54.5999 656.5 55.2599Z" fill="#25569D"/>
<path d="M687.74 51.9299V54.3499H691.22V51.9299H687.74ZM685.52 44.3799V64.2099H688.49V44.3799H685.52ZM673.82 46.4299V48.7799H681.83V46.4299H673.82ZM680.31 46.4299V46.9399C680.31 47.5799 680.28 48.1899 680.21 48.7799C680.08 49.8599 679.85 50.8499 679.49 51.7599C678.95 53.1699 678.12 54.4299 677.01 55.5599C675.89 56.6899 674.46 57.6899 672.72 58.5699L674.37 60.8199C677.52 59.2299 679.78 57.2399 681.15 54.8199C682.53 52.4099 683.21 49.6099 683.21 46.4299H680.31Z" fill="#25569D"/>
<path d="M706.97 48.9397V51.3397H710.4V48.9397H706.97ZM704.82 44.4297V56.1497H707.79V44.4297H704.82ZM701.47 52.0297C700.8 51.4597 700.3 50.8197 699.99 50.0997C699.7 49.4597 699.54 48.7797 699.52 48.0797C699.51 47.9997 699.51 47.9197 699.51 47.8397V46.6097H697.14V47.8397C697.14 47.9197 697.14 47.9997 697.15 48.0797C697.17 49.1897 697.36 50.2397 697.72 51.2097C697.83 51.5097 697.96 51.7997 698.11 52.0797C698.47 52.7697 698.95 53.3897 699.54 53.9397C700.36 54.7097 701.38 55.2697 702.59 55.6297L704.02 53.3397C703 53.0297 702.15 52.5897 701.47 52.0297ZM707.2 58.2797C706.67 57.6997 705.89 57.2497 704.88 56.9497C703.87 56.6397 702.68 56.4797 701.32 56.4797C699.96 56.4797 698.74 56.6397 697.72 56.9497C696.7 57.2497 695.92 57.6997 695.38 58.2797C694.83 58.8597 694.56 59.5497 694.56 60.3597C694.56 61.1697 694.83 61.8597 695.38 62.4497C695.92 63.0297 696.7 63.4797 697.72 63.7797C698.74 64.0797 699.94 64.2297 701.32 64.2297C703.39 64.2297 705.02 63.8897 706.21 63.1997C707.41 62.5197 708.01 61.5697 708.01 60.3597C708.01 59.5497 707.74 58.8597 707.2 58.2797ZM704.13 61.5697C703.49 61.8297 702.55 61.9597 701.32 61.9597C700.09 61.9597 699.1 61.8297 698.46 61.5697C697.81 61.2997 697.49 60.8997 697.49 60.3597C697.49 59.9997 697.63 59.7097 697.92 59.4797C698.2 59.2397 698.63 59.0597 699.21 58.9497C699.78 58.8297 700.48 58.7697 701.32 58.7697C702.16 58.7697 702.83 58.8297 703.4 58.9497C703.96 59.0597 704.39 59.2397 704.67 59.4797C704.96 59.7097 705.1 59.9997 705.1 60.3597C705.1 60.8997 704.78 61.2997 704.13 61.5697ZM692.63 45.6997V48.0797H703.36V45.6997H692.63ZM696.54 46.6097V47.8197C696.54 47.9097 696.54 47.9897 696.53 48.0797C696.51 48.8497 696.35 49.5997 696.05 50.3197C695.72 51.1297 695.21 51.8597 694.51 52.5097C693.81 53.1697 692.93 53.6597 691.86 53.9997L693.35 56.3297C694.6 55.9297 695.64 55.3097 696.48 54.4597C697.16 53.7597 697.71 52.9697 698.11 52.0797C698.2 51.8897 698.28 51.6897 698.35 51.4897C698.73 50.4397 698.93 49.2997 698.95 48.0797C698.96 47.9997 698.96 47.9097 698.96 47.8197V46.6097H696.54Z" fill="#25569D"/>
<path d="M731.26 49.1597V51.5997H734.69V49.1597H731.26ZM729.1 44.4297V56.3497H732.07V44.4297H729.1ZM725.77 52.0097C725.09 51.3997 724.59 50.7197 724.27 49.9697C723.99 49.2997 723.83 48.6097 723.81 47.8997C723.81 47.8197 723.81 47.7397 723.81 47.6597V46.4297H721.44V47.6597C721.44 47.7397 721.44 47.8197 721.45 47.8997C721.47 49.0097 721.66 50.0697 722.02 51.0797C722.12 51.3697 722.24 51.6397 722.38 51.9097C722.74 52.6497 723.22 53.3097 723.82 53.9097C724.64 54.7197 725.64 55.3097 726.85 55.6897L728.34 53.3997C727.32 53.0797 726.46 52.6197 725.78 52.0097H725.77ZM718.81 57.1897V59.5397H729.1V64.2497H732.07V57.1897H718.81ZM716.92 45.5697V47.8997H727.65V45.5697H716.92ZM720.83 46.4297V47.6397C720.83 47.7297 720.83 47.8097 720.82 47.8997C720.8 48.6697 720.64 49.4097 720.34 50.1297C720.01 50.9197 719.49 51.6297 718.79 52.2697C718.08 52.9097 717.2 53.3997 716.15 53.7297L717.69 56.0397C718.92 55.6297 719.95 55.0097 720.79 54.1697C721.45 53.5097 721.98 52.7497 722.37 51.9097C722.47 51.6997 722.57 51.4797 722.65 51.2497C723.02 50.2097 723.22 49.0897 723.24 47.8997C723.25 47.8197 723.25 47.7297 723.25 47.6397V46.4297H720.83Z" fill="#25569D"/>
<path d="M737.84 61.5205V63.9205H751.59V61.5205H737.84ZM737.84 58.1305V62.2905H740.76V58.1305H737.84ZM750.96 46.8905C750.37 46.2805 749.52 45.8005 748.43 45.4705C747.34 45.1405 746.08 44.9805 744.66 44.9805C743.24 44.9805 741.96 45.1405 740.86 45.4705C739.77 45.8005 738.93 46.2805 738.33 46.9005C737.74 47.5305 737.44 48.2505 737.44 49.0705C737.44 49.8905 737.74 50.6405 738.33 51.2605C738.93 51.8805 739.77 52.3605 740.85 52.7005C741.94 53.0405 743.21 53.2105 744.66 53.2105C746.11 53.2105 747.36 53.0405 748.44 52.7005C749.53 52.3605 750.37 51.8805 750.96 51.2605C751.55 50.6405 751.85 49.9105 751.85 49.0705C751.85 48.2305 751.55 47.5105 750.96 46.8905ZM748.3 50.0405C747.97 50.3005 747.5 50.5005 746.88 50.6405C746.26 50.7805 745.52 50.8505 744.64 50.8505C743.76 50.8505 743.01 50.7805 742.39 50.6405C741.78 50.5005 741.3 50.3005 740.97 50.0405C740.64 49.7705 740.48 49.4505 740.48 49.0705C740.48 48.6905 740.64 48.3705 740.97 48.1105C741.3 47.8605 741.78 47.6605 742.39 47.5305C743.01 47.4005 743.76 47.3305 744.64 47.3305C745.52 47.3305 746.27 47.4005 746.89 47.5305C747.51 47.6605 747.99 47.8605 748.31 48.1205C748.63 48.3905 748.79 48.7005 748.79 49.0705C748.79 49.4405 748.63 49.7705 748.3 50.0405ZM735.68 54.4805V56.8105H753.61V54.4805H735.68Z" fill="#25569D"/>
<path d="M773.46 44.3799V64.2699H776.45V44.3799H773.46ZM770.28 49.0899C769.83 48.0199 769.21 47.1999 768.43 46.6199C767.64 46.0399 766.75 45.7499 765.73 45.7499C764.71 45.7499 763.82 46.0399 763.03 46.6199C762.23 47.1999 761.62 48.0199 761.17 49.0899C760.72 50.1599 760.5 51.4099 760.5 52.8299C760.5 54.2499 760.72 55.5299 761.17 56.5999C761.62 57.6799 762.23 58.5199 763.03 59.0999C763.82 59.6899 764.72 59.9799 765.73 59.9799C766.74 59.9799 767.64 59.6899 768.43 59.0999C769.21 58.5199 769.83 57.6799 770.28 56.5999C770.72 55.5299 770.95 54.2699 770.95 52.8299C770.95 51.3899 770.72 50.1599 770.28 49.0899ZM767.82 55.2599C767.63 55.9299 767.36 56.4399 767 56.7799C766.64 57.1199 766.22 57.2999 765.73 57.2999C765.24 57.2999 764.85 57.1199 764.49 56.7799C764.13 56.4399 763.85 55.9299 763.64 55.2599C763.44 54.5999 763.33 53.7899 763.33 52.8299C763.33 51.8699 763.44 51.0999 763.64 50.4399C763.85 49.7899 764.13 49.2999 764.49 48.9599C764.85 48.6199 765.26 48.4499 765.73 48.4499C766.2 48.4499 766.64 48.6199 767 48.9599C767.36 49.2999 767.63 49.7899 767.82 50.4399C768.01 51.0999 768.11 51.8899 768.11 52.8299C768.11 53.7699 768.01 54.5999 767.82 55.2599Z" fill="#25569D"/>
<path d="M781.42 48.7398V51.0298H795.04V48.7398H781.42ZM781.42 44.7598V50.6998H784.35V47.1098H794.86V44.7598H781.42ZM781.27 61.8298V64.0698H795.48V61.8298H781.27ZM781.22 55.4098V57.6298H792.04V58.6398H781.27V62.3398H784.15V60.7098H794.95V55.4098H781.22ZM779.22 52.0398V54.3698H797.15V52.0398H779.22Z" fill="#25569D"/>
<path d="M818.29 51.9299V54.3499H821.77V51.9299H818.29ZM816.07 44.3799V64.2099H819.04V44.3799H816.07ZM804.36 46.4299V48.7799H812.37V46.4299H804.36ZM810.85 46.4299V46.9399C810.85 47.5799 810.82 48.1899 810.75 48.7799C810.63 49.8599 810.39 50.8499 810.04 51.7599C809.5 53.1699 808.67 54.4299 807.55 55.5599C806.44 56.6899 805.01 57.6899 803.26 58.5699L804.91 60.8199C808.07 59.2299 810.33 57.2399 811.7 54.8199C813.07 52.4099 813.76 49.6099 813.76 46.4299H810.85Z" fill="#25569D"/>
<path d="M830.35 55.5198V59.6498H833.34V55.5198H830.35ZM824.8 61.5198V63.8798H838.71V61.5198H824.8ZM824.8 57.9398V62.1198H827.77V57.9398H824.8ZM837.95 46.6998C837.35 46.0798 836.51 45.5998 835.43 45.2598C834.34 44.9298 833.1 44.7598 831.69 44.7598C830.28 44.7598 829.02 44.9298 827.94 45.2598C826.86 45.5998 826.02 46.0798 825.42 46.6998C824.82 47.3298 824.52 48.0498 824.52 48.8698C824.52 49.6898 824.82 50.4398 825.42 51.0698C826.02 51.6998 826.86 52.1898 827.93 52.5198C829 52.8598 830.25 53.0298 831.69 53.0298C833.13 53.0298 834.34 52.8598 835.43 52.5198C836.51 52.1898 837.35 51.6998 837.95 51.0698C838.54 50.4398 838.84 49.7098 838.84 48.8698C838.84 48.0298 838.54 47.3298 837.95 46.6998ZM835.16 49.8698C834.84 50.1398 834.38 50.3498 833.79 50.4798C833.2 50.6098 832.5 50.6798 831.69 50.6798C830.88 50.6798 830.16 50.6098 829.57 50.4798C828.97 50.3498 828.51 50.1398 828.19 49.8698C827.87 49.5998 827.71 49.2698 827.71 48.8698C827.71 48.4998 827.86 48.1798 828.18 47.8998C828.5 47.6198 828.95 47.4198 829.55 47.2998C830.16 47.1698 830.87 47.1098 831.69 47.1098C832.51 47.1098 833.2 47.1698 833.8 47.2998C834.4 47.4198 834.86 47.6198 835.18 47.8998C835.49 48.1798 835.65 48.5098 835.65 48.8898C835.65 49.2698 835.49 49.5998 835.16 49.8698ZM822.71 53.9998V56.3298H840.66V53.9998H822.71Z" fill="#25569D"/>
<path d="M856.2 44.3799V64.2099H858.99V44.3799H856.2ZM852.08 44.7599V63.3699H854.83V44.7599H852.08ZM848.69 51.5999V53.9799H853.29V51.5999H848.69ZM850.67 56.9199C849.66 57.1299 848.65 57.2599 847.64 57.3299C846.99 57.3699 846.24 57.3999 845.39 57.4199C844.92 57.4299 844.41 57.4299 843.88 57.4299H842.49V59.8699H843.88C845.42 59.8699 846.71 59.8299 847.76 59.7599C848.81 59.6899 849.86 59.5499 850.92 59.3399L850.67 56.9199ZM842.49 46.6099V58.4899H845.39V48.9599H850.06V46.6099H842.49Z" fill="#25569D"/>
<path d="M479.78 86.4099V88.8299H483.21V86.4099H479.78ZM477.62 80.4099V95.2299H480.59V80.4099H477.62ZM469.33 80.3799V83.5499H472.28V80.3799H469.33ZM467.77 97.5399V99.8999H481.3V97.5399H467.77ZM467.77 94.1099V98.5299H470.74V94.1099H467.77ZM475.09 87.2499C474.68 86.6599 474.1 86.2099 473.34 85.8899C472.59 85.5799 471.74 85.4199 470.8 85.4199C469.86 85.4199 469.03 85.5799 468.29 85.8899C467.54 86.2099 466.97 86.6599 466.56 87.2499C466.15 87.8299 465.94 88.5099 465.94 89.2699C465.94 90.0299 466.15 90.6899 466.56 91.2699C466.97 91.8599 467.54 92.3099 468.29 92.6299C469.03 92.9399 469.87 93.0999 470.8 93.0999C471.73 93.0999 472.59 92.9399 473.34 92.6299C474.1 92.3099 474.68 91.8599 475.09 91.2699C475.5 90.6899 475.71 90.0199 475.71 89.2699C475.71 88.5199 475.5 87.8299 475.09 87.2499ZM472.3 90.4199C471.93 90.6899 471.43 90.8299 470.8 90.8299C470.17 90.8299 469.69 90.6899 469.32 90.4199C468.94 90.1399 468.76 89.7599 468.76 89.2699C468.76 88.7799 468.94 88.3599 469.32 88.0799C469.69 87.8099 470.19 87.6699 470.8 87.6699C471.41 87.6699 471.93 87.8099 472.3 88.0799C472.67 88.3599 472.85 88.7599 472.85 89.2699C472.85 89.7799 472.67 90.1399 472.3 90.4199ZM464.97 82.4499V84.7399H476.61V82.4499H464.97Z" fill="#25569D"/>
<path d="M504.16 87.9997V90.4597H507.68V87.9997H504.16ZM501.85 80.4297V100.25H504.82V80.4297H501.85ZM498.6 91.3497C497.92 90.4497 497.42 89.4297 497.1 88.2997C496.79 87.1697 496.63 85.9897 496.63 84.7397V81.9197H494.26V84.7397C494.26 86.3797 494.44 87.9297 494.81 89.3797C494.91 89.7897 495.03 90.1797 495.17 90.5597C495.5 91.5397 495.95 92.4297 496.5 93.2397C497.26 94.3597 498.22 95.2197 499.38 95.8097L501.16 93.4697C500.14 92.9597 499.28 92.2497 498.6 91.3497ZM493.68 81.9197V84.7397C493.68 86.0197 493.51 87.2497 493.16 88.4397C492.8 89.6197 492.27 90.6897 491.55 91.6297C490.83 92.5597 489.93 93.2797 488.84 93.7797L490.6 96.1797C491.84 95.5797 492.86 94.6897 493.67 93.5297C494.3 92.6397 494.79 91.6497 495.17 90.5597C495.29 90.2197 495.4 89.8797 495.49 89.5197C495.88 88.0197 496.08 86.4297 496.08 84.7397V81.9197H493.68Z" fill="#25569D"/>
<path d="M523.3 85.0502V87.4702H526.75V85.0502H523.3ZM521.16 80.4102V92.1802H524.13V80.4102H521.16ZM511.2 93.0102V100.01H524.13V93.0102H511.2ZM521.25 97.7001H514.1V95.3002H521.25V97.7001ZM519.86 88.5702C518.6 88.7902 517.33 88.9401 516.04 89.0201C515 89.0801 513.7 89.1201 512.12 89.1301C511.73 89.1402 511.32 89.1402 510.89 89.1402H509.19V91.5201H510.89C513.06 91.5201 514.82 91.4802 516.18 91.3902C517.54 91.3102 518.85 91.1402 520.13 90.8801L519.86 88.5702ZM509.17 81.4002V83.7302H515.33V85.2902H509.19V90.4202H512.12V87.4902H518.26V81.4002H509.17Z" fill="#25569D"/>
<path d="M541.95 80.3799V100.21H544.75V80.3799H541.95ZM537.9 80.7099V99.3299H540.65V80.7099H537.9ZM535.59 87.6399V90.0399H538.83V87.6399H535.59ZM536.44 87.6399C536.37 86.7099 536.21 85.8699 535.96 85.1199C535.6 84.0299 535.09 83.1999 534.44 82.6299C533.79 82.0599 533.02 81.7699 532.14 81.7699C531.26 81.7699 530.54 82.0599 529.88 82.6299C529.23 83.1999 528.73 84.0299 528.39 85.1199C528.04 86.2199 527.87 87.5099 527.87 89.0099C527.87 90.5099 528.04 91.7799 528.39 92.8699C528.73 93.9599 529.23 94.7899 529.88 95.3699C530.54 95.9399 531.29 96.2199 532.14 96.2199C532.99 96.2199 533.79 95.9399 534.44 95.3699C535.09 94.7899 535.6 93.9599 535.96 92.8699C536.23 92.0399 536.4 91.0999 536.47 90.0399C536.49 89.7099 536.5 89.3599 536.5 89.0099C536.5 88.5299 536.48 88.0799 536.44 87.6399ZM533.61 91.4799C533.48 92.1499 533.29 92.6499 533.05 92.9699C532.81 93.2899 532.51 93.4499 532.14 93.4499C531.82 93.4499 531.53 93.2899 531.29 92.9699C531.05 92.6499 530.87 92.1499 530.74 91.4799C530.62 90.8199 530.56 89.9899 530.56 89.0099C530.56 88.0299 530.62 87.1799 530.74 86.5199C530.87 85.8599 531.05 85.3699 531.29 85.0499C531.53 84.7299 531.82 84.5599 532.14 84.5599C532.51 84.5599 532.81 84.7299 533.05 85.0499C533.29 85.3699 533.48 85.8599 533.61 86.5199C533.75 87.1799 533.81 88.0099 533.81 89.0099C533.81 90.0099 533.75 90.8199 533.61 91.4799Z" fill="#25569D"/>
<path d="M561.22 80.3799V100.21H564.04V80.3799H561.22ZM557.04 80.8199V99.3499H559.79V80.8199H557.04ZM553.46 87.9499V90.2799H557.59V87.9499H553.46ZM547.78 82.7199V85.0699H553.61V82.7199H547.78ZM552.71 82.7199V83.3099C552.71 83.9199 552.68 84.5099 552.62 85.0699C552.54 86.0199 552.37 86.8999 552.12 87.6999C551.72 88.9699 551.08 90.1199 550.2 91.1599C549.32 92.2099 548.13 93.1699 546.64 94.0499L548.33 96.1299C550.12 95.0899 551.55 93.8999 552.62 92.5599C553.2 91.8399 553.68 91.0799 554.07 90.2799C554.42 89.5899 554.69 88.8699 554.9 88.1299C554.92 88.0699 554.93 88.0099 554.95 87.9499C555.37 86.3799 555.57 84.6399 555.57 82.7199H552.71Z" fill="#25569D"/>
<path d="M585.47 80.3799V100.21H588.28V80.3799H585.47ZM583.18 88.4399V90.7899H586.37V88.4399H583.18ZM581.31 80.7799V99.3899H584.06V80.7799H581.31ZM574.53 80.9099V84.8299H577.42V80.9099H574.53ZM579.75 88.8299C579.37 88.1099 578.85 87.5499 578.2 87.1399C577.54 86.7299 576.8 86.5199 575.96 86.5199C575.12 86.5199 574.4 86.7299 573.73 87.1399C573.06 87.5499 572.54 88.1099 572.17 88.8299C571.79 89.5499 571.61 90.3599 571.61 91.2699C571.61 92.1799 571.79 93.0199 572.17 93.7399C572.54 94.4599 573.06 95.0099 573.73 95.4099C574.4 95.8099 575.14 95.9999 575.96 95.9999C576.78 95.9999 577.54 95.8099 578.2 95.4099C578.85 95.0099 579.37 94.4599 579.75 93.7399C580.13 93.0199 580.32 92.1999 580.32 91.2699C580.32 90.3399 580.13 89.5499 579.75 88.8299ZM577.5 92.5099C577.36 92.8399 577.15 93.0999 576.89 93.2899C576.62 93.4699 576.32 93.5599 575.99 93.5599C575.63 93.5599 575.33 93.4699 575.06 93.2899C574.8 93.0999 574.59 92.8399 574.45 92.5099C574.3 92.1699 574.23 91.7599 574.23 91.2699C574.23 90.7799 574.3 90.3799 574.45 90.0299C574.59 89.6899 574.79 89.4199 575.05 89.2399C575.31 89.0599 575.61 88.9599 575.96 88.9599C576.31 88.9599 576.6 89.0599 576.88 89.2399C577.15 89.4199 577.36 89.6899 577.5 90.0299C577.65 90.3799 577.72 90.7899 577.72 91.2699C577.72 91.7499 577.65 92.1699 577.5 92.5099ZM571.19 83.3499V85.6899H580.65V83.3499H571.19Z" fill="#25569D"/>
<path d="M609.23 86.2002C608.3 85.7802 607.62 85.2902 607.18 84.7302C606.88 84.3402 606.69 83.9602 606.59 83.5702C606.54 83.3802 606.52 83.1902 606.52 83.0002V82.5202H603.9V83.0002C603.9 83.1902 603.91 83.3802 603.93 83.5702C604 84.2202 604.18 84.8402 604.48 85.4202C604.56 85.6002 604.66 85.7702 604.77 85.9402C605.35 86.8402 606.22 87.6002 607.38 88.2002C608.54 88.8102 609.95 89.2102 611.62 89.4002L612.68 87.0502C611.3 86.9002 610.15 86.6202 609.23 86.2002ZM603.26 91.7402V95.8702H606.21V91.7402H603.26ZM597.57 97.5702V99.9202H611.49V97.5702H597.57ZM597.57 94.2002V98.3602H600.51V94.2002H597.57ZM597.13 81.2402V83.5702H611.84V81.2402H597.13ZM602.45 82.5202V83.0002C602.45 83.1902 602.43 83.3802 602.38 83.5702C602.28 83.9602 602.08 84.3402 601.78 84.7202C601.33 85.2702 600.65 85.7702 599.73 86.1902C598.82 86.6202 597.67 86.9002 596.29 87.0502L597.35 89.4002C599.02 89.2102 600.43 88.8102 601.58 88.1902C602.73 87.5802 603.6 86.8202 604.19 85.9202C604.3 85.7502 604.39 85.5902 604.48 85.4202C604.79 84.8302 604.97 84.2102 605.04 83.5702C605.06 83.3802 605.07 83.1902 605.07 83.0002V82.5202H602.45ZM595.52 90.2402V92.5902H613.45V90.2402H595.52Z" fill="#25569D"/>
<path d="M633.47 80.4102V93.5201H636.42V80.4102H633.47ZM630.17 85.6202V88.0002H633.89V85.6202H630.17ZM633.9 96.7502C632.97 96.2202 632.28 95.6102 631.83 94.9002C631.38 94.2002 631.16 93.4702 631.16 92.7302V92.0901H628.65V92.7302C628.65 93.9402 628.94 95.0702 629.51 96.1002C629.57 96.2102 629.64 96.3202 629.71 96.4302C630.27 97.3202 631.05 98.0802 632.06 98.7102C633.19 99.4102 634.56 99.9002 636.15 100.16L637.32 97.8502C635.97 97.6502 634.83 97.2802 633.9 96.7502ZM628.26 92.0901V92.7302C628.26 93.4902 628.03 94.2202 627.57 94.9302C627.12 95.6302 626.44 96.2501 625.53 96.7701C624.62 97.3001 623.47 97.6602 622.1 97.8502L623.24 100.18C624.84 99.9202 626.2 99.4302 627.33 98.7202C628.34 98.0802 629.14 97.3202 629.71 96.4302C629.77 96.3302 629.84 96.2202 629.9 96.1102C630.47 95.0902 630.76 93.9602 630.76 92.7302V92.0901H628.26ZM621.06 81.8801V84.2302H629.09V81.8801H621.06ZM626.91 81.8801V83.2001C626.91 83.5501 626.89 83.9002 626.83 84.2302C626.66 85.5002 626.14 86.6102 625.28 87.5702C624.18 88.7802 622.43 89.7302 620.03 90.4402L621.26 92.7502C623.25 92.1302 624.9 91.3202 626.19 90.3202C627.48 89.3102 628.44 88.1102 629.08 86.7202C629.72 85.3302 630.04 83.7101 630.04 81.8801H626.91Z" fill="#25569D"/>
<path d="M652.52 80.3799V100.27H655.51V80.3799H652.52ZM649.34 85.0899C648.9 84.0199 648.28 83.1999 647.5 82.6199C646.71 82.0399 645.81 81.7499 644.8 81.7499C643.79 81.7499 642.89 82.0399 642.09 82.6199C641.3 83.1999 640.68 84.0199 640.24 85.0899C639.79 86.1599 639.56 87.4099 639.56 88.8299C639.56 90.2499 639.79 91.5299 640.24 92.5999C640.68 93.6799 641.3 94.5199 642.09 95.0999C642.89 95.6899 643.79 95.9799 644.8 95.9799C645.81 95.9799 646.71 95.6899 647.5 95.0999C648.28 94.5199 648.9 93.6799 649.34 92.5999C649.79 91.5299 650.01 90.2699 650.01 88.8299C650.01 87.3899 649.79 86.1599 649.34 85.0899ZM646.89 91.2599C646.7 91.9299 646.42 92.4399 646.07 92.7799C645.71 93.1199 645.28 93.2999 644.8 93.2999C644.32 93.2999 643.92 93.1199 643.56 92.7799C643.2 92.4399 642.92 91.9299 642.71 91.2599C642.5 90.5999 642.4 89.7899 642.4 88.8299C642.4 87.8699 642.5 87.0999 642.71 86.4399C642.92 85.7899 643.2 85.2999 643.56 84.9599C643.92 84.6199 644.33 84.4499 644.8 84.4499C645.27 84.4499 645.71 84.6199 646.07 84.9599C646.42 85.2999 646.7 85.7899 646.89 86.4399C647.08 87.0999 647.18 87.8899 647.18 88.8299C647.18 89.7699 647.08 90.5999 646.89 91.2599Z" fill="#25569D"/>
<path d="M678.26 87.7297V90.1697H681.74V87.7297H678.26ZM675.93 80.4297V100.25H678.9V80.4297H675.93ZM670.67 81.9697V86.7197H666.87V81.9697H663.92V95.6497H673.6V81.9697H670.67ZM670.67 93.2997H666.87V89.0297H670.67V93.2997Z" fill="#25569D"/>
<path d="M690.03 91.9602V96.6202H692.98V91.9602H690.03ZM684.6 90.4402V92.7902H698.94V90.4402H684.6ZM684.58 81.6602V83.9902H695.58V86.0201H684.6V91.5802H687.52V88.3302H698.52V81.6602H684.58ZM682.57 95.6502V98.0502H700.5V95.6502H682.57Z" fill="#25569D"/>
<path d="M721.65 87.8399V90.2799H725.12V87.8399H721.65ZM719.45 80.3799V100.21H722.42V80.3799H719.45ZM718.21 92.1299C716.7 92.4199 715.2 92.6399 713.69 92.7699C712.59 92.8599 711.49 92.9299 710.38 92.9599C709.97 92.9599 709.56 92.9699 709.15 92.9699H707.43V95.3899H709.15C710.78 95.3899 712.37 95.3299 713.92 95.1999C715.48 95.0799 717.01 94.8499 718.52 94.5299L718.21 92.1299ZM707.43 82.2799V94.5999H710.38V82.2799H707.43Z" fill="#25569D"/>
<path d="M740.3 80.3799V100.21H743.1V80.3799H740.3ZM736.25 80.7099V99.3299H739V80.7099H736.25ZM733.94 87.6399V90.0399H737.18V87.6399H733.94ZM734.79 87.6399C734.72 86.7099 734.56 85.8699 734.31 85.1199C733.95 84.0299 733.44 83.1999 732.79 82.6299C732.14 82.0599 731.37 81.7699 730.49 81.7699C729.61 81.7699 728.89 82.0599 728.23 82.6299C727.58 83.1999 727.08 84.0299 726.74 85.1199C726.39 86.2199 726.22 87.5099 726.22 89.0099C726.22 90.5099 726.39 91.7799 726.74 92.8699C727.08 93.9599 727.58 94.7899 728.23 95.3699C728.89 95.9399 729.64 96.2199 730.49 96.2199C731.34 96.2199 732.14 95.9399 732.79 95.3699C733.44 94.7899 733.95 93.9599 734.31 92.8699C734.58 92.0399 734.75 91.0999 734.82 90.0399C734.84 89.7099 734.85 89.3599 734.85 89.0099C734.85 88.5299 734.83 88.0799 734.79 87.6399ZM731.96 91.4799C731.83 92.1499 731.64 92.6499 731.4 92.9699C731.16 93.2899 730.86 93.4499 730.49 93.4499C730.17 93.4499 729.88 93.2899 729.64 92.9699C729.4 92.6499 729.22 92.1499 729.09 91.4799C728.97 90.8199 728.91 89.9899 728.91 89.0099C728.91 88.0299 728.97 87.1799 729.09 86.5199C729.22 85.8599 729.4 85.3699 729.64 85.0499C729.88 84.7299 730.17 84.5599 730.49 84.5599C730.86 84.5599 731.16 84.7299 731.4 85.0499C731.64 85.3699 731.83 85.8599 731.96 86.5199C732.1 87.1799 732.16 88.0099 732.16 89.0099C732.16 90.0099 732.1 90.8199 731.96 91.4799Z" fill="#25569D"/>
<path d="M759.57 80.3799V100.21H762.39V80.3799H759.57ZM755.39 80.8199V99.3499H758.14V80.8199H755.39ZM751.81 87.9499V90.2799H755.94V87.9499H751.81ZM746.13 82.7199V85.0699H751.96V82.7199H746.13ZM751.06 82.7199V83.3099C751.06 83.9199 751.03 84.5099 750.97 85.0699C750.89 86.0199 750.72 86.8999 750.47 87.6999C750.07 88.9699 749.43 90.1199 748.55 91.1599C747.67 92.2099 746.48 93.1699 744.99 94.0499L746.68 96.1299C748.47 95.0899 749.9 93.8999 750.97 92.5599C751.55 91.8399 752.03 91.0799 752.42 90.2799C752.77 89.5899 753.04 88.8699 753.25 88.1299C753.27 88.0699 753.28 88.0099 753.3 87.9499C753.72 86.3799 753.92 84.6399 753.92 82.7199H751.06Z" fill="#25569D"/>
<path d="M783.82 80.3799V100.21H786.63V80.3799H783.82ZM781.53 88.4399V90.7899H784.72V88.4399H781.53ZM779.66 80.7799V99.3899H782.41V80.7799H779.66ZM772.88 80.9099V84.8299H775.77V80.9099H772.88ZM778.1 88.8299C777.72 88.1099 777.2 87.5499 776.55 87.1399C775.89 86.7299 775.15 86.5199 774.31 86.5199C773.47 86.5199 772.75 86.7299 772.08 87.1399C771.41 87.5499 770.89 88.1099 770.52 88.8299C770.14 89.5499 769.96 90.3599 769.96 91.2699C769.96 92.1799 770.14 93.0199 770.52 93.7399C770.89 94.4599 771.41 95.0099 772.08 95.4099C772.75 95.8099 773.49 95.9999 774.31 95.9999C775.13 95.9999 775.89 95.8099 776.55 95.4099C777.2 95.0099 777.72 94.4599 778.1 93.7399C778.48 93.0199 778.67 92.1999 778.67 91.2699C778.67 90.3399 778.48 89.5499 778.1 88.8299ZM775.85 92.5099C775.71 92.8399 775.5 93.0999 775.24 93.2899C774.97 93.4699 774.67 93.5599 774.34 93.5599C773.98 93.5599 773.68 93.4699 773.41 93.2899C773.15 93.0999 772.94 92.8399 772.8 92.5099C772.65 92.1699 772.58 91.7599 772.58 91.2699C772.58 90.7799 772.65 90.3799 772.8 90.0299C772.94 89.6899 773.14 89.4199 773.4 89.2399C773.66 89.0599 773.96 88.9599 774.31 88.9599C774.66 88.9599 774.95 89.0599 775.23 89.2399C775.5 89.4199 775.71 89.6899 775.85 90.0299C776 90.3799 776.07 90.7899 776.07 91.2699C776.07 91.7499 776 92.1699 775.85 92.5099ZM769.54 83.3499V85.6899H779V83.3499H769.54Z" fill="#25569D"/>
<path d="M807.58 86.2002C806.65 85.7802 805.97 85.2902 805.53 84.7302C805.23 84.3402 805.04 83.9602 804.94 83.5702C804.89 83.3802 804.87 83.1902 804.87 83.0002V82.5202H802.25V83.0002C802.25 83.1902 802.26 83.3802 802.28 83.5702C802.35 84.2202 802.53 84.8402 802.83 85.4202C802.91 85.6002 803.01 85.7702 803.12 85.9402C803.7 86.8402 804.57 87.6002 805.73 88.2002C806.89 88.8102 808.3 89.2102 809.98 89.4002L811.03 87.0502C809.65 86.9002 808.5 86.6202 807.58 86.2002ZM801.61 91.7402V95.8702H804.56V91.7402H801.61ZM795.92 97.5702V99.9202H809.84V97.5702H795.92ZM795.92 94.2002V98.3602H798.86V94.2002H795.92ZM795.48 81.2402V83.5702H810.19V81.2402H795.48ZM800.8 82.5202V83.0002C800.8 83.1902 800.78 83.3802 800.73 83.5702C800.63 83.9602 800.43 84.3402 800.13 84.7202C799.68 85.2702 799 85.7702 798.08 86.1902C797.17 86.6202 796.02 86.9002 794.64 87.0502L795.7 89.4002C797.37 89.2102 798.78 88.8102 799.93 88.1902C801.08 87.5802 801.95 86.8202 802.54 85.9202C802.65 85.7502 802.74 85.5902 802.83 85.4202C803.14 84.8302 803.32 84.2102 803.39 83.5702C803.41 83.3802 803.42 83.1902 803.42 83.0002V82.5202H800.8ZM793.87 90.2402V92.5902H811.8V90.2402H793.87Z" fill="#25569D"/>
<path d="M831.82 80.4102V93.5201H834.77V80.4102H831.82ZM828.52 85.6202V88.0002H832.24V85.6202H828.52ZM832.25 96.7502C831.32 96.2202 830.63 95.6102 830.18 94.9002C829.73 94.2002 829.51 93.4702 829.51 92.7302V92.0901H827V92.7302C827 93.9402 827.29 95.0702 827.86 96.1002C827.92 96.2102 827.99 96.3202 828.06 96.4302C828.62 97.3202 829.4 98.0802 830.41 98.7102C831.54 99.4102 832.91 99.9002 834.5 100.16L835.67 97.8502C834.32 97.6502 833.18 97.2802 832.25 96.7502ZM826.61 92.0901V92.7302C826.61 93.4902 826.38 94.2202 825.92 94.9302C825.47 95.6302 824.79 96.2501 823.88 96.7701C822.97 97.3001 821.82 97.6602 820.45 97.8502L821.59 100.18C823.19 99.9202 824.55 99.4302 825.68 98.7202C826.69 98.0802 827.49 97.3202 828.06 96.4302C828.12 96.3302 828.19 96.2202 828.25 96.1102C828.82 95.0902 829.11 93.9602 829.11 92.7302V92.0901H826.61ZM819.41 81.8801V84.2302H827.44V81.8801H819.41ZM825.26 81.8801V83.2001C825.26 83.5501 825.24 83.9002 825.18 84.2302C825.01 85.5002 824.49 86.6102 823.63 87.5702C822.53 88.7802 820.78 89.7302 818.38 90.4402L819.61 92.7502C821.6 92.1302 823.25 91.3202 824.54 90.3202C825.83 89.3102 826.79 88.1102 827.43 86.7202C828.07 85.3302 828.39 83.7101 828.39 81.8801H825.26Z" fill="#25569D"/>
<path d="M850.87 80.3799V100.27H853.86V80.3799H850.87ZM847.69 85.0899C847.25 84.0199 846.63 83.1999 845.85 82.6199C845.06 82.0399 844.16 81.7499 843.15 81.7499C842.14 81.7499 841.24 82.0399 840.44 82.6199C839.65 83.1999 839.03 84.0199 838.59 85.0899C838.14 86.1599 837.91 87.4099 837.91 88.8299C837.91 90.2499 838.14 91.5299 838.59 92.5999C839.03 93.6799 839.65 94.5199 840.44 95.0999C841.24 95.6899 842.14 95.9799 843.15 95.9799C844.16 95.9799 845.06 95.6899 845.85 95.0999C846.63 94.5199 847.25 93.6799 847.69 92.5999C848.14 91.5299 848.36 90.2699 848.36 88.8299C848.36 87.3899 848.14 86.1599 847.69 85.0899ZM845.24 91.2599C845.05 91.9299 844.77 92.4399 844.42 92.7799C844.06 93.1199 843.63 93.2999 843.15 93.2999C842.67 93.2999 842.27 93.1199 841.91 92.7799C841.55 92.4399 841.27 91.9299 841.06 91.2599C840.85 90.5999 840.75 89.7899 840.75 88.8299C840.75 87.8699 840.85 87.0999 841.06 86.4399C841.27 85.7899 841.55 85.2999 841.91 84.9599C842.27 84.6199 842.68 84.4499 843.15 84.4499C843.62 84.4499 844.06 84.6199 844.42 84.9599C844.77 85.2999 845.05 85.7899 845.24 86.4399C845.43 87.0999 845.53 87.8899 845.53 88.8299C845.53 89.7699 845.43 90.5999 845.24 91.2599Z" fill="#25569D"/>
<path d="M871.55 87.6699V90.0899H875.03V87.6699H871.55ZM869.22 80.3799V100.27H872.19V80.3799H869.22ZM867.92 92.4399C866.56 92.6899 865.2 92.8599 863.85 92.9499C862.82 93.0099 861.65 93.0499 860.33 93.0699C859.92 93.0699 859.5 93.0699 859.06 93.0699H857.38V95.5099H859.06C861.01 95.5099 862.67 95.4699 864.05 95.3899C865.43 95.3099 866.81 95.1399 868.19 94.8699L867.92 92.4299V92.4399ZM857.38 82.2299V94.2699H860.33V84.5899H866.62V82.2299H857.38Z" fill="#25569D"/>
<path d="M623.15 136.271V137.271H628.28V136.271H623.15Z" fill="#25569D"/>
<path d="M640.22 135.72V136.6H642.16V135.72H640.22ZM639.41 131.55V142.11H640.46V131.55H639.41ZM632.73 132.59V139.44H637.6V132.59H632.73ZM636.58 138.6H633.75V133.42H636.58V138.6Z" fill="#25569D"/>
<path d="M650.78 131.53V142.09H651.79V131.53H650.78ZM648.65 131.77V141.57H649.62V131.77H648.65ZM647.17 135.52V136.37H649.14V135.52H647.17ZM643.88 135.66V136.47H646.61V135.66H643.88ZM647.6 138.48C647.04 138.59 646.49 138.67 645.95 138.7C645.48 138.74 644.89 138.75 644.17 138.76H643.18V139.6H643.87C644.76 139.6 645.48 139.58 646.02 139.54C646.57 139.51 647.12 139.43 647.68 139.32L647.6 138.48ZM643.18 132.79V139.03H644.17V133.62H647.08V132.79H643.18Z" fill="#25569D"/>
<path d="M656.31 140.33L656.44 141.22H661.72V140.33H656.31ZM661.24 133.74C661.02 133.32 660.7 133 660.3 132.77C659.89 132.54 659.43 132.42 658.91 132.42C658.36 132.42 657.83 132.59 657.33 132.93C656.83 133.26 656.46 133.69 656.24 134.22L657.14 134.61C657.3 134.23 657.55 133.92 657.89 133.68C658.22 133.44 658.56 133.32 658.91 133.32C659.24 133.32 659.53 133.4 659.78 133.56C660.02 133.71 660.22 133.93 660.36 134.2C660.5 134.48 660.57 134.8 660.57 135.16C660.57 135.54 660.42 135.96 660.12 136.41C659.83 136.86 659.47 137.31 659.04 137.74C658.62 138.18 658.06 138.72 657.37 139.36C657.15 139.55 656.97 139.71 656.83 139.84C656.69 139.97 656.52 140.13 656.31 140.33L657.02 140.97C657.23 140.76 657.45 140.55 657.69 140.33C657.81 140.22 657.93 140.11 658.06 139.99C658.8 139.33 659.41 138.76 659.87 138.29C660.34 137.82 660.74 137.31 661.07 136.76C661.41 136.21 661.58 135.68 661.58 135.16C661.58 134.64 661.46 134.15 661.24 133.74Z" fill="#25569D"/>
<path d="M663.66 132.511L663.39 137.031L664.38 137.171L664.46 135.901L664.62 133.391H668.1V132.511H663.66ZM668.43 136.911C668.18 136.481 667.83 136.141 667.38 135.901C666.93 135.651 666.41 135.531 665.84 135.531C665.45 135.531 665.05 135.621 664.64 135.811C664.58 135.841 664.52 135.871 664.46 135.901C664.13 136.071 663.86 136.281 663.64 136.531L664.38 137.171C664.56 136.971 664.78 136.801 665.06 136.661C665.33 136.531 665.59 136.471 665.84 136.471C666.21 136.471 666.55 136.551 666.85 136.711C667.15 136.881 667.39 137.101 667.56 137.401C667.73 137.691 667.82 138.021 667.82 138.401C667.82 138.781 667.73 139.111 667.56 139.421C667.39 139.721 667.15 139.961 666.85 140.131C666.55 140.291 666.21 140.381 665.84 140.381C665.39 140.381 664.99 140.241 664.64 139.961C664.29 139.691 664.07 139.331 663.98 138.891L663 139.121C663.1 139.541 663.29 139.921 663.56 140.261C663.84 140.591 664.17 140.861 664.57 141.041C664.97 141.231 665.39 141.331 665.84 141.331C666.42 141.331 666.94 141.201 667.39 140.951C667.84 140.701 668.19 140.351 668.44 139.911C668.69 139.471 668.81 138.971 668.81 138.401C668.81 137.831 668.69 137.341 668.43 136.911Z" fill="#25569D"/>
<path d="M677.84 134.2V135.05H679.67V134.2H677.84ZM677.08 131.55V137.89H678.12V131.55H677.08ZM674.71 135.89C674.33 135.57 674.04 135.21 673.83 134.8C673.63 134.39 673.53 133.96 673.53 133.5V132.67H672.69V133.5C672.69 134.09 672.8 134.65 673.03 135.18C673.26 135.71 673.59 136.17 674.03 136.55C674.46 136.93 674.98 137.22 675.57 137.41L676.07 136.61C675.54 136.45 675.09 136.21 674.71 135.89ZM677.82 139.06C677.54 138.77 677.14 138.55 676.62 138.4C676.09 138.25 675.48 138.17 674.76 138.17C674.04 138.17 673.42 138.25 672.9 138.4C672.37 138.55 671.97 138.77 671.69 139.06C671.41 139.36 671.27 139.71 671.27 140.11C671.27 140.51 671.41 140.87 671.69 141.17C671.97 141.47 672.37 141.69 672.9 141.85C673.42 142 674.04 142.08 674.75 142.08C675.83 142.08 676.68 141.91 677.3 141.56C677.92 141.21 678.23 140.73 678.23 140.11C678.23 139.71 678.09 139.36 677.82 139.06ZM676.56 140.97C676.12 141.17 675.52 141.28 674.75 141.28C673.98 141.28 673.38 141.17 672.94 140.97C672.5 140.76 672.28 140.47 672.28 140.11C672.28 139.88 672.38 139.68 672.58 139.51C672.78 139.34 673.07 139.21 673.44 139.12C673.81 139.03 674.25 138.99 674.75 138.99C675.25 138.99 675.71 139.03 676.08 139.12C676.45 139.21 676.73 139.34 676.92 139.51C677.12 139.68 677.21 139.88 677.21 140.11C677.21 140.47 676.99 140.76 676.56 140.97ZM670.17 132.31V133.17H675.83V132.31H670.17ZM672.5 132.67V133.51C672.5 134.01 672.39 134.48 672.17 134.93C671.96 135.38 671.65 135.78 671.25 136.12C670.86 136.47 670.39 136.74 669.86 136.93L670.4 137.75C670.99 137.53 671.51 137.22 671.95 136.8C672.39 136.38 672.74 135.88 672.98 135.32C673 135.27 673.02 135.23 673.03 135.18C673.25 134.66 673.35 134.1 673.35 133.51V132.67H672.5Z" fill="#25569D"/>
<path d="M688.24 137.951V132.521H687.28L683.34 137.941L683.46 138.831H687.24V141.211H688.24V138.831H689.48V137.951H688.24ZM687.24 137.951H684.56L687.24 134.23V137.951Z" fill="#25569D"/>
<path d="M696.61 134.58C696.34 133.91 695.97 133.39 695.49 133.01C695.02 132.63 694.48 132.45 693.87 132.45C693.26 132.45 692.72 132.63 692.24 133.01C691.77 133.39 691.39 133.91 691.13 134.58C690.86 135.25 690.72 136.01 690.72 136.86C690.72 137.71 690.86 138.48 691.13 139.15C691.39 139.83 691.77 140.35 692.24 140.73C692.72 141.1 693.26 141.29 693.87 141.29C694.48 141.29 695.02 141.1 695.49 140.72C695.97 140.34 696.34 139.82 696.61 139.15C696.88 138.48 697.01 137.72 697.01 136.86C697.01 136 696.88 135.25 696.61 134.58ZM695.75 138.69C695.57 139.22 695.31 139.64 694.98 139.95C694.66 140.25 694.28 140.4 693.87 140.4C693.46 140.4 693.08 140.25 692.76 139.95C692.43 139.64 692.18 139.22 692 138.69C691.81 138.16 691.72 137.55 691.72 136.85C691.72 136.15 691.81 135.56 692 135.03C692.18 134.49 692.43 134.07 692.76 133.77C693.08 133.47 693.45 133.32 693.87 133.32C694.29 133.32 694.66 133.47 694.98 133.77C695.31 134.07 695.57 134.49 695.75 135.03C695.93 135.56 696.02 136.17 696.02 136.86C696.02 137.55 695.93 138.16 695.75 138.69Z" fill="#25569D"/>
<path d="M705.77 131.55V136.97H706.8V131.55H705.77ZM703.76 133.87V134.7H706.46V133.87H703.76ZM703 135.37C702.62 135.07 702.32 134.72 702.11 134.34C701.89 133.95 701.79 133.55 701.79 133.14V132.45H700.95V133.14C700.95 133.67 701.06 134.17 701.27 134.66C701.28 134.68 701.29 134.71 701.3 134.73C701.54 135.23 701.87 135.67 702.3 136.04C702.74 136.41 703.24 136.69 703.83 136.87L704.32 136.06C703.82 135.91 703.38 135.68 703 135.37ZM700.01 141.16V141.99H707.2V141.16H700.01ZM699.99 137.5V138.33H705.78V139.3H700.01V141.67H701.04V140.07H706.8V137.5H699.99ZM698.44 132.06V132.91H704.08V132.06H698.44ZM700.74 132.45V133.13C700.74 133.57 700.64 134 700.42 134.42C700.2 134.84 699.9 135.22 699.5 135.55C699.1 135.88 698.64 136.13 698.13 136.31L698.64 137.1C699.23 136.92 699.74 136.62 700.19 136.22C700.63 135.82 700.98 135.34 701.22 134.8C701.24 134.75 701.26 134.71 701.27 134.66C701.49 134.17 701.6 133.66 701.6 133.13V132.45H700.74Z" fill="#25569D"/>
<path d="M711.72 136.271V137.271H716.85V136.271H711.72Z" fill="#25569D"/>
</g>
<defs>
<linearGradient id="paint0_linear_1966_76976" x1="1.99" y1="129.33" x2="1339.88" y2="58.57" gradientUnits="userSpaceOnUse">
<stop stop-color="#E9D9D3"/>
<stop offset="0.01" stop-color="#E6D9D6"/>
<stop offset="0.1" stop-color="#D7DCE4"/>
<stop offset="0.18" stop-color="#D3DDEA"/>
<stop offset="0.57" stop-color="#D5DCE7"/>
<stop offset="0.82" stop-color="#DEDADE"/>
<stop offset="1" stop-color="#E9D9D3"/>
</linearGradient>
<clipPath id="clip0_1966_76976">
<rect width="1340" height="188" fill="white"/>
</clipPath>
</defs>
</svg>
