<svg width="119" height="38" viewBox="0 0 119 38" fill="none" xmlns="http://www.w3.org/2000/svg">
<g id="&#235;&#169;&#148;&#236;&#157;&#184;_&#237;&#149;&#156;&#234;&#184;&#128;">
<g id="Group">
<path id="Vector" d="M84.526 9.56138H79.9684V1.9015C79.9684 0.853046 79.123 0 78.0838 0C77.0447 0 76.1992 0.853046 76.1992 1.9015V23.626C76.1992 24.6744 77.0447 25.5275 78.0838 25.5275C79.123 25.5275 79.9684 24.6744 79.9684 23.626V13.2817H84.526C85.5428 13.2817 86.3696 12.4475 86.3696 11.4215C86.3696 10.3956 85.5428 9.56138 84.526 9.56138Z" fill="#25569D"/>
<path id="Vector_2" d="M68.4878 19.0974C69.9391 17.6268 70.7386 15.6389 70.7386 13.4981V13.1211C70.7386 10.9378 69.8956 8.9661 68.412 7.53684H71.7628C72.7101 7.53684 73.4811 6.75895 73.4811 5.80319C73.4811 4.84743 72.7101 4.06954 71.7628 4.06954H63.5478V2.05029C63.5478 0.920412 62.6365 0.000976562 61.5167 0.000976562C60.3969 0.000976562 59.4856 0.920412 59.4856 2.05029V4.06954H51.062C50.1147 4.06954 49.3438 4.84743 49.3438 5.80319C49.3438 6.75895 50.1147 7.53684 51.062 7.53684H54.6437C53.1713 8.96861 52.3358 10.9403 52.3358 13.1211V13.4981C52.3358 15.6564 53.1092 17.6431 54.5146 19.0924C56.1484 20.7785 58.5694 21.6691 61.5155 21.6691C64.4615 21.6691 66.8241 20.7797 68.4853 19.0974H68.4878ZM56.1075 13.4556V13.1624C56.1075 10.2288 58.2304 8.33352 61.5167 8.33352C64.803 8.33352 66.9681 10.2288 66.9681 13.1624V13.4556C66.9681 16.3892 64.8278 18.2845 61.5167 18.2845C58.2056 18.2845 56.1075 16.3892 56.1075 13.4556Z" fill="#25569D"/>
<path id="Vector_3" d="M108.383 10.1363H114.728V18.5516C114.728 19.6 115.573 20.4531 116.613 20.4531C117.652 20.4531 118.497 19.6 118.497 18.5516V1.9015C118.497 0.853046 117.652 0 116.613 0C115.573 0 114.728 0.853046 114.728 1.9015V6.41601H108.383C107.366 6.41601 106.539 7.25026 106.539 8.27617C106.539 9.30208 107.366 10.1363 108.383 10.1363Z" fill="#25569D"/>
<path id="Vector_4" d="M99.7553 12.9097C101.711 15.1745 104.477 17.4343 107.535 19.2468C107.815 19.4134 108.134 19.5011 108.457 19.5011C109.11 19.5011 109.715 19.1454 110.035 18.5729C110.512 17.7211 110.244 16.6464 109.423 16.1265C107.594 14.9666 105.593 13.4058 104.068 11.9527C102.094 10.07 100.883 8.36016 100.559 7.0023V2.06941C100.559 0.974609 99.6759 0.0839844 98.5908 0.0839844C97.5057 0.0839844 96.623 0.974609 96.623 2.06941V9.42991C96.623 12.1494 95.0823 15.0555 90.7557 15.0555H88.9679C88.0318 15.0555 87.2695 15.8246 87.2695 16.7691C87.2695 17.7136 88.0318 18.4827 88.9679 18.4827H90.4639C93.1431 18.4827 95.3666 17.8339 97.07 16.5549C98.309 15.6255 99.2215 14.3803 99.7553 12.9085V12.9097Z" fill="#25569D"/>
<path id="Vector_5" d="M114.389 22.1445H97.3207C95.0004 22.1445 93.1133 24.0485 93.1133 26.3897V31.7698C93.1133 34.111 95.0004 36.015 97.3207 36.015H114.374C116.694 36.015 118.582 34.111 118.582 31.7698V26.2908C118.582 23.6176 117.093 22.1458 114.389 22.1458V22.1445ZM114.811 31.9076C114.811 32.3047 114.491 32.6279 114.097 32.6279H97.5976C97.204 32.6279 96.8837 32.3047 96.8837 31.9076V26.2482C96.8837 25.8511 97.204 25.5279 97.5976 25.5279H113.849C114.487 25.5279 114.811 25.697 114.811 26.624V31.9063V31.9076Z" fill="#25569D"/>
<path id="Vector_6" d="M83.6409 29.8955C83.2026 29.8955 82.7706 30.0458 82.4254 30.3189C80.0653 32.1853 76.9131 33.2563 73.7783 33.2563C72.0092 33.2563 70.3332 32.9043 68.9303 32.2379C64.698 30.2287 64.7563 26.1 64.7613 25.9246C64.775 25.3935 64.5838 24.8887 64.2212 24.5029C63.8587 24.1171 63.3696 23.8966 62.8419 23.8828H62.7923C61.7333 23.8828 60.8481 24.7509 60.8195 25.8181C60.8146 26.0148 60.7922 27.7948 61.6017 29.8616C62.6383 32.5085 64.5912 34.5741 67.2518 35.8367C69.1674 36.7461 71.4307 37.2272 73.7957 37.2272C74.5828 37.2272 75.3824 37.1733 76.172 37.0681C79.3639 36.6409 82.449 35.3557 84.8575 33.4492C85.2722 33.121 85.5354 32.65 85.5987 32.1227C85.662 31.5953 85.518 31.0742 85.1927 30.6558C84.8166 30.1711 84.2504 29.8942 83.6409 29.8942V29.8955Z" fill="#25569D"/>
<path id="Vector_7" d="M40.0159 5.41396C38.947 4.38805 37.2573 4.4319 36.2405 5.51042C34.1312 7.74888 32.5545 10.3093 31.5092 13.0262C29.2099 14.235 25.5127 15.6768 20.8719 15.7445C15.8029 15.8171 11.7866 14.2388 9.30733 12.8997C9.29988 12.896 9.29243 12.8922 9.28498 12.8884C8.23963 10.2216 6.6803 7.7113 4.60575 5.50916C3.5902 4.43064 1.89927 4.3868 0.830334 5.41271C-0.238601 6.43737 -0.280812 8.14346 0.734738 9.22198C7.13594 16.015 7.13594 26.6562 0.734738 33.4492C-0.280812 34.5278 -0.238601 36.2326 0.830334 37.2585C1.3468 37.7546 2.00852 38.0001 2.67024 38.0001C3.37666 38.0001 4.08059 37.7195 4.60575 37.1621C9.15959 32.3294 11.2329 26.0036 10.8269 19.8118C13.4912 20.7513 16.7675 21.479 20.5268 21.479C20.6683 21.479 20.8111 21.479 20.9539 21.4753C24.0278 21.4302 27.0968 20.8853 30.0156 19.8819C29.6295 26.0512 31.7041 32.3457 36.2405 37.1608C36.7657 37.7182 37.4696 37.9988 38.176 37.9988C38.8365 37.9988 39.4982 37.7533 40.0159 37.2573C41.0849 36.2326 41.1271 34.5265 40.1115 33.448C33.7103 26.6549 33.7103 16.0138 40.1115 9.22073C41.1271 8.14221 41.0849 6.43737 40.0159 5.41146V5.41396Z" fill="#25569D"/>
<path id="Vector_8" d="M14.5016 7.46738C15.7953 7.46738 16.8431 6.03437 16.8431 4.26689C16.8431 2.49942 15.7953 1.06641 14.5016 1.06641C13.208 1.06641 12.1602 2.49942 12.1602 4.26689C12.1602 6.03437 13.208 7.46738 14.5016 7.46738Z" fill="#25569D"/>
<path id="Vector_9" d="M26.3454 7.46738C27.639 7.46738 28.6869 6.03437 28.6869 4.26689C28.6869 2.49942 27.639 1.06641 26.3454 1.06641C25.0517 1.06641 24.0039 2.49942 24.0039 4.26689C24.0039 6.03437 25.0517 7.46738 26.3454 7.46738Z" fill="#25569D"/>
</g>
</g>
</svg>
