<svg width="12" height="12" viewBox="0 0 12 12" fill="none" xmlns="http://www.w3.org/2000/svg">
<path id="Vector" d="M7.69643 0.0066798L0.560269 0.285594C0.55468 0.285795 0.549097 0.286163 0.543526 0.286682C0.539429 0.287 0.535337 0.287363 0.531251 0.28777C0.23232 0.308365 0.000457143 0.550876 0 0.843418V8.59419C0 8.92469 0.100583 9.24768 0.287949 9.52245L1.81027 11.7516C1.9233 11.9171 2.11806 12.0113 2.32143 11.9989L11.4643 11.4411C11.7654 11.4226 12 11.1789 12 10.8843V2.23799C11.9999 2.09835 11.9461 1.96383 11.8493 1.86102C11.8263 1.83141 11.7975 1.80659 11.7645 1.78802C11.7641 1.78766 11.7638 1.78729 11.7634 1.78693C11.73 1.76324 11.6941 1.74315 11.6563 1.72701L9.3125 0.421777L9.33147 0.433759C8.85273 0.116131 8.27732 -0.0345549 7.69978 0.00667422L7.69643 0.0066798ZM7.72879 0.563421C7.73214 0.563477 7.73549 0.563477 7.73884 0.563421C8.18874 0.530727 8.63715 0.647235 9.01005 0.894632C9.01621 0.898872 9.02254 0.902866 9.02902 0.906615L10.471 1.70958L2.77455 1.95254L1.41071 0.810735L7.72879 0.563421ZM10.8571 2.81435V10.3603L2.85714 10.8484V3.06602L10.8571 2.81435ZM9.96652 3.91257C9.38709 3.94604 8.80436 3.97368 8.22322 4.01608C8.03236 4.03002 7.89062 4.19116 7.86719 4.36799C7.85633 4.45055 7.87945 4.49313 7.97545 4.49982C8.15145 4.51265 8.32607 4.53693 8.50893 4.55757V7.83155C8.45521 7.75624 8.42586 7.71646 8.39843 7.67574C7.64986 6.5718 6.89796 5.46986 6.15625 4.36145C6.04425 4.1941 5.93939 4.11356 5.71539 4.1381C5.19139 4.19444 4.66298 4.21122 4.13727 4.2525C3.84584 4.27537 3.67282 4.52453 3.75111 4.79508C3.94825 4.81181 4.14701 4.829 4.35044 4.84629V9.5497C4.21673 9.58652 4.08351 9.62795 3.94866 9.65975C3.81151 9.6921 3.74726 9.78214 3.72098 9.90598C3.69983 10.0053 3.72475 10.0554 3.84933 10.0465C4.27733 10.017 4.70758 9.99863 5.13615 9.97353C5.3133 9.96348 5.49089 9.96002 5.66517 9.93212C5.90289 9.89363 6.03231 9.75221 6.05803 9.52573C5.8466 9.47999 5.63392 9.42971 5.41963 9.38955C5.32421 9.37169 5.29183 9.33352 5.2924 9.23701C5.29583 8.1459 5.29518 7.05415 5.29575 5.96303C5.29575 5.92733 5.3034 5.89089 5.31026 5.8312C5.3434 5.87416 5.35684 5.89177 5.36941 5.91074C5.94769 6.78709 6.5243 7.66561 7.10601 8.53973C7.3563 8.9157 7.61267 9.28778 7.8761 9.65539C8.06696 9.92203 8.34688 10.0066 8.66517 9.94193C8.86402 9.9012 9.05513 9.82349 9.24999 9.76325C9.35856 9.72978 9.39007 9.66127 9.3895 9.5497C9.3855 7.9465 9.38726 6.34381 9.38726 4.74061C9.38726 4.44217 9.38629 4.44243 9.68972 4.38107C9.96858 4.32473 10.0505 4.19149 9.96652 3.91257Z" fill="#25569D"/>
</svg>
