<svg width="113" height="36" viewBox="0 0 113 36" fill="none" xmlns="http://www.w3.org/2000/svg">
<g id="&#237;&#157;&#176;&#236;&#131;&#137;_&#237;&#149;&#156;&#234;&#184;&#128;">
<g id="Group">
<path id="Vector" d="M80.5468 9.05815H76.2037V1.80142C76.2037 0.808149 75.398 0 74.4077 0C73.4175 0 72.6118 0.808149 72.6118 1.80142V22.3825C72.6118 23.3758 73.4175 24.1839 74.4077 24.1839C75.398 24.1839 76.2037 23.3758 76.2037 22.3825V12.5827H80.5468C81.5157 12.5827 82.3036 11.7923 82.3036 10.8204C82.3036 9.8485 81.5157 9.05815 80.5468 9.05815Z" fill="white"/>
<path id="Vector_2" d="M65.2649 18.0926C66.6479 16.6994 67.4098 14.8161 67.4098 12.788V12.4308C67.4098 10.3624 66.6077 8.4945 65.1927 7.14046H68.3859C69.2886 7.14046 70.0233 6.40352 70.0233 5.49806C70.0233 4.5926 69.2886 3.85565 68.3859 3.85565H60.5574V1.94268C60.5574 0.872265 59.689 0.0012207 58.6219 0.0012207C57.5547 0.0012207 56.6864 0.872265 56.6864 1.94268V3.85565H48.6591C47.7564 3.85565 47.0217 4.5926 47.0217 5.49806C47.0217 6.40352 47.7564 7.14046 48.6591 7.14046H52.0723C50.6692 8.49687 49.873 10.3647 49.873 12.4308V12.788C49.873 14.8327 50.61 16.7148 51.9493 18.0879C53.5062 19.6852 55.8132 20.5289 58.6207 20.5289C61.4282 20.5289 63.6796 19.6863 65.2625 18.0926H65.2649ZM63.818 12.7477C63.818 15.5269 61.7783 17.3224 58.6231 17.3224C55.4678 17.3224 53.4684 15.5269 53.4684 12.7477V12.47C53.4684 9.6907 55.4914 7.89521 58.6231 7.89521C61.7547 7.89521 63.818 9.6907 63.818 12.47V12.7477Z" fill="white"/>
<path id="Vector_3" d="M103.282 9.60285H109.329V17.5752C109.329 18.5684 110.134 19.3766 111.125 19.3766C112.115 19.3766 112.921 18.5684 112.921 17.5752V1.80142C112.921 0.808149 112.115 0 111.125 0C110.134 0 109.329 0.808149 109.329 1.80142V6.07832H103.282C102.313 6.07832 101.525 6.86867 101.525 7.84059C101.525 8.8125 102.313 9.60285 103.282 9.60285Z" fill="white"/>
<path id="Vector_4" d="M95.0597 12.2303C96.923 14.3759 99.5589 16.5167 102.473 18.2339C102.74 18.3917 103.044 18.4748 103.352 18.4748C103.974 18.4748 104.55 18.1377 104.856 17.5954C105.31 16.7885 105.053 15.7703 104.272 15.2778C102.53 14.1789 100.623 12.7002 99.1697 11.3237C97.2886 9.54003 96.1339 7.92018 95.8251 6.63378V1.96052C95.8251 0.92334 94.9839 0.0795898 93.9499 0.0795898C92.9159 0.0795898 92.0747 0.92334 92.0747 1.96052V8.93363C92.0747 11.51 90.6065 14.2631 86.4835 14.2631H84.7798C83.8878 14.2631 83.1614 14.9918 83.1614 15.8866C83.1614 16.7813 83.8878 17.51 84.7798 17.51H86.2055C88.7586 17.51 90.8775 16.8953 92.5007 15.6836C93.6814 14.8031 94.5509 13.6235 95.0597 12.2291V12.2303Z" fill="white"/>
<path id="Vector_5" d="M109.006 20.9788H92.7409C90.5297 20.9788 88.7314 22.7826 88.7314 25.0005V30.0974C88.7314 32.3154 90.5297 34.1192 92.7409 34.1192H108.992C111.203 34.1192 113.001 32.3154 113.001 30.0974V24.9068C113.001 22.3743 111.583 20.9799 109.006 20.9799V20.9788ZM109.408 25.2236V30.228C109.408 30.6042 109.103 30.9103 108.728 30.9103H93.0047C92.6297 30.9103 92.3245 30.6042 92.3245 30.228V24.8664C92.3245 24.4902 92.6297 24.1841 93.0047 24.1841H108.491C109.099 24.1841 109.408 24.3443 109.408 25.2224V25.2236Z" fill="white"/>
<path id="Vector_6" d="M79.7032 28.3219C79.2855 28.3219 78.8738 28.4643 78.5449 28.723C76.2959 30.4912 73.292 31.5059 70.3047 31.5059C68.62 31.5059 67.0217 31.1724 65.6848 30.5411C61.6517 28.6376 61.7073 24.7262 61.712 24.5601C61.725 24.0569 61.5428 23.5787 61.1974 23.2132C60.8519 22.8476 60.3858 22.6388 59.8829 22.6257H59.8356C58.8264 22.6257 57.9829 23.4481 57.9557 24.4592C57.951 24.6455 57.9297 26.3318 58.701 28.2899C59.6889 30.7974 61.5499 32.7543 64.0853 33.9505C65.9108 34.812 68.0675 35.2677 70.3213 35.2677C71.0714 35.2677 71.8333 35.2167 72.5857 35.117C75.6274 34.7124 78.5674 33.4948 80.8626 31.6886C81.2577 31.3777 81.5086 30.9315 81.5689 30.4319C81.6292 29.9323 81.492 29.4386 81.182 29.0423C80.8235 28.583 80.2841 28.3207 79.7032 28.3207V28.3219Z" fill="white"/>
<path id="Vector_7" d="M38.132 5.129C37.1134 4.15709 35.5032 4.19862 34.5342 5.22038C32.5242 7.34103 31.0217 9.76666 30.0255 12.3406C27.8344 13.4858 24.3112 14.8517 19.8888 14.9158C15.0583 14.9846 11.231 13.4894 8.86839 12.2208C8.86129 12.2172 8.85419 12.2137 8.84709 12.2101C7.85094 9.68359 6.36498 7.30543 4.38805 5.21919C3.42028 4.19744 1.80892 4.1559 0.790286 5.12782C-0.22835 6.09855 -0.268575 7.71484 0.699188 8.7366C6.79917 15.1721 6.79917 25.2532 0.699188 31.6887C-0.268575 32.7105 -0.22835 34.3256 0.790286 35.2975C1.28245 35.7675 1.91303 36 2.54362 36C3.21679 36 3.8876 35.7342 4.38805 35.2061C8.7276 30.6278 10.7034 24.6349 10.3165 18.769C12.8554 19.6591 15.9775 20.3485 19.5599 20.3485C19.6948 20.3485 19.8309 20.3485 19.9669 20.345C22.8962 20.3023 25.8208 19.786 28.6022 18.8355C28.2343 24.68 30.2112 30.6432 34.5342 35.205C35.0347 35.733 35.7055 35.9989 36.3787 35.9989C37.0081 35.9989 37.6386 35.7663 38.132 35.2963C39.1506 34.3256 39.1909 32.7093 38.2231 31.6875C32.1231 25.252 32.1231 15.1709 38.2231 8.73541C39.1909 7.71366 39.1506 6.09855 38.132 5.12663V5.129Z" fill="white"/>
<path id="Vector_8" d="M13.8185 7.07409C15.0512 7.07409 16.0498 5.7165 16.0498 4.04205C16.0498 2.3676 15.0512 1.01001 13.8185 1.01001C12.5857 1.01001 11.5872 2.3676 11.5872 4.04205C11.5872 5.7165 12.5857 7.07409 13.8185 7.07409Z" fill="white"/>
<path id="Vector_9" d="M25.1039 7.07409C26.3366 7.07409 27.3352 5.7165 27.3352 4.04205C27.3352 2.3676 26.3366 1.01001 25.1039 1.01001C23.8711 1.01001 22.8726 2.3676 22.8726 4.04205C22.8726 5.7165 23.8711 7.07409 25.1039 7.07409Z" fill="white"/>
</g>
</g>
</svg>
